G04*
G04 #@! TF.GenerationSoftware,Altium Limited,Altium Designer,23.1.1 (15)*
G04*
G04 Layer_Color=8421504*
%FSLAX24Y24*%
%MOIN*%
G70*
G04*
G04 #@! TF.SameCoordinates,385EC99C-E85F-452A-9B23-167F912ADACD*
G04*
G04*
G04 #@! TF.FilePolarity,Positive*
G04*
G01*
G75*
%ADD13R,0.0866X0.1240*%
%ADD14R,0.0500X0.0500*%
%ADD15R,0.0360X0.0360*%
%ADD16R,0.0600X0.0256*%
%ADD17R,0.1067X0.1319*%
%ADD18R,0.0500X0.0500*%
%ADD19R,0.0950X0.2100*%
%ADD20R,0.0965X0.0925*%
%ADD21O,0.0240X0.0800*%
%ADD22R,0.0240X0.0800*%
%ADD23R,0.1670X0.1500*%
D13*
X10978Y16300D02*
D03*
X8222D02*
D03*
D14*
X14600Y6250D02*
D03*
X15500D02*
D03*
X14600Y10350D02*
D03*
X15500D02*
D03*
X13400Y13150D02*
D03*
X12500D02*
D03*
X13400Y15700D02*
D03*
X12500D02*
D03*
Y10350D02*
D03*
X13400D02*
D03*
X13400Y6250D02*
D03*
X12500D02*
D03*
X22000Y10750D02*
D03*
X22900D02*
D03*
X24100Y10750D02*
D03*
X25000D02*
D03*
X28250Y19300D02*
D03*
X27350D02*
D03*
X27350Y17100D02*
D03*
X28250D02*
D03*
X22900Y19700D02*
D03*
X22000D02*
D03*
D15*
X13410Y8570D02*
D03*
X12550Y8200D02*
D03*
Y8940D02*
D03*
X13410Y4430D02*
D03*
X12550Y4060D02*
D03*
Y4800D02*
D03*
X22850Y9250D02*
D03*
X21990Y8880D02*
D03*
Y9620D02*
D03*
X3790Y19095D02*
D03*
Y18355D02*
D03*
X4650Y18725D02*
D03*
D16*
X5192Y14150D02*
D03*
Y13650D02*
D03*
Y13150D02*
D03*
Y12650D02*
D03*
X7327D02*
D03*
Y13150D02*
D03*
Y13650D02*
D03*
Y14150D02*
D03*
D17*
X6250Y13400D02*
D03*
D18*
X9050Y11650D02*
D03*
Y12550D02*
D03*
X4350Y10950D02*
D03*
Y11850D02*
D03*
X6750Y10950D02*
D03*
Y11850D02*
D03*
X7700D02*
D03*
Y10950D02*
D03*
X5200D02*
D03*
Y11850D02*
D03*
X3500D02*
D03*
Y10950D02*
D03*
X4150Y14550D02*
D03*
Y13650D02*
D03*
X8350D02*
D03*
Y14550D02*
D03*
X3300Y13650D02*
D03*
Y14550D02*
D03*
X3100Y9000D02*
D03*
Y8100D02*
D03*
D19*
X6575Y16300D02*
D03*
X3725D02*
D03*
D20*
X1950Y14370D02*
D03*
Y11930D02*
D03*
X10350D02*
D03*
Y14370D02*
D03*
D21*
X32600Y17100D02*
D03*
X32100D02*
D03*
X31600D02*
D03*
X31100D02*
D03*
X30600D02*
D03*
X30100D02*
D03*
X29600D02*
D03*
X31100Y19300D02*
D03*
X31600D02*
D03*
X32100D02*
D03*
X32600D02*
D03*
X29100D02*
D03*
X29600D02*
D03*
X30100D02*
D03*
X30600D02*
D03*
D22*
X29100Y17100D02*
D03*
D23*
X5845Y20500D02*
D03*
X8355D02*
D03*
M02*
