G04*
G04 #@! TF.GenerationSoftware,Altium Limited,Altium Designer,23.1.1 (15)*
G04*
G04 Layer_Color=65535*
%FSLAX24Y24*%
%MOIN*%
G70*
G04*
G04 #@! TF.SameCoordinates,385EC99C-E85F-452A-9B23-167F912ADACD*
G04*
G04*
G04 #@! TF.FilePolarity,Positive*
G04*
G01*
G75*
%ADD10C,0.0080*%
%ADD11C,0.0079*%
%ADD12C,0.0060*%
D10*
X28850Y17100D02*
G03*
X28850Y17100I-60J0D01*
G01*
X28790Y17060D02*
Y17140D01*
X28750Y17100D02*
X28830D01*
X32820Y17450D02*
Y18950D01*
X28880Y17450D02*
Y18950D01*
X14779Y9440D02*
Y8960D01*
Y9440D02*
X14939D01*
X15008Y9417D01*
X15053Y9371D01*
X15076Y9326D01*
X15099Y9257D01*
Y9143D01*
X15076Y9074D01*
X15053Y9029D01*
X15008Y8983D01*
X14939Y8960D01*
X14779D01*
X15207Y9349D02*
X15252Y9371D01*
X15321Y9440D01*
Y8960D01*
X9287Y18140D02*
Y17660D01*
Y18140D02*
X9447D01*
X9516Y18117D01*
X9561Y18071D01*
X9584Y18026D01*
X9607Y17957D01*
Y17843D01*
X9584Y17774D01*
X9561Y17729D01*
X9516Y17683D01*
X9447Y17660D01*
X9287D01*
X9943Y18140D02*
X9714Y17820D01*
X10057D01*
X9943Y18140D02*
Y17660D01*
X14676Y5340D02*
Y4860D01*
Y5340D02*
X14836D01*
X14905Y5317D01*
X14951Y5271D01*
X14973Y5226D01*
X14996Y5157D01*
Y5043D01*
X14973Y4974D01*
X14951Y4929D01*
X14905Y4883D01*
X14836Y4860D01*
X14676D01*
X15127Y5226D02*
Y5249D01*
X15149Y5294D01*
X15172Y5317D01*
X15218Y5340D01*
X15309D01*
X15355Y5317D01*
X15378Y5294D01*
X15401Y5249D01*
Y5203D01*
X15378Y5157D01*
X15332Y5089D01*
X15104Y4860D01*
X15424D01*
X14670Y14021D02*
X14624Y14067D01*
X14556Y14090D01*
X14464D01*
X14396Y14067D01*
X14350Y14021D01*
Y13976D01*
X14373Y13930D01*
X14396Y13907D01*
X14441Y13884D01*
X14578Y13839D01*
X14624Y13816D01*
X14647Y13793D01*
X14670Y13747D01*
Y13679D01*
X14624Y13633D01*
X14556Y13610D01*
X14464D01*
X14396Y13633D01*
X14350Y13679D01*
X14777Y14090D02*
X14891Y13610D01*
X15006Y14090D02*
X14891Y13610D01*
X15006Y14090D02*
X15120Y13610D01*
X15234Y14090D02*
X15120Y13610D01*
X15376Y14090D02*
X15627D01*
X15490Y13907D01*
X15559D01*
X15604Y13884D01*
X15627Y13861D01*
X15650Y13793D01*
Y13747D01*
X15627Y13679D01*
X15582Y13633D01*
X15513Y13610D01*
X15444D01*
X15376Y13633D01*
X15353Y13656D01*
X15330Y13701D01*
X14670Y16571D02*
X14624Y16617D01*
X14556Y16640D01*
X14464D01*
X14396Y16617D01*
X14350Y16571D01*
Y16526D01*
X14373Y16480D01*
X14396Y16457D01*
X14441Y16434D01*
X14578Y16389D01*
X14624Y16366D01*
X14647Y16343D01*
X14670Y16297D01*
Y16229D01*
X14624Y16183D01*
X14556Y16160D01*
X14464D01*
X14396Y16183D01*
X14350Y16229D01*
X14777Y16640D02*
X14891Y16160D01*
X15006Y16640D02*
X14891Y16160D01*
X15006Y16640D02*
X15120Y16160D01*
X15234Y16640D02*
X15120Y16160D01*
X15353Y16526D02*
Y16549D01*
X15376Y16594D01*
X15399Y16617D01*
X15444Y16640D01*
X15536D01*
X15582Y16617D01*
X15604Y16594D01*
X15627Y16549D01*
Y16503D01*
X15604Y16457D01*
X15559Y16389D01*
X15330Y16160D01*
X15650D01*
X15076Y7140D02*
Y6660D01*
Y7140D02*
X15282D01*
X15351Y7117D01*
X15373Y7094D01*
X15396Y7049D01*
Y7003D01*
X15373Y6957D01*
X15351Y6934D01*
X15282Y6911D01*
X15076D01*
X15236D02*
X15396Y6660D01*
X15549Y7140D02*
X15801D01*
X15664Y6957D01*
X15732D01*
X15778Y6934D01*
X15801Y6911D01*
X15824Y6843D01*
Y6797D01*
X15801Y6729D01*
X15755Y6683D01*
X15687Y6660D01*
X15618D01*
X15549Y6683D01*
X15527Y6706D01*
X15504Y6751D01*
X14676Y11240D02*
Y10760D01*
Y11240D02*
X14882D01*
X14951Y11217D01*
X14973Y11194D01*
X14996Y11149D01*
Y11103D01*
X14973Y11057D01*
X14951Y11034D01*
X14882Y11011D01*
X14676D01*
X14836D02*
X14996Y10760D01*
X15127Y11126D02*
Y11149D01*
X15149Y11194D01*
X15172Y11217D01*
X15218Y11240D01*
X15309D01*
X15355Y11217D01*
X15378Y11194D01*
X15401Y11149D01*
Y11103D01*
X15378Y11057D01*
X15332Y10989D01*
X15104Y10760D01*
X15424D01*
X12576Y14090D02*
Y13610D01*
Y14090D02*
X12782D01*
X12851Y14067D01*
X12873Y14044D01*
X12896Y13999D01*
Y13953D01*
X12873Y13907D01*
X12851Y13884D01*
X12782Y13861D01*
X12576D01*
X12736D02*
X12896Y13610D01*
X13118Y14090D02*
X13049Y14067D01*
X13027Y14021D01*
Y13976D01*
X13049Y13930D01*
X13095Y13907D01*
X13187Y13884D01*
X13255Y13861D01*
X13301Y13816D01*
X13324Y13770D01*
Y13701D01*
X13301Y13656D01*
X13278Y13633D01*
X13209Y13610D01*
X13118D01*
X13049Y13633D01*
X13027Y13656D01*
X13004Y13701D01*
Y13770D01*
X13027Y13816D01*
X13072Y13861D01*
X13141Y13884D01*
X13232Y13907D01*
X13278Y13930D01*
X13301Y13976D01*
Y14021D01*
X13278Y14067D01*
X13209Y14090D01*
X13118D01*
X12588Y16640D02*
Y16160D01*
Y16640D02*
X12793D01*
X12862Y16617D01*
X12885Y16594D01*
X12908Y16549D01*
Y16503D01*
X12885Y16457D01*
X12862Y16434D01*
X12793Y16411D01*
X12588D01*
X12748D02*
X12908Y16160D01*
X13289Y16571D02*
X13267Y16617D01*
X13198Y16640D01*
X13152D01*
X13084Y16617D01*
X13038Y16549D01*
X13015Y16434D01*
Y16320D01*
X13038Y16229D01*
X13084Y16183D01*
X13152Y16160D01*
X13175D01*
X13244Y16183D01*
X13289Y16229D01*
X13312Y16297D01*
Y16320D01*
X13289Y16389D01*
X13244Y16434D01*
X13175Y16457D01*
X13152D01*
X13084Y16434D01*
X13038Y16389D01*
X13015Y16320D01*
X12565Y11240D02*
Y10760D01*
Y11240D02*
X12771D01*
X12839Y11217D01*
X12862Y11194D01*
X12885Y11149D01*
Y11103D01*
X12862Y11057D01*
X12839Y11034D01*
X12771Y11011D01*
X12565D01*
X12725D02*
X12885Y10760D01*
X13221Y11240D02*
X12992Y10920D01*
X13335D01*
X13221Y11240D02*
Y10760D01*
X12612Y9810D02*
Y9467D01*
X12635Y9399D01*
X12681Y9353D01*
X12749Y9330D01*
X12795D01*
X12864Y9353D01*
X12909Y9399D01*
X12932Y9467D01*
Y9810D01*
X13293D02*
X13065Y9490D01*
X13408D01*
X13293Y9810D02*
Y9330D01*
X12576Y7140D02*
Y6660D01*
Y7140D02*
X12782D01*
X12851Y7117D01*
X12873Y7094D01*
X12896Y7049D01*
Y7003D01*
X12873Y6957D01*
X12851Y6934D01*
X12782Y6911D01*
X12576D01*
X12736D02*
X12896Y6660D01*
X13278Y7140D02*
X13049D01*
X13027Y6934D01*
X13049Y6957D01*
X13118Y6980D01*
X13187D01*
X13255Y6957D01*
X13301Y6911D01*
X13324Y6843D01*
Y6797D01*
X13301Y6729D01*
X13255Y6683D01*
X13187Y6660D01*
X13118D01*
X13049Y6683D01*
X13027Y6706D01*
X13004Y6751D01*
X12574Y5670D02*
Y5327D01*
X12597Y5259D01*
X12642Y5213D01*
X12711Y5190D01*
X12757D01*
X12825Y5213D01*
X12871Y5259D01*
X12894Y5327D01*
Y5670D01*
X13301D02*
X13072D01*
X13049Y5464D01*
X13072Y5487D01*
X13141Y5510D01*
X13209D01*
X13278Y5487D01*
X13323Y5441D01*
X13346Y5373D01*
Y5327D01*
X13323Y5259D01*
X13278Y5213D01*
X13209Y5190D01*
X13141D01*
X13072Y5213D01*
X13049Y5236D01*
X13026Y5281D01*
X5117Y15090D02*
Y14747D01*
X5139Y14679D01*
X5185Y14633D01*
X5254Y14610D01*
X5299D01*
X5368Y14633D01*
X5414Y14679D01*
X5437Y14747D01*
Y15090D01*
X5569Y14999D02*
X5615Y15021D01*
X5683Y15090D01*
Y14610D01*
X8974Y10744D02*
X8929Y10721D01*
X8883Y10675D01*
X8860Y10630D01*
Y10538D01*
X8883Y10493D01*
X8929Y10447D01*
X8974Y10424D01*
X9043Y10401D01*
X9157D01*
X9226Y10424D01*
X9271Y10447D01*
X9317Y10493D01*
X9340Y10538D01*
Y10630D01*
X9317Y10675D01*
X9271Y10721D01*
X9226Y10744D01*
X8860Y10993D02*
X8883Y10925D01*
X8929Y10902D01*
X8974D01*
X9020Y10925D01*
X9043Y10970D01*
X9066Y11062D01*
X9089Y11130D01*
X9134Y11176D01*
X9180Y11199D01*
X9249D01*
X9294Y11176D01*
X9317Y11153D01*
X9340Y11085D01*
Y10993D01*
X9317Y10925D01*
X9294Y10902D01*
X9249Y10879D01*
X9180D01*
X9134Y10902D01*
X9089Y10947D01*
X9066Y11016D01*
X9043Y11107D01*
X9020Y11153D01*
X8974Y11176D01*
X8929D01*
X8883Y11153D01*
X8860Y11085D01*
Y10993D01*
X4110Y9400D02*
X4590D01*
X4110D02*
Y9606D01*
X4133Y9675D01*
X4156Y9697D01*
X4201Y9720D01*
X4247D01*
X4293Y9697D01*
X4316Y9675D01*
X4339Y9606D01*
Y9400D01*
Y9560D02*
X4590Y9720D01*
X4201Y9828D02*
X4179Y9873D01*
X4110Y9942D01*
X4590D01*
X4110Y10225D02*
Y10477D01*
X4293Y10340D01*
Y10408D01*
X4316Y10454D01*
X4339Y10477D01*
X4407Y10500D01*
X4453D01*
X4521Y10477D01*
X4567Y10431D01*
X4590Y10362D01*
Y10294D01*
X4567Y10225D01*
X4544Y10203D01*
X4499Y10180D01*
X6510Y9450D02*
X6990D01*
X6510D02*
Y9656D01*
X6533Y9725D01*
X6556Y9747D01*
X6601Y9770D01*
X6647D01*
X6693Y9747D01*
X6716Y9725D01*
X6739Y9656D01*
Y9450D01*
Y9610D02*
X6990Y9770D01*
X6601Y9878D02*
X6579Y9923D01*
X6510Y9992D01*
X6990D01*
X6624Y10253D02*
X6601D01*
X6556Y10275D01*
X6533Y10298D01*
X6510Y10344D01*
Y10435D01*
X6533Y10481D01*
X6556Y10504D01*
X6601Y10527D01*
X6647D01*
X6693Y10504D01*
X6761Y10458D01*
X6990Y10230D01*
Y10550D01*
X7460Y9503D02*
X7940D01*
X7460D02*
Y9709D01*
X7483Y9777D01*
X7506Y9800D01*
X7551Y9823D01*
X7597D01*
X7643Y9800D01*
X7666Y9777D01*
X7689Y9709D01*
Y9503D01*
Y9663D02*
X7940Y9823D01*
X7551Y9931D02*
X7529Y9976D01*
X7460Y10045D01*
X7940D01*
X7551Y10282D02*
X7529Y10328D01*
X7460Y10397D01*
X7940D01*
X5074Y9718D02*
X5029Y9695D01*
X4983Y9649D01*
X4960Y9604D01*
Y9512D01*
X4983Y9467D01*
X5029Y9421D01*
X5074Y9398D01*
X5143Y9375D01*
X5257D01*
X5326Y9398D01*
X5371Y9421D01*
X5417Y9467D01*
X5440Y9512D01*
Y9604D01*
X5417Y9649D01*
X5371Y9695D01*
X5326Y9718D01*
X5051Y9853D02*
X5029Y9899D01*
X4960Y9967D01*
X5440D01*
X4960Y10342D02*
X4983Y10273D01*
X5051Y10228D01*
X5166Y10205D01*
X5234D01*
X5349Y10228D01*
X5417Y10273D01*
X5440Y10342D01*
Y10388D01*
X5417Y10456D01*
X5349Y10502D01*
X5234Y10525D01*
X5166D01*
X5051Y10502D01*
X4983Y10456D01*
X4960Y10388D01*
Y10342D01*
X3374Y10105D02*
X3329Y10083D01*
X3283Y10037D01*
X3260Y9991D01*
Y9900D01*
X3283Y9854D01*
X3329Y9808D01*
X3374Y9786D01*
X3443Y9763D01*
X3557D01*
X3626Y9786D01*
X3671Y9808D01*
X3717Y9854D01*
X3740Y9900D01*
Y9991D01*
X3717Y10037D01*
X3671Y10083D01*
X3626Y10105D01*
X3420Y10537D02*
X3489Y10514D01*
X3534Y10469D01*
X3557Y10400D01*
Y10377D01*
X3534Y10309D01*
X3489Y10263D01*
X3420Y10240D01*
X3397D01*
X3329Y10263D01*
X3283Y10309D01*
X3260Y10377D01*
Y10400D01*
X3283Y10469D01*
X3329Y10514D01*
X3420Y10537D01*
X3534D01*
X3649Y10514D01*
X3717Y10469D01*
X3740Y10400D01*
Y10355D01*
X3717Y10286D01*
X3671Y10263D01*
X1774Y10783D02*
X1729Y10760D01*
X1683Y10714D01*
X1660Y10668D01*
Y10577D01*
X1683Y10531D01*
X1729Y10486D01*
X1774Y10463D01*
X1843Y10440D01*
X1957D01*
X2026Y10463D01*
X2071Y10486D01*
X2117Y10531D01*
X2140Y10577D01*
Y10668D01*
X2117Y10714D01*
X2071Y10760D01*
X2026Y10783D01*
X1660Y11146D02*
X1980Y10917D01*
Y11260D01*
X1660Y11146D02*
X2140D01*
X3974Y12694D02*
X3929Y12671D01*
X3883Y12625D01*
X3860Y12580D01*
Y12488D01*
X3883Y12443D01*
X3929Y12397D01*
X3974Y12374D01*
X4043Y12351D01*
X4157D01*
X4226Y12374D01*
X4271Y12397D01*
X4317Y12443D01*
X4340Y12488D01*
Y12580D01*
X4317Y12625D01*
X4271Y12671D01*
X4226Y12694D01*
X3860Y12875D02*
Y13126D01*
X4043Y12989D01*
Y13057D01*
X4066Y13103D01*
X4089Y13126D01*
X4157Y13149D01*
X4203D01*
X4271Y13126D01*
X4317Y13080D01*
X4340Y13012D01*
Y12943D01*
X4317Y12875D01*
X4294Y12852D01*
X4249Y12829D01*
X8224Y12794D02*
X8179Y12771D01*
X8133Y12725D01*
X8110Y12680D01*
Y12588D01*
X8133Y12543D01*
X8179Y12497D01*
X8224Y12474D01*
X8293Y12451D01*
X8407D01*
X8476Y12474D01*
X8521Y12497D01*
X8567Y12543D01*
X8590Y12588D01*
Y12680D01*
X8567Y12725D01*
X8521Y12771D01*
X8476Y12794D01*
X8224Y12952D02*
X8201D01*
X8156Y12975D01*
X8133Y12997D01*
X8110Y13043D01*
Y13135D01*
X8133Y13180D01*
X8156Y13203D01*
X8201Y13226D01*
X8247D01*
X8293Y13203D01*
X8361Y13157D01*
X8590Y12929D01*
Y13249D01*
X10224Y11047D02*
X10179Y11024D01*
X10133Y10978D01*
X10110Y10933D01*
Y10841D01*
X10133Y10795D01*
X10179Y10750D01*
X10224Y10727D01*
X10293Y10704D01*
X10407D01*
X10476Y10727D01*
X10521Y10750D01*
X10567Y10795D01*
X10590Y10841D01*
Y10933D01*
X10567Y10978D01*
X10521Y11024D01*
X10476Y11047D01*
X10201Y11182D02*
X10179Y11227D01*
X10110Y11296D01*
X10590D01*
X1381Y21720D02*
Y21240D01*
Y21720D02*
X1586D01*
X1655Y21697D01*
X1678Y21674D01*
X1701Y21629D01*
Y21583D01*
X1678Y21537D01*
X1655Y21514D01*
X1586Y21491D01*
X1381D02*
X1586D01*
X1655Y21469D01*
X1678Y21446D01*
X1701Y21400D01*
Y21331D01*
X1678Y21286D01*
X1655Y21263D01*
X1586Y21240D01*
X1381D01*
X1808Y21446D02*
X2219D01*
X3501Y21720D02*
Y21240D01*
Y21720D02*
X3706D01*
X3775Y21697D01*
X3798Y21674D01*
X3821Y21629D01*
Y21583D01*
X3798Y21537D01*
X3775Y21514D01*
X3706Y21491D01*
X3501D02*
X3706D01*
X3775Y21469D01*
X3798Y21446D01*
X3821Y21400D01*
Y21331D01*
X3798Y21286D01*
X3775Y21263D01*
X3706Y21240D01*
X3501D01*
X4134Y21651D02*
Y21240D01*
X3928Y21446D02*
X4339D01*
X20764Y9490D02*
Y9147D01*
X20787Y9079D01*
X20832Y9033D01*
X20901Y9010D01*
X20947D01*
X21015Y9033D01*
X21061Y9079D01*
X21084Y9147D01*
Y9490D01*
X21536D02*
X21308Y9010D01*
X21216Y9490D02*
X21536D01*
X27875Y18490D02*
Y18147D01*
X27898Y18079D01*
X27944Y18033D01*
X28012Y18010D01*
X28058D01*
X28127Y18033D01*
X28172Y18079D01*
X28195Y18147D01*
Y18490D01*
X28602Y18421D02*
X28579Y18467D01*
X28511Y18490D01*
X28465D01*
X28396Y18467D01*
X28351Y18399D01*
X28328Y18284D01*
Y18170D01*
X28351Y18079D01*
X28396Y18033D01*
X28465Y18010D01*
X28488D01*
X28556Y18033D01*
X28602Y18079D01*
X28625Y18147D01*
Y18170D01*
X28602Y18239D01*
X28556Y18284D01*
X28488Y18307D01*
X28465D01*
X28396Y18284D01*
X28351Y18239D01*
X28328Y18170D01*
X2604Y18985D02*
Y18642D01*
X2627Y18574D01*
X2672Y18528D01*
X2741Y18505D01*
X2787D01*
X2855Y18528D01*
X2901Y18574D01*
X2924Y18642D01*
Y18985D01*
X3079Y18871D02*
Y18894D01*
X3102Y18939D01*
X3125Y18962D01*
X3171Y18985D01*
X3262D01*
X3308Y18962D01*
X3331Y18939D01*
X3353Y18894D01*
Y18848D01*
X3331Y18802D01*
X3285Y18734D01*
X3056Y18505D01*
X3376D01*
X11620Y18671D02*
X11574Y18717D01*
X11506Y18740D01*
X11414D01*
X11346Y18717D01*
X11300Y18671D01*
Y18626D01*
X11323Y18580D01*
X11346Y18557D01*
X11391Y18534D01*
X11528Y18489D01*
X11574Y18466D01*
X11597Y18443D01*
X11620Y18397D01*
Y18329D01*
X11574Y18283D01*
X11506Y18260D01*
X11414D01*
X11346Y18283D01*
X11300Y18329D01*
X11727Y18740D02*
X11841Y18260D01*
X11956Y18740D02*
X11841Y18260D01*
X11956Y18740D02*
X12070Y18260D01*
X12184Y18740D02*
X12070Y18260D01*
X12554Y18740D02*
X12326D01*
X12303Y18534D01*
X12326Y18557D01*
X12394Y18580D01*
X12463D01*
X12532Y18557D01*
X12577Y18511D01*
X12600Y18443D01*
Y18397D01*
X12577Y18329D01*
X12532Y18283D01*
X12463Y18260D01*
X12394D01*
X12326Y18283D01*
X12303Y18306D01*
X12280Y18351D01*
X24358Y19171D02*
X24313Y19217D01*
X24244Y19240D01*
X24153D01*
X24084Y19217D01*
X24038Y19171D01*
Y19126D01*
X24061Y19080D01*
X24084Y19057D01*
X24130Y19034D01*
X24267Y18989D01*
X24313Y18966D01*
X24336Y18943D01*
X24358Y18897D01*
Y18829D01*
X24313Y18783D01*
X24244Y18760D01*
X24153D01*
X24084Y18783D01*
X24038Y18829D01*
X24466Y19240D02*
X24580Y18760D01*
X24694Y19240D02*
X24580Y18760D01*
X24694Y19240D02*
X24809Y18760D01*
X24923Y19240D02*
X24809Y18760D01*
X25247Y19240D02*
X25019Y18920D01*
X25362D01*
X25247Y19240D02*
Y18760D01*
X1779Y6773D02*
X1733Y6727D01*
X1710Y6658D01*
Y6567D01*
X1733Y6498D01*
X1779Y6453D01*
X1824D01*
X1870Y6476D01*
X1893Y6498D01*
X1916Y6544D01*
X1961Y6681D01*
X1984Y6727D01*
X2007Y6750D01*
X2053Y6773D01*
X2121D01*
X2167Y6727D01*
X2190Y6658D01*
Y6567D01*
X2167Y6498D01*
X2121Y6453D01*
X1710Y6880D02*
X2190Y6994D01*
X1710Y7109D02*
X2190Y6994D01*
X1710Y7109D02*
X2190Y7223D01*
X1710Y7337D02*
X2190Y7223D01*
X1801Y7433D02*
X1779Y7479D01*
X1710Y7547D01*
X2190D01*
X21900Y19240D02*
Y18760D01*
Y19240D02*
X22106D01*
X22175Y19217D01*
X22197Y19194D01*
X22220Y19149D01*
Y19103D01*
X22197Y19057D01*
X22175Y19034D01*
X22106Y19011D01*
X21900D01*
X22060D02*
X22220Y18760D01*
X22328Y19149D02*
X22373Y19171D01*
X22442Y19240D01*
Y18760D01*
X22817Y19240D02*
X22748Y19217D01*
X22703Y19149D01*
X22680Y19034D01*
Y18966D01*
X22703Y18851D01*
X22748Y18783D01*
X22817Y18760D01*
X22862D01*
X22931Y18783D01*
X22977Y18851D01*
X23000Y18966D01*
Y19034D01*
X22977Y19149D01*
X22931Y19217D01*
X22862Y19240D01*
X22817D01*
X22088Y11640D02*
Y11160D01*
Y11640D02*
X22293D01*
X22362Y11617D01*
X22385Y11594D01*
X22408Y11549D01*
Y11503D01*
X22385Y11457D01*
X22362Y11434D01*
X22293Y11411D01*
X22088D01*
X22248D02*
X22408Y11160D01*
X22812Y11480D02*
X22789Y11411D01*
X22744Y11366D01*
X22675Y11343D01*
X22652D01*
X22584Y11366D01*
X22538Y11411D01*
X22515Y11480D01*
Y11503D01*
X22538Y11571D01*
X22584Y11617D01*
X22652Y11640D01*
X22675D01*
X22744Y11617D01*
X22789Y11571D01*
X22812Y11480D01*
Y11366D01*
X22789Y11251D01*
X22744Y11183D01*
X22675Y11160D01*
X22629D01*
X22561Y11183D01*
X22538Y11229D01*
X24176Y11640D02*
Y11160D01*
Y11640D02*
X24382D01*
X24451Y11617D01*
X24473Y11594D01*
X24496Y11549D01*
Y11503D01*
X24473Y11457D01*
X24451Y11434D01*
X24382Y11411D01*
X24176D01*
X24336D02*
X24496Y11160D01*
X24924Y11640D02*
X24695Y11160D01*
X24604Y11640D02*
X24924D01*
X2860Y6979D02*
X3340D01*
X2860D02*
Y7185D01*
X2883Y7253D01*
X2906Y7276D01*
X2951Y7299D01*
X2997D01*
X3043Y7276D01*
X3066Y7253D01*
X3089Y7185D01*
Y6979D01*
Y7139D02*
X3340Y7299D01*
X2951Y7407D02*
X2929Y7452D01*
X2860Y7521D01*
X3340D01*
X4954Y18140D02*
Y17660D01*
X5229D01*
X5281Y18049D02*
X5327Y18071D01*
X5396Y18140D01*
Y17660D01*
X6867Y22040D02*
Y21560D01*
Y22040D02*
X7164D01*
X6867Y21811D02*
X7050D01*
X7219Y21949D02*
X7265Y21971D01*
X7333Y22040D01*
Y21560D01*
X24126Y10140D02*
Y9660D01*
Y10140D02*
X24286D01*
X24355Y10117D01*
X24401Y10071D01*
X24423Y10026D01*
X24446Y9957D01*
Y9843D01*
X24423Y9774D01*
X24401Y9729D01*
X24355Y9683D01*
X24286Y9660D01*
X24126D01*
X24599Y10140D02*
X24851D01*
X24714Y9957D01*
X24782D01*
X24828Y9934D01*
X24851Y9911D01*
X24874Y9843D01*
Y9797D01*
X24851Y9729D01*
X24805Y9683D01*
X24737Y9660D01*
X24668D01*
X24599Y9683D01*
X24577Y9706D01*
X24554Y9751D01*
X26444Y17226D02*
X26421Y17271D01*
X26375Y17317D01*
X26330Y17340D01*
X26238D01*
X26193Y17317D01*
X26147Y17271D01*
X26124Y17226D01*
X26101Y17157D01*
Y17043D01*
X26124Y16974D01*
X26147Y16929D01*
X26193Y16883D01*
X26238Y16860D01*
X26330D01*
X26375Y16883D01*
X26421Y16929D01*
X26444Y16974D01*
X26899Y17340D02*
X26670Y16860D01*
X26579Y17340D02*
X26899D01*
X26455Y19426D02*
X26433Y19471D01*
X26387Y19517D01*
X26341Y19540D01*
X26250D01*
X26204Y19517D01*
X26158Y19471D01*
X26136Y19426D01*
X26113Y19357D01*
Y19243D01*
X26136Y19174D01*
X26158Y19129D01*
X26204Y19083D01*
X26250Y19060D01*
X26341D01*
X26387Y19083D01*
X26433Y19129D01*
X26455Y19174D01*
X26864Y19471D02*
X26842Y19517D01*
X26773Y19540D01*
X26727D01*
X26659Y19517D01*
X26613Y19449D01*
X26590Y19334D01*
Y19220D01*
X26613Y19129D01*
X26659Y19083D01*
X26727Y19060D01*
X26750D01*
X26819Y19083D01*
X26864Y19129D01*
X26887Y19197D01*
Y19220D01*
X26864Y19289D01*
X26819Y19334D01*
X26750Y19357D01*
X26727D01*
X26659Y19334D01*
X26613Y19289D01*
X26590Y19220D01*
X3174Y12744D02*
X3129Y12721D01*
X3083Y12675D01*
X3060Y12630D01*
Y12538D01*
X3083Y12493D01*
X3129Y12447D01*
X3174Y12424D01*
X3243Y12401D01*
X3357D01*
X3426Y12424D01*
X3471Y12447D01*
X3517Y12493D01*
X3540Y12538D01*
Y12630D01*
X3517Y12675D01*
X3471Y12721D01*
X3426Y12744D01*
X3060Y13153D02*
Y12925D01*
X3266Y12902D01*
X3243Y12925D01*
X3220Y12993D01*
Y13062D01*
X3243Y13130D01*
X3289Y13176D01*
X3357Y13199D01*
X3403D01*
X3471Y13176D01*
X3517Y13130D01*
X3540Y13062D01*
Y12993D01*
X3517Y12925D01*
X3494Y12902D01*
X3449Y12879D01*
D11*
X8037Y17462D02*
X11163D01*
X8035Y15138D02*
X11161D01*
X5191Y14416D02*
X5391D01*
X5630Y14365D02*
X6889D01*
Y12435D02*
Y14365D01*
X5630Y12435D02*
X6889D01*
X5630D02*
Y14365D01*
X1013Y11480D02*
X1187D01*
X1100Y11393D02*
Y11567D01*
Y11706D02*
Y14580D01*
X2796Y11713D02*
Y14587D01*
X11113Y14820D02*
X11287D01*
X11200Y14733D02*
Y14907D01*
Y11720D02*
Y14594D01*
X9504Y11713D02*
Y14587D01*
D12*
X12730Y8460D02*
Y8680D01*
X13230Y8830D02*
Y9140D01*
Y8000D02*
Y8310D01*
X12800Y9140D02*
X13230D01*
X12800Y8000D02*
X13230D01*
X12730Y4320D02*
Y4540D01*
X13230Y4690D02*
Y5000D01*
Y3860D02*
Y4170D01*
X12800Y5000D02*
X13230D01*
X12800Y3860D02*
X13230D01*
X22170Y9140D02*
Y9360D01*
X22670Y9510D02*
Y9820D01*
Y8680D02*
Y8990D01*
X22240Y9820D02*
X22670D01*
X22240Y8680D02*
X22670D01*
X4040Y18155D02*
X4470D01*
X4040Y19295D02*
X4470D01*
Y18155D02*
Y18465D01*
Y18985D02*
Y19295D01*
X3970Y18615D02*
Y18835D01*
M02*
