G04*
G04 #@! TF.GenerationSoftware,Altium Limited,Altium Designer,23.1.1 (15)*
G04*
G04 Layer_Physical_Order=2*
G04 Layer_Color=16711680*
%FSLAX24Y24*%
%MOIN*%
G70*
G04*
G04 #@! TF.SameCoordinates,385EC99C-E85F-452A-9B23-167F912ADACD*
G04*
G04*
G04 #@! TF.FilePolarity,Positive*
G04*
G01*
G75*
%ADD39C,0.0100*%
%ADD40C,0.0500*%
%ADD46C,0.0620*%
%ADD47C,0.0600*%
%ADD48C,0.0300*%
%ADD49C,0.1000*%
%ADD50C,0.0320*%
%ADD51C,0.0500*%
G36*
X34467Y22341D02*
X34647Y22287D01*
X34813Y22198D01*
X34959Y22079D01*
X35078Y21933D01*
X35167Y21767D01*
X35204Y21645D01*
X35159Y21621D01*
X35071Y21728D01*
X34956Y21822D01*
X34825Y21892D01*
X34683Y21935D01*
X34535Y21950D01*
X34387Y21935D01*
X34244Y21892D01*
X34113Y21822D01*
X33998Y21728D01*
X33904Y21613D01*
X33834Y21482D01*
X33791Y21339D01*
X33776Y21191D01*
X33791Y21043D01*
X33834Y20901D01*
X33904Y20770D01*
X33998Y20655D01*
X34113Y20561D01*
X34244Y20490D01*
X34387Y20447D01*
X34535Y20433D01*
X34683Y20447D01*
X34825Y20490D01*
X34956Y20561D01*
X35071Y20655D01*
X35165Y20770D01*
X35186Y20808D01*
X35236Y20796D01*
Y19751D01*
X35195Y19723D01*
X35146Y19743D01*
X35035Y19758D01*
X34924Y19743D01*
X34820Y19700D01*
X34732Y19632D01*
X34663Y19543D01*
X34621Y19440D01*
X34606Y19329D01*
X34621Y19218D01*
X34663Y19115D01*
X34732Y19026D01*
X34820Y18958D01*
X34924Y18915D01*
X35035Y18900D01*
X35146Y18915D01*
X35195Y18935D01*
X35236Y18908D01*
Y18751D01*
X35195Y18723D01*
X35146Y18743D01*
X35035Y18758D01*
X34924Y18743D01*
X34820Y18700D01*
X34732Y18632D01*
X34663Y18543D01*
X34621Y18440D01*
X34606Y18329D01*
X34621Y18218D01*
X34663Y18115D01*
X34732Y18026D01*
X34820Y17958D01*
X34924Y17915D01*
X35035Y17900D01*
X35146Y17915D01*
X35195Y17935D01*
X35236Y17908D01*
Y2295D01*
X35186Y2283D01*
X35165Y2321D01*
X35071Y2436D01*
X34956Y2531D01*
X34825Y2601D01*
X34683Y2644D01*
X34535Y2659D01*
X34387Y2644D01*
X34244Y2601D01*
X34113Y2531D01*
X33998Y2436D01*
X33904Y2321D01*
X33834Y2190D01*
X33791Y2048D01*
X33776Y1900D01*
X33791Y1752D01*
X33834Y1610D01*
X33904Y1479D01*
X33998Y1364D01*
X34113Y1269D01*
X34244Y1199D01*
X34387Y1156D01*
X34535Y1141D01*
X34683Y1156D01*
X34825Y1199D01*
X34956Y1269D01*
X35071Y1364D01*
X35165Y1479D01*
X35210Y1456D01*
X35167Y1313D01*
X35078Y1147D01*
X34959Y1001D01*
X34813Y882D01*
X34647Y793D01*
X34467Y739D01*
X34292Y722D01*
X34280Y724D01*
X1640D01*
X1628Y722D01*
X1453Y739D01*
X1273Y793D01*
X1107Y882D01*
X961Y1001D01*
X842Y1147D01*
X753Y1313D01*
X699Y1493D01*
X682Y1668D01*
X684Y1680D01*
Y21400D01*
X682Y21412D01*
X699Y21587D01*
X753Y21767D01*
X842Y21933D01*
X961Y22079D01*
X1107Y22198D01*
X1273Y22287D01*
X1453Y22341D01*
X1628Y22358D01*
X1640Y22356D01*
X34280D01*
X34292Y22358D01*
X34467Y22341D01*
D02*
G37*
%LPC*%
G36*
X32671Y22101D02*
X32563D01*
X32459Y22073D01*
X32366Y22019D01*
X32289Y21943D01*
X32235Y21850D01*
X32207Y21745D01*
Y21637D01*
X32235Y21533D01*
X32289Y21440D01*
X32366Y21363D01*
X32459Y21309D01*
X32563Y21281D01*
X32671D01*
X32776Y21309D01*
X32869Y21363D01*
X32945Y21440D01*
X32999Y21533D01*
X33027Y21637D01*
Y21745D01*
X32999Y21850D01*
X32945Y21943D01*
X32869Y22019D01*
X32776Y22073D01*
X32671Y22101D01*
D02*
G37*
G36*
X31671D02*
X31563D01*
X31459Y22073D01*
X31366Y22019D01*
X31289Y21943D01*
X31235Y21850D01*
X31207Y21745D01*
Y21637D01*
X31235Y21533D01*
X31289Y21440D01*
X31366Y21363D01*
X31459Y21309D01*
X31563Y21281D01*
X31671D01*
X31776Y21309D01*
X31869Y21363D01*
X31945Y21440D01*
X31999Y21533D01*
X32027Y21637D01*
Y21745D01*
X31999Y21850D01*
X31945Y21943D01*
X31869Y22019D01*
X31776Y22073D01*
X31671Y22101D01*
D02*
G37*
G36*
X30671D02*
X30563D01*
X30459Y22073D01*
X30366Y22019D01*
X30289Y21943D01*
X30235Y21850D01*
X30207Y21745D01*
Y21637D01*
X30235Y21533D01*
X30289Y21440D01*
X30366Y21363D01*
X30459Y21309D01*
X30563Y21281D01*
X30671D01*
X30776Y21309D01*
X30869Y21363D01*
X30945Y21440D01*
X30999Y21533D01*
X31027Y21637D01*
Y21745D01*
X30999Y21850D01*
X30945Y21943D01*
X30869Y22019D01*
X30776Y22073D01*
X30671Y22101D01*
D02*
G37*
G36*
X28671D02*
X28563D01*
X28459Y22073D01*
X28366Y22019D01*
X28289Y21943D01*
X28235Y21850D01*
X28207Y21745D01*
Y21637D01*
X28235Y21533D01*
X28289Y21440D01*
X28366Y21363D01*
X28459Y21309D01*
X28563Y21281D01*
X28671D01*
X28776Y21309D01*
X28869Y21363D01*
X28945Y21440D01*
X28999Y21533D01*
X29027Y21637D01*
Y21745D01*
X28999Y21850D01*
X28945Y21943D01*
X28869Y22019D01*
X28776Y22073D01*
X28671Y22101D01*
D02*
G37*
G36*
X26671D02*
X26563D01*
X26459Y22073D01*
X26366Y22019D01*
X26289Y21943D01*
X26235Y21850D01*
X26207Y21745D01*
Y21637D01*
X26235Y21533D01*
X26289Y21440D01*
X26366Y21363D01*
X26459Y21309D01*
X26563Y21281D01*
X26671D01*
X26776Y21309D01*
X26869Y21363D01*
X26945Y21440D01*
X26999Y21533D01*
X27027Y21637D01*
Y21745D01*
X26999Y21850D01*
X26945Y21943D01*
X26869Y22019D01*
X26776Y22073D01*
X26671Y22101D01*
D02*
G37*
G36*
X25671D02*
X25563D01*
X25459Y22073D01*
X25366Y22019D01*
X25289Y21943D01*
X25235Y21850D01*
X25207Y21745D01*
Y21637D01*
X25235Y21533D01*
X25289Y21440D01*
X25366Y21363D01*
X25459Y21309D01*
X25563Y21281D01*
X25671D01*
X25776Y21309D01*
X25869Y21363D01*
X25945Y21440D01*
X25999Y21533D01*
X26027Y21637D01*
Y21745D01*
X25999Y21850D01*
X25945Y21943D01*
X25869Y22019D01*
X25776Y22073D01*
X25671Y22101D01*
D02*
G37*
G36*
X24671D02*
X24563D01*
X24459Y22073D01*
X24366Y22019D01*
X24289Y21943D01*
X24235Y21850D01*
X24207Y21745D01*
Y21637D01*
X24235Y21533D01*
X24289Y21440D01*
X24366Y21363D01*
X24459Y21309D01*
X24563Y21281D01*
X24671D01*
X24776Y21309D01*
X24869Y21363D01*
X24945Y21440D01*
X24999Y21533D01*
X25027Y21637D01*
Y21745D01*
X24999Y21850D01*
X24945Y21943D01*
X24869Y22019D01*
X24776Y22073D01*
X24671Y22101D01*
D02*
G37*
G36*
X23671D02*
X23563D01*
X23459Y22073D01*
X23366Y22019D01*
X23289Y21943D01*
X23235Y21850D01*
X23207Y21745D01*
Y21637D01*
X23235Y21533D01*
X23289Y21440D01*
X23366Y21363D01*
X23459Y21309D01*
X23563Y21281D01*
X23671D01*
X23776Y21309D01*
X23869Y21363D01*
X23945Y21440D01*
X23999Y21533D01*
X24027Y21637D01*
Y21745D01*
X23999Y21850D01*
X23945Y21943D01*
X23869Y22019D01*
X23776Y22073D01*
X23671Y22101D01*
D02*
G37*
G36*
X21671D02*
X21563D01*
X21459Y22073D01*
X21366Y22019D01*
X21289Y21943D01*
X21235Y21850D01*
X21207Y21745D01*
Y21637D01*
X21235Y21533D01*
X21289Y21440D01*
X21366Y21363D01*
X21459Y21309D01*
X21563Y21281D01*
X21671D01*
X21776Y21309D01*
X21869Y21363D01*
X21945Y21440D01*
X21999Y21533D01*
X22027Y21637D01*
Y21745D01*
X21999Y21850D01*
X21945Y21943D01*
X21869Y22019D01*
X21776Y22073D01*
X21671Y22101D01*
D02*
G37*
G36*
X20671D02*
X20563D01*
X20459Y22073D01*
X20366Y22019D01*
X20289Y21943D01*
X20235Y21850D01*
X20207Y21745D01*
Y21637D01*
X20235Y21533D01*
X20289Y21440D01*
X20366Y21363D01*
X20459Y21309D01*
X20563Y21281D01*
X20671D01*
X20776Y21309D01*
X20869Y21363D01*
X20945Y21440D01*
X20999Y21533D01*
X21027Y21637D01*
Y21745D01*
X20999Y21850D01*
X20945Y21943D01*
X20869Y22019D01*
X20776Y22073D01*
X20671Y22101D01*
D02*
G37*
G36*
X18671D02*
X18563D01*
X18459Y22073D01*
X18366Y22019D01*
X18289Y21943D01*
X18235Y21850D01*
X18207Y21745D01*
Y21637D01*
X18235Y21533D01*
X18289Y21440D01*
X18366Y21363D01*
X18459Y21309D01*
X18563Y21281D01*
X18671D01*
X18776Y21309D01*
X18869Y21363D01*
X18945Y21440D01*
X18999Y21533D01*
X19027Y21637D01*
Y21745D01*
X18999Y21850D01*
X18945Y21943D01*
X18869Y22019D01*
X18776Y22073D01*
X18671Y22101D01*
D02*
G37*
G36*
X17671D02*
X17563D01*
X17459Y22073D01*
X17366Y22019D01*
X17289Y21943D01*
X17235Y21850D01*
X17207Y21745D01*
Y21637D01*
X17235Y21533D01*
X17289Y21440D01*
X17366Y21363D01*
X17459Y21309D01*
X17563Y21281D01*
X17671D01*
X17776Y21309D01*
X17869Y21363D01*
X17945Y21440D01*
X17999Y21533D01*
X18027Y21637D01*
Y21745D01*
X17999Y21850D01*
X17945Y21943D01*
X17869Y22019D01*
X17776Y22073D01*
X17671Y22101D01*
D02*
G37*
G36*
X14671D02*
X14563D01*
X14459Y22073D01*
X14366Y22019D01*
X14289Y21943D01*
X14235Y21850D01*
X14207Y21745D01*
Y21637D01*
X14235Y21533D01*
X14289Y21440D01*
X14366Y21363D01*
X14459Y21309D01*
X14563Y21281D01*
X14671D01*
X14776Y21309D01*
X14869Y21363D01*
X14945Y21440D01*
X14999Y21533D01*
X15027Y21637D01*
Y21745D01*
X14999Y21850D01*
X14945Y21943D01*
X14869Y22019D01*
X14776Y22073D01*
X14671Y22101D01*
D02*
G37*
G36*
X13671D02*
X13563D01*
X13459Y22073D01*
X13366Y22019D01*
X13289Y21943D01*
X13235Y21850D01*
X13219Y21788D01*
X12497Y21066D01*
X12449Y21089D01*
X12459Y21191D01*
X12444Y21339D01*
X12401Y21482D01*
X12331Y21613D01*
X12236Y21728D01*
X12121Y21822D01*
X11990Y21892D01*
X11848Y21935D01*
X11700Y21950D01*
X11552Y21935D01*
X11410Y21892D01*
X11279Y21822D01*
X11164Y21728D01*
X11069Y21613D01*
X10999Y21482D01*
X10956Y21339D01*
X10941Y21191D01*
X10956Y21043D01*
X10999Y20901D01*
X11069Y20770D01*
X11164Y20655D01*
X11279Y20561D01*
X11386Y20503D01*
X11374Y20453D01*
X11050D01*
X10959Y20441D01*
X10873Y20406D01*
X10800Y20350D01*
X10300Y19850D01*
X10244Y19777D01*
X10209Y19691D01*
X10197Y19600D01*
Y16867D01*
X10209Y16776D01*
X10244Y16690D01*
X10300Y16617D01*
X11097Y15821D01*
Y13270D01*
Y12600D01*
Y7550D01*
X11109Y7459D01*
X11144Y7373D01*
X11200Y7300D01*
X11590Y6910D01*
X11663Y6854D01*
X11749Y6819D01*
X11840Y6807D01*
X14680D01*
X14703Y6810D01*
X14726D01*
X14748Y6816D01*
X14771Y6819D01*
X14793Y6828D01*
X14815Y6834D01*
X14835Y6845D01*
X14857Y6854D01*
X14875Y6868D01*
X14895Y6880D01*
X14911Y6896D01*
X14930Y6910D01*
X14944Y6929D01*
X14960Y6945D01*
X14972Y6965D01*
X14986Y6983D01*
X14995Y7005D01*
X15006Y7025D01*
X15012Y7047D01*
X15021Y7069D01*
X15024Y7092D01*
X15030Y7114D01*
Y7137D01*
X15033Y7160D01*
X15030Y7183D01*
Y7206D01*
X15024Y7228D01*
X15021Y7251D01*
X15012Y7273D01*
X15006Y7295D01*
X14995Y7315D01*
X14986Y7337D01*
X14972Y7355D01*
X14960Y7375D01*
X14944Y7391D01*
X14930Y7410D01*
X14911Y7424D01*
X14895Y7440D01*
X14875Y7452D01*
X14857Y7466D01*
X14835Y7475D01*
X14815Y7486D01*
X14793Y7492D01*
X14771Y7501D01*
X14748Y7504D01*
X14726Y7510D01*
X14703D01*
X14680Y7513D01*
X11986D01*
X11803Y7696D01*
Y12247D01*
X11974D01*
X12751Y11470D01*
X12824Y11414D01*
X12909Y11379D01*
X13000Y11367D01*
X24000D01*
X24091Y11379D01*
X24177Y11414D01*
X24250Y11470D01*
X24290Y11510D01*
X27010Y14230D01*
X27066Y14303D01*
X27101Y14389D01*
X27113Y14480D01*
Y18640D01*
X27110Y18663D01*
Y18686D01*
X27104Y18708D01*
X27101Y18731D01*
X27092Y18753D01*
X27086Y18775D01*
X27075Y18795D01*
X27066Y18817D01*
X27052Y18835D01*
X27040Y18855D01*
X27024Y18871D01*
X27010Y18890D01*
X26991Y18904D01*
X26975Y18920D01*
X26955Y18932D01*
X26937Y18946D01*
X26915Y18955D01*
X26895Y18966D01*
X26873Y18972D01*
X26851Y18981D01*
X26828Y18984D01*
X26806Y18990D01*
X26783D01*
X26760Y18993D01*
X26737Y18990D01*
X26714D01*
X26692Y18984D01*
X26669Y18981D01*
X26647Y18972D01*
X26625Y18966D01*
X26605Y18955D01*
X26583Y18946D01*
X26565Y18932D01*
X26545Y18920D01*
X26529Y18904D01*
X26510Y18890D01*
X26496Y18871D01*
X26480Y18855D01*
X26468Y18835D01*
X26454Y18817D01*
X26445Y18795D01*
X26434Y18775D01*
X26428Y18753D01*
X26419Y18731D01*
X26416Y18708D01*
X26410Y18686D01*
Y18663D01*
X26407Y18640D01*
Y14626D01*
X23854Y12073D01*
X13147D01*
X12370Y12850D01*
X11803Y13417D01*
Y15967D01*
X11791Y16058D01*
X11756Y16143D01*
X11700Y16217D01*
X10903Y17013D01*
Y19454D01*
X11196Y19747D01*
X12030D01*
X12121Y19759D01*
X12206Y19794D01*
X12280Y19850D01*
X13157Y20728D01*
X13207Y20707D01*
Y20637D01*
X13235Y20533D01*
X13289Y20440D01*
X13366Y20363D01*
X13459Y20309D01*
X13563Y20281D01*
X13671D01*
X13776Y20309D01*
X13869Y20363D01*
X13945Y20440D01*
X13999Y20533D01*
X14027Y20637D01*
Y20745D01*
X13999Y20850D01*
X13945Y20943D01*
X13869Y21019D01*
X13776Y21073D01*
X13671Y21101D01*
X13601D01*
X13581Y21151D01*
X13725Y21296D01*
X13776Y21309D01*
X13869Y21363D01*
X13945Y21440D01*
X13999Y21533D01*
X14027Y21637D01*
Y21745D01*
X13999Y21850D01*
X13945Y21943D01*
X13869Y22019D01*
X13776Y22073D01*
X13671Y22101D01*
D02*
G37*
G36*
X16671D02*
X16563D01*
X16459Y22073D01*
X16366Y22019D01*
X16289Y21943D01*
X16235Y21850D01*
X16207Y21745D01*
Y21637D01*
X16235Y21533D01*
X16289Y21440D01*
X16366Y21363D01*
X16459Y21309D01*
X16563Y21281D01*
X16671D01*
X16776Y21309D01*
X16780Y21312D01*
X16947Y21145D01*
Y21012D01*
X16897Y20991D01*
X16869Y21019D01*
X16776Y21073D01*
X16671Y21101D01*
X16563D01*
X16459Y21073D01*
X16366Y21019D01*
X16289Y20943D01*
X16235Y20850D01*
X16207Y20745D01*
Y20637D01*
X16235Y20533D01*
X16238Y20528D01*
X14932Y19222D01*
X14899Y19173D01*
X14887Y19114D01*
Y17716D01*
X14825Y17680D01*
X14760Y17615D01*
X14714Y17535D01*
X14690Y17446D01*
Y17354D01*
X14714Y17265D01*
X14760Y17185D01*
X14825Y17120D01*
X14905Y17074D01*
X14994Y17050D01*
X15086D01*
X15175Y17074D01*
X15255Y17120D01*
X15320Y17185D01*
X15366Y17265D01*
X15390Y17354D01*
Y17446D01*
X15366Y17535D01*
X15320Y17615D01*
X15255Y17680D01*
X15193Y17716D01*
Y19051D01*
X16454Y20312D01*
X16459Y20309D01*
X16563Y20281D01*
X16671D01*
X16776Y20309D01*
X16869Y20363D01*
X16897Y20391D01*
X16947Y20371D01*
Y19513D01*
X16492Y19058D01*
X16459Y19009D01*
X16447Y18950D01*
Y17996D01*
X16385Y17960D01*
X16320Y17895D01*
X16274Y17815D01*
X16250Y17726D01*
Y17634D01*
X16274Y17545D01*
X16320Y17465D01*
X16385Y17400D01*
X16465Y17354D01*
X16554Y17330D01*
X16646D01*
X16735Y17354D01*
X16815Y17400D01*
X16880Y17465D01*
X16926Y17545D01*
X16950Y17634D01*
Y17726D01*
X16926Y17815D01*
X16880Y17895D01*
X16815Y17960D01*
X16753Y17996D01*
Y18887D01*
X17208Y19342D01*
X17241Y19391D01*
X17253Y19450D01*
Y21209D01*
X17241Y21267D01*
X17208Y21317D01*
X16997Y21528D01*
X16999Y21533D01*
X17027Y21637D01*
Y21745D01*
X16999Y21850D01*
X16945Y21943D01*
X16869Y22019D01*
X16776Y22073D01*
X16671Y22101D01*
D02*
G37*
G36*
X31671Y21101D02*
X31563D01*
X31459Y21073D01*
X31366Y21019D01*
X31289Y20943D01*
X31235Y20850D01*
X31207Y20745D01*
Y20637D01*
X31235Y20533D01*
X31289Y20440D01*
X31366Y20363D01*
X31459Y20309D01*
X31563Y20281D01*
X31671D01*
X31776Y20309D01*
X31869Y20363D01*
X31945Y20440D01*
X31999Y20533D01*
X32027Y20637D01*
Y20745D01*
X31999Y20850D01*
X31945Y20943D01*
X31869Y21019D01*
X31776Y21073D01*
X31671Y21101D01*
D02*
G37*
G36*
X30671D02*
X30563D01*
X30459Y21073D01*
X30366Y21019D01*
X30289Y20943D01*
X30235Y20850D01*
X30207Y20745D01*
Y20637D01*
X30235Y20533D01*
X30289Y20440D01*
X30366Y20363D01*
X30459Y20309D01*
X30563Y20281D01*
X30671D01*
X30776Y20309D01*
X30869Y20363D01*
X30945Y20440D01*
X30999Y20533D01*
X31027Y20637D01*
Y20745D01*
X30999Y20850D01*
X30945Y20943D01*
X30869Y21019D01*
X30776Y21073D01*
X30671Y21101D01*
D02*
G37*
G36*
X29671D02*
X29563D01*
X29459Y21073D01*
X29366Y21019D01*
X29289Y20943D01*
X29235Y20850D01*
X29207Y20745D01*
Y20637D01*
X29235Y20533D01*
X29289Y20440D01*
X29366Y20363D01*
X29459Y20309D01*
X29563Y20281D01*
X29671D01*
X29776Y20309D01*
X29869Y20363D01*
X29945Y20440D01*
X29999Y20533D01*
X30027Y20637D01*
Y20745D01*
X29999Y20850D01*
X29945Y20943D01*
X29869Y21019D01*
X29776Y21073D01*
X29671Y21101D01*
D02*
G37*
G36*
X28671D02*
X28563D01*
X28459Y21073D01*
X28366Y21019D01*
X28289Y20943D01*
X28235Y20850D01*
X28207Y20745D01*
Y20637D01*
X28235Y20533D01*
X28289Y20440D01*
X28366Y20363D01*
X28459Y20309D01*
X28563Y20281D01*
X28671D01*
X28776Y20309D01*
X28869Y20363D01*
X28945Y20440D01*
X28999Y20533D01*
X29027Y20637D01*
Y20745D01*
X28999Y20850D01*
X28945Y20943D01*
X28869Y21019D01*
X28776Y21073D01*
X28671Y21101D01*
D02*
G37*
G36*
X27671D02*
X27563D01*
X27459Y21073D01*
X27366Y21019D01*
X27289Y20943D01*
X27235Y20850D01*
X27207Y20745D01*
Y20637D01*
X27235Y20533D01*
X27289Y20440D01*
X27366Y20363D01*
X27459Y20309D01*
X27563Y20281D01*
X27671D01*
X27776Y20309D01*
X27869Y20363D01*
X27945Y20440D01*
X27999Y20533D01*
X28027Y20637D01*
Y20745D01*
X27999Y20850D01*
X27945Y20943D01*
X27869Y21019D01*
X27776Y21073D01*
X27671Y21101D01*
D02*
G37*
G36*
X26671D02*
X26563D01*
X26459Y21073D01*
X26366Y21019D01*
X26289Y20943D01*
X26235Y20850D01*
X26207Y20745D01*
Y20637D01*
X26235Y20533D01*
X26289Y20440D01*
X26366Y20363D01*
X26459Y20309D01*
X26563Y20281D01*
X26671D01*
X26776Y20309D01*
X26869Y20363D01*
X26945Y20440D01*
X26999Y20533D01*
X27027Y20637D01*
Y20745D01*
X26999Y20850D01*
X26945Y20943D01*
X26869Y21019D01*
X26776Y21073D01*
X26671Y21101D01*
D02*
G37*
G36*
X24671D02*
X24563D01*
X24459Y21073D01*
X24366Y21019D01*
X24289Y20943D01*
X24235Y20850D01*
X24207Y20745D01*
Y20637D01*
X24235Y20533D01*
X24289Y20440D01*
X24366Y20363D01*
X24459Y20309D01*
X24563Y20281D01*
X24671D01*
X24776Y20309D01*
X24869Y20363D01*
X24945Y20440D01*
X24999Y20533D01*
X25027Y20637D01*
Y20745D01*
X24999Y20850D01*
X24945Y20943D01*
X24869Y21019D01*
X24776Y21073D01*
X24671Y21101D01*
D02*
G37*
G36*
X23671D02*
X23563D01*
X23459Y21073D01*
X23366Y21019D01*
X23289Y20943D01*
X23235Y20850D01*
X23207Y20745D01*
Y20637D01*
X23235Y20533D01*
X23289Y20440D01*
X23366Y20363D01*
X23459Y20309D01*
X23563Y20281D01*
X23671D01*
X23776Y20309D01*
X23869Y20363D01*
X23945Y20440D01*
X23999Y20533D01*
X24027Y20637D01*
Y20745D01*
X23999Y20850D01*
X23945Y20943D01*
X23869Y21019D01*
X23776Y21073D01*
X23671Y21101D01*
D02*
G37*
G36*
X22671D02*
X22563D01*
X22459Y21073D01*
X22366Y21019D01*
X22289Y20943D01*
X22235Y20850D01*
X22207Y20745D01*
Y20637D01*
X22235Y20533D01*
X22289Y20440D01*
X22366Y20363D01*
X22459Y20309D01*
X22563Y20281D01*
X22671D01*
X22776Y20309D01*
X22869Y20363D01*
X22945Y20440D01*
X22999Y20533D01*
X23027Y20637D01*
Y20745D01*
X22999Y20850D01*
X22945Y20943D01*
X22869Y21019D01*
X22776Y21073D01*
X22671Y21101D01*
D02*
G37*
G36*
X21671D02*
X21563D01*
X21459Y21073D01*
X21366Y21019D01*
X21289Y20943D01*
X21235Y20850D01*
X21207Y20745D01*
Y20637D01*
X21235Y20533D01*
X21289Y20440D01*
X21366Y20363D01*
X21459Y20309D01*
X21563Y20281D01*
X21671D01*
X21776Y20309D01*
X21869Y20363D01*
X21945Y20440D01*
X21999Y20533D01*
X22027Y20637D01*
Y20745D01*
X21999Y20850D01*
X21945Y20943D01*
X21869Y21019D01*
X21776Y21073D01*
X21671Y21101D01*
D02*
G37*
G36*
X15671D02*
X15563D01*
X15459Y21073D01*
X15366Y21019D01*
X15289Y20943D01*
X15235Y20850D01*
X15207Y20745D01*
Y20637D01*
X15235Y20533D01*
X15289Y20440D01*
X15366Y20363D01*
X15459Y20309D01*
X15563Y20281D01*
X15671D01*
X15776Y20309D01*
X15869Y20363D01*
X15945Y20440D01*
X15999Y20533D01*
X16027Y20637D01*
Y20745D01*
X15999Y20850D01*
X15945Y20943D01*
X15869Y21019D01*
X15776Y21073D01*
X15671Y21101D01*
D02*
G37*
G36*
X14671D02*
X14563D01*
X14459Y21073D01*
X14366Y21019D01*
X14289Y20943D01*
X14235Y20850D01*
X14207Y20745D01*
Y20637D01*
X14235Y20533D01*
X14289Y20440D01*
X14366Y20363D01*
X14459Y20309D01*
X14563Y20281D01*
X14671D01*
X14776Y20309D01*
X14869Y20363D01*
X14945Y20440D01*
X14999Y20533D01*
X15027Y20637D01*
Y20745D01*
X14999Y20850D01*
X14945Y20943D01*
X14869Y21019D01*
X14776Y21073D01*
X14671Y21101D01*
D02*
G37*
G36*
X3959Y21100D02*
X3841D01*
X3725Y21077D01*
X3616Y21032D01*
X3518Y20966D01*
X3434Y20882D01*
X3368Y20784D01*
X3323Y20675D01*
X3300Y20559D01*
Y20441D01*
X3323Y20325D01*
X3368Y20216D01*
X3434Y20118D01*
X3518Y20034D01*
X3616Y19968D01*
X3725Y19923D01*
X3841Y19900D01*
X3959D01*
X4075Y19923D01*
X4184Y19968D01*
X4282Y20034D01*
X4366Y20118D01*
X4432Y20216D01*
X4477Y20325D01*
X4500Y20441D01*
Y20559D01*
X4477Y20675D01*
X4432Y20784D01*
X4366Y20882D01*
X4282Y20966D01*
X4184Y21032D01*
X4075Y21077D01*
X3959Y21100D01*
D02*
G37*
G36*
X25454Y20110D02*
X25346D01*
X25242Y20082D01*
X25148Y20028D01*
X25072Y19952D01*
X25018Y19858D01*
X24990Y19754D01*
Y19646D01*
X25018Y19542D01*
X25072Y19448D01*
X25148Y19372D01*
X25242Y19318D01*
X25346Y19290D01*
X25454D01*
X25558Y19318D01*
X25652Y19372D01*
X25728Y19448D01*
X25782Y19542D01*
X25810Y19646D01*
Y19754D01*
X25782Y19858D01*
X25728Y19952D01*
X25652Y20028D01*
X25558Y20082D01*
X25454Y20110D01*
D02*
G37*
G36*
X24054D02*
X23946D01*
X23842Y20082D01*
X23748Y20028D01*
X23672Y19952D01*
X23618Y19858D01*
X23590Y19754D01*
Y19646D01*
X23618Y19542D01*
X23672Y19448D01*
X23748Y19372D01*
X23842Y19318D01*
X23946Y19290D01*
X24054D01*
X24158Y19318D01*
X24252Y19372D01*
X24328Y19448D01*
X24382Y19542D01*
X24410Y19646D01*
Y19754D01*
X24382Y19858D01*
X24328Y19952D01*
X24252Y20028D01*
X24158Y20082D01*
X24054Y20110D01*
D02*
G37*
G36*
X34035Y19758D02*
X33924Y19743D01*
X33820Y19700D01*
X33732Y19632D01*
X33663Y19543D01*
X33621Y19440D01*
X33606Y19329D01*
X33621Y19218D01*
X33663Y19115D01*
X33732Y19026D01*
X33820Y18958D01*
X33924Y18915D01*
X34035Y18900D01*
X34146Y18915D01*
X34249Y18958D01*
X34338Y19026D01*
X34406Y19115D01*
X34449Y19218D01*
X34463Y19329D01*
X34449Y19440D01*
X34406Y19543D01*
X34338Y19632D01*
X34249Y19700D01*
X34146Y19743D01*
X34035Y19758D01*
D02*
G37*
G36*
X12754Y19610D02*
X12646D01*
X12542Y19582D01*
X12448Y19528D01*
X12372Y19452D01*
X12318Y19358D01*
X12290Y19254D01*
Y19146D01*
X12318Y19042D01*
X12372Y18948D01*
X12448Y18872D01*
X12542Y18818D01*
X12646Y18790D01*
X12754D01*
X12858Y18818D01*
X12952Y18872D01*
X13028Y18948D01*
X13082Y19042D01*
X13110Y19146D01*
Y19254D01*
X13082Y19358D01*
X13028Y19452D01*
X12952Y19528D01*
X12858Y19582D01*
X12754Y19610D01*
D02*
G37*
G36*
X34035Y18758D02*
X33924Y18743D01*
X33820Y18700D01*
X33732Y18632D01*
X33663Y18543D01*
X33621Y18440D01*
X33606Y18329D01*
X33621Y18218D01*
X33663Y18115D01*
X33732Y18026D01*
X33820Y17958D01*
X33924Y17915D01*
X34035Y17900D01*
X34146Y17915D01*
X34249Y17958D01*
X34338Y18026D01*
X34406Y18115D01*
X34449Y18218D01*
X34463Y18329D01*
X34449Y18440D01*
X34406Y18543D01*
X34338Y18632D01*
X34249Y18700D01*
X34146Y18743D01*
X34035Y18758D01*
D02*
G37*
G36*
X20671Y21101D02*
X20563D01*
X20459Y21073D01*
X20366Y21019D01*
X20289Y20943D01*
X20235Y20850D01*
X20207Y20745D01*
Y20637D01*
X20235Y20533D01*
X20289Y20440D01*
X20366Y20363D01*
X20456Y20311D01*
Y17871D01*
X20385Y17830D01*
X20320Y17765D01*
X20274Y17685D01*
X20250Y17596D01*
Y17504D01*
X20274Y17415D01*
X20320Y17335D01*
X20385Y17270D01*
X20465Y17224D01*
X20554Y17200D01*
X20646D01*
X20735Y17224D01*
X20815Y17270D01*
X20880Y17335D01*
X20926Y17415D01*
X20950Y17504D01*
Y17596D01*
X20926Y17685D01*
X20880Y17765D01*
X20815Y17830D01*
X20762Y17861D01*
Y20306D01*
X20776Y20309D01*
X20869Y20363D01*
X20945Y20440D01*
X20999Y20533D01*
X21027Y20637D01*
Y20745D01*
X20999Y20850D01*
X20945Y20943D01*
X20869Y21019D01*
X20776Y21073D01*
X20671Y21101D01*
D02*
G37*
G36*
X18671D02*
X18563D01*
X18459Y21073D01*
X18366Y21019D01*
X18289Y20943D01*
X18235Y20850D01*
X18207Y20745D01*
Y20637D01*
X18235Y20533D01*
X18289Y20440D01*
X18366Y20363D01*
X18459Y20309D01*
X18464Y20308D01*
Y18681D01*
X15863Y16079D01*
X15858Y16082D01*
X15754Y16110D01*
X15646D01*
X15542Y16082D01*
X15448Y16028D01*
X15372Y15952D01*
X15318Y15858D01*
X15290Y15754D01*
Y15646D01*
X15318Y15542D01*
X15372Y15448D01*
X15448Y15372D01*
X15542Y15318D01*
X15646Y15290D01*
X15754D01*
X15858Y15318D01*
X15952Y15372D01*
X16028Y15448D01*
X16082Y15542D01*
X16110Y15646D01*
Y15754D01*
X16082Y15858D01*
X16079Y15863D01*
X18725Y18509D01*
X18759Y18559D01*
X18770Y18617D01*
Y20308D01*
X18776Y20309D01*
X18869Y20363D01*
X18945Y20440D01*
X18999Y20533D01*
X19027Y20637D01*
Y20745D01*
X18999Y20850D01*
X18945Y20943D01*
X18869Y21019D01*
X18776Y21073D01*
X18671Y21101D01*
D02*
G37*
G36*
X14354Y16110D02*
X14246D01*
X14142Y16082D01*
X14048Y16028D01*
X13972Y15952D01*
X13918Y15858D01*
X13890Y15754D01*
Y15646D01*
X13918Y15542D01*
X13972Y15448D01*
X14048Y15372D01*
X14142Y15318D01*
X14246Y15290D01*
X14354D01*
X14458Y15318D01*
X14552Y15372D01*
X14628Y15448D01*
X14682Y15542D01*
X14710Y15646D01*
Y15754D01*
X14682Y15858D01*
X14628Y15952D01*
X14552Y16028D01*
X14458Y16082D01*
X14354Y16110D01*
D02*
G37*
G36*
X19671Y21101D02*
X19563D01*
X19459Y21073D01*
X19366Y21019D01*
X19289Y20943D01*
X19235Y20850D01*
X19207Y20745D01*
Y20637D01*
X19235Y20533D01*
X19289Y20440D01*
X19366Y20363D01*
X19459Y20309D01*
X19464Y20308D01*
Y17131D01*
X15863Y13529D01*
X15858Y13532D01*
X15754Y13560D01*
X15646D01*
X15542Y13532D01*
X15448Y13478D01*
X15372Y13402D01*
X15318Y13308D01*
X15290Y13204D01*
Y13096D01*
X15318Y12992D01*
X15372Y12898D01*
X15448Y12822D01*
X15542Y12768D01*
X15646Y12740D01*
X15754D01*
X15858Y12768D01*
X15952Y12822D01*
X16028Y12898D01*
X16082Y12992D01*
X16110Y13096D01*
Y13204D01*
X16082Y13308D01*
X16079Y13313D01*
X19725Y16959D01*
X19759Y17009D01*
X19770Y17067D01*
Y20308D01*
X19776Y20309D01*
X19869Y20363D01*
X19945Y20440D01*
X19999Y20533D01*
X20027Y20637D01*
Y20745D01*
X19999Y20850D01*
X19945Y20943D01*
X19869Y21019D01*
X19776Y21073D01*
X19671Y21101D01*
D02*
G37*
G36*
X14354Y13560D02*
X14246D01*
X14142Y13532D01*
X14048Y13478D01*
X13972Y13402D01*
X13918Y13308D01*
X13890Y13204D01*
Y13096D01*
X13918Y12992D01*
X13972Y12898D01*
X14048Y12822D01*
X14142Y12768D01*
X14246Y12740D01*
X14354D01*
X14458Y12768D01*
X14552Y12822D01*
X14628Y12898D01*
X14682Y12992D01*
X14710Y13096D01*
Y13204D01*
X14682Y13308D01*
X14628Y13402D01*
X14552Y13478D01*
X14458Y13532D01*
X14354Y13560D01*
D02*
G37*
G36*
X2004Y9910D02*
X1896D01*
X1792Y9882D01*
X1698Y9828D01*
X1622Y9752D01*
X1568Y9658D01*
X1540Y9554D01*
Y9446D01*
X1568Y9342D01*
X1622Y9248D01*
X1698Y9172D01*
X1792Y9118D01*
X1896Y9090D01*
X2004D01*
X2108Y9118D01*
X2202Y9172D01*
X2278Y9248D01*
X2332Y9342D01*
X2360Y9446D01*
Y9554D01*
X2332Y9658D01*
X2278Y9752D01*
X2202Y9828D01*
X2108Y9882D01*
X2004Y9910D01*
D02*
G37*
G36*
X25254Y9660D02*
X25146D01*
X25042Y9632D01*
X24948Y9578D01*
X24872Y9502D01*
X24818Y9408D01*
X24790Y9304D01*
Y9196D01*
X24818Y9092D01*
X24872Y8998D01*
X24948Y8922D01*
X25042Y8868D01*
X25146Y8840D01*
X25254D01*
X25358Y8868D01*
X25452Y8922D01*
X25528Y8998D01*
X25582Y9092D01*
X25610Y9196D01*
Y9304D01*
X25582Y9408D01*
X25528Y9502D01*
X25452Y9578D01*
X25358Y9632D01*
X25254Y9660D01*
D02*
G37*
G36*
X23854D02*
X23746D01*
X23642Y9632D01*
X23548Y9578D01*
X23472Y9502D01*
X23418Y9408D01*
X23390Y9304D01*
Y9196D01*
X23418Y9092D01*
X23472Y8998D01*
X23548Y8922D01*
X23642Y8868D01*
X23746Y8840D01*
X23854D01*
X23958Y8868D01*
X24052Y8922D01*
X24128Y8998D01*
X24182Y9092D01*
X24210Y9196D01*
Y9304D01*
X24182Y9408D01*
X24128Y9502D01*
X24052Y9578D01*
X23958Y9632D01*
X23854Y9660D01*
D02*
G37*
G36*
X15804Y9010D02*
X15696D01*
X15592Y8982D01*
X15498Y8928D01*
X15422Y8852D01*
X15368Y8758D01*
X15340Y8654D01*
Y8546D01*
X15368Y8442D01*
X15422Y8348D01*
X15498Y8272D01*
X15592Y8218D01*
X15696Y8190D01*
X15804D01*
X15908Y8218D01*
X16002Y8272D01*
X16078Y8348D01*
X16132Y8442D01*
X16160Y8546D01*
Y8654D01*
X16132Y8758D01*
X16078Y8852D01*
X16002Y8928D01*
X15908Y8982D01*
X15804Y9010D01*
D02*
G37*
G36*
X14404D02*
X14296D01*
X14192Y8982D01*
X14098Y8928D01*
X14022Y8852D01*
X13968Y8758D01*
X13940Y8654D01*
Y8546D01*
X13968Y8442D01*
X14022Y8348D01*
X14098Y8272D01*
X14192Y8218D01*
X14296Y8190D01*
X14404D01*
X14508Y8218D01*
X14602Y8272D01*
X14678Y8348D01*
X14732Y8442D01*
X14760Y8546D01*
Y8654D01*
X14732Y8758D01*
X14678Y8852D01*
X14602Y8928D01*
X14508Y8982D01*
X14404Y9010D01*
D02*
G37*
G36*
X2004Y8510D02*
X1896D01*
X1792Y8482D01*
X1698Y8428D01*
X1622Y8352D01*
X1568Y8258D01*
X1540Y8154D01*
Y8046D01*
X1568Y7942D01*
X1622Y7848D01*
X1698Y7772D01*
X1792Y7718D01*
X1896Y7690D01*
X2004D01*
X2108Y7718D01*
X2202Y7772D01*
X2278Y7848D01*
X2332Y7942D01*
X2360Y8046D01*
Y8154D01*
X2332Y8258D01*
X2278Y8352D01*
X2202Y8428D01*
X2108Y8482D01*
X2004Y8510D01*
D02*
G37*
G36*
X15804Y4860D02*
X15696D01*
X15592Y4832D01*
X15498Y4778D01*
X15422Y4702D01*
X15368Y4608D01*
X15340Y4504D01*
Y4396D01*
X15368Y4292D01*
X15422Y4198D01*
X15498Y4122D01*
X15592Y4068D01*
X15696Y4040D01*
X15804D01*
X15908Y4068D01*
X16002Y4122D01*
X16078Y4198D01*
X16132Y4292D01*
X16160Y4396D01*
Y4504D01*
X16132Y4608D01*
X16078Y4702D01*
X16002Y4778D01*
X15908Y4832D01*
X15804Y4860D01*
D02*
G37*
G36*
X14404D02*
X14296D01*
X14192Y4832D01*
X14098Y4778D01*
X14022Y4702D01*
X13968Y4608D01*
X13940Y4504D01*
Y4396D01*
X13968Y4292D01*
X14022Y4198D01*
X14098Y4122D01*
X14192Y4068D01*
X14296Y4040D01*
X14404D01*
X14508Y4068D01*
X14602Y4122D01*
X14678Y4198D01*
X14732Y4292D01*
X14760Y4396D01*
Y4504D01*
X14732Y4608D01*
X14678Y4702D01*
X14602Y4778D01*
X14508Y4832D01*
X14404Y4860D01*
D02*
G37*
G36*
X11700Y2659D02*
X11552Y2644D01*
X11410Y2601D01*
X11279Y2531D01*
X11164Y2436D01*
X11069Y2321D01*
X10999Y2190D01*
X10956Y2048D01*
X10941Y1900D01*
X10956Y1752D01*
X10999Y1610D01*
X11069Y1479D01*
X11164Y1364D01*
X11279Y1269D01*
X11410Y1199D01*
X11552Y1156D01*
X11700Y1141D01*
X11848Y1156D01*
X11990Y1199D01*
X12121Y1269D01*
X12236Y1364D01*
X12331Y1479D01*
X12401Y1610D01*
X12444Y1752D01*
X12459Y1900D01*
X12444Y2048D01*
X12401Y2190D01*
X12331Y2321D01*
X12236Y2436D01*
X12121Y2531D01*
X11990Y2601D01*
X11848Y2644D01*
X11700Y2659D01*
D02*
G37*
%LPD*%
D39*
X20600Y17550D02*
X20609Y17559D01*
Y20683D02*
X20617Y20691D01*
X20609Y17559D02*
Y20683D01*
X15700Y13150D02*
X19617Y17067D01*
Y20691D01*
X18617Y18617D02*
Y20691D01*
X15700Y15700D02*
X18617Y18617D01*
X16600Y18950D02*
X17100Y19450D01*
X16600Y17680D02*
Y18950D01*
X17100Y19450D02*
Y21209D01*
X16617Y21691D02*
X17100Y21209D01*
X15040Y19114D02*
X16617Y20691D01*
X15040Y17400D02*
Y19114D01*
D40*
X26760Y14480D02*
Y18640D01*
X24040Y11760D02*
X26760Y14480D01*
X24000Y11720D02*
X24040Y11760D01*
X14720Y11720D02*
X24000D01*
X11450Y7550D02*
Y12600D01*
X11840Y7160D02*
X14680D01*
X11450Y7550D02*
X11840Y7160D01*
X11450Y13270D02*
X12120Y12600D01*
X11450D02*
Y13270D01*
Y12600D02*
X12120D01*
X13000Y11720D01*
X11050Y20100D02*
X12030D01*
X10550Y19600D02*
X11050Y20100D01*
X10550Y16867D02*
Y19600D01*
X12030Y20100D02*
X13617Y21687D01*
X10550Y16867D02*
X11450Y15967D01*
Y13270D02*
Y15967D01*
X13000Y11720D02*
X14720D01*
X13617Y21687D02*
Y21691D01*
D46*
X15750Y8600D02*
D03*
X14350D02*
D03*
X15750Y4450D02*
D03*
X14350D02*
D03*
X15700Y13150D02*
D03*
X14300D02*
D03*
X15700Y15700D02*
D03*
X14300D02*
D03*
X25200Y9250D02*
D03*
X23800D02*
D03*
X22617Y20691D02*
D03*
X23617D02*
D03*
X24617D02*
D03*
X25617Y21691D02*
D03*
X30617Y20691D02*
D03*
Y21691D02*
D03*
X31617D02*
D03*
X32617D02*
D03*
X1950Y8100D02*
D03*
Y9500D02*
D03*
X13617Y20691D02*
D03*
X14617D02*
D03*
X15617D02*
D03*
X16617D02*
D03*
X17617D02*
D03*
X18617D02*
D03*
X19617D02*
D03*
X20617D02*
D03*
X21617D02*
D03*
X25617D02*
D03*
X26617D02*
D03*
X27617D02*
D03*
X28617D02*
D03*
X29617D02*
D03*
X31617D02*
D03*
X32617D02*
D03*
X13617Y21691D02*
D03*
X14617D02*
D03*
X15617D02*
D03*
X16617D02*
D03*
X17617D02*
D03*
X18617D02*
D03*
X19617D02*
D03*
X20617D02*
D03*
X21617D02*
D03*
X22617D02*
D03*
X23617D02*
D03*
X24617D02*
D03*
X26617D02*
D03*
X27617D02*
D03*
X28617D02*
D03*
X29617D02*
D03*
X25400Y19700D02*
D03*
X24000D02*
D03*
X12700Y19200D02*
D03*
X11300D02*
D03*
D47*
X11700Y1900D02*
D03*
Y21191D02*
D03*
X34535D02*
D03*
Y1900D02*
D03*
D48*
X34035Y18329D02*
D03*
X35035D02*
D03*
Y19329D02*
D03*
X34035D02*
D03*
D49*
X3900Y20500D02*
D03*
X1800D02*
D03*
D50*
X33454Y16496D02*
D03*
X31954Y13496D02*
D03*
X33454Y10496D02*
D03*
X31954Y7496D02*
D03*
X33454Y4496D02*
D03*
X31954Y1496D02*
D03*
X28954Y13496D02*
D03*
X30454Y10496D02*
D03*
X28954Y7496D02*
D03*
X30454Y4496D02*
D03*
X28954Y1496D02*
D03*
X25954Y19496D02*
D03*
X27454Y16496D02*
D03*
Y10496D02*
D03*
X25954Y7496D02*
D03*
X27454Y4496D02*
D03*
X25954Y1496D02*
D03*
X24454Y16496D02*
D03*
X22954Y13496D02*
D03*
Y7496D02*
D03*
X24454Y4496D02*
D03*
X22954Y1496D02*
D03*
X19954Y19496D02*
D03*
X21454Y16496D02*
D03*
X19954Y13496D02*
D03*
X21454Y10496D02*
D03*
X19954Y7496D02*
D03*
X21454Y4496D02*
D03*
X19954Y1496D02*
D03*
X18454Y16496D02*
D03*
X16954Y13496D02*
D03*
X18454Y10496D02*
D03*
X16954Y7496D02*
D03*
X18454Y4496D02*
D03*
X16954Y1496D02*
D03*
X15454Y16496D02*
D03*
X13954Y1496D02*
D03*
X12454Y16496D02*
D03*
X9454D02*
D03*
X7954Y7496D02*
D03*
X9454Y4496D02*
D03*
X7954Y1496D02*
D03*
X4954Y7496D02*
D03*
X6454Y4496D02*
D03*
X4954Y1496D02*
D03*
X1954Y19496D02*
D03*
Y13496D02*
D03*
Y7496D02*
D03*
X3454Y4496D02*
D03*
X1954Y1496D02*
D03*
D51*
X11450Y12600D02*
D03*
Y13270D02*
D03*
X14720Y11720D02*
D03*
X14680Y7160D02*
D03*
X15040Y17400D02*
D03*
X16600Y17680D02*
D03*
X26760Y18640D02*
D03*
X24040Y11760D02*
D03*
X20600Y17550D02*
D03*
M02*
