M48
;Layer_Color=9474304
;FILE_FORMAT=2:3
INCH,LZ
;TYPE=PLATED
T1F00S00C0.022
T2F00S00C0.028
T3F00S00C0.035
T4F00S00C0.040
T5F00S00C0.062
;TYPE=NON_PLATED
T6F00S00C0.039
T7F00S00C0.106
%
T01
X02895Y0015
X03195
X03345Y0045
X03045
X03195Y0075
X02895
X03045Y0105
X03345
X02745
X02595Y0075
X02295
X01995
X01695
X01845Y0105
X02145
Y0045
X02445
X02745
X02595Y0015
X02295
X01995
X01695
X01395
X01545Y0045
X01845
X01545Y0105
X00945
X00645
X00795Y0075
X00495
X00195
X00345Y0045
X00645
X00945
X00795Y0015
X00495
X00195
X00397Y01184
X00481
X00645Y0165
X00945
X00195Y0195
X01245Y0165
X01845
X02145
X02295Y0135
X02595
X02745Y0165
X02595Y0195
X01995
Y0135
X01695
X02895
X03195
X03345Y0165
T02
X01348Y00716
X01352Y01172
X00644Y01248
X00476Y01244
X002Y0125
X00143
Y01192
X002
Y01308
X00143
X00648Y01508
Y01565
X00706
X00756
Y01508
X00706
X01384Y0174
X0154Y01768
X0206Y01755
X02676Y01864
X02404Y01176
T03
X01315Y00445
X01455
Y0086
X01315
X0238Y00925
X0252
X0021Y0094
Y0108
X0113Y0192
X0127
X0131Y0157
X0145
Y01315
X0131
X024Y0197
X0254
T04
X01362Y02069
X01462
X01562
X01662
X01762
X01862
X01962
X02062
X02162
X02262
X02362
X02462
X02562
Y02169
X02462
X02362
X02262
X02162
X02062
X01962
X01862
X01762
X01662
X01562
X01462
X01362
X02662
Y02069
X02762
Y02169
X02862
Y02069
X02962
X03062
Y02169
X03162
X03262
Y02069
X03162
X02962Y02169
T05
X0018Y0205
X0039
T06
X03403Y01833
X03503
Y01933
X03403
T07
X03453Y0019
X0117
Y02119
X03453
M30
