G04*
G04 #@! TF.GenerationSoftware,Altium Limited,Altium Designer,22.10.1 (41)*
G04*
G04 Layer_Color=2752767*
%FSLAX23Y23*%
%MOIN*%
G70*
G04*
G04 #@! TF.SameCoordinates,9DCC93BE-6794-47A7-A240-529396958765*
G04*
G04*
G04 #@! TF.FilePolarity,Positive*
G04*
G01*
G75*
%ADD56C,0.002*%
%ADD62C,0.003*%
D56*
X3395Y1825D02*
X3399D01*
X3403Y1829D01*
X3407Y1825D01*
X3411D01*
Y1829D01*
X3407Y1833D01*
X3411Y1837D01*
Y1841D01*
X3407D01*
X3403Y1837D01*
X3399Y1841D01*
X3395D01*
Y1837D01*
X3399Y1833D01*
X3395Y1829D01*
Y1825D01*
X3495D02*
X3499D01*
X3503Y1829D01*
X3507Y1825D01*
X3511D01*
Y1829D01*
X3507Y1833D01*
X3511Y1837D01*
Y1841D01*
X3507D01*
X3503Y1837D01*
X3499Y1841D01*
X3495D01*
Y1837D01*
X3499Y1833D01*
X3495Y1829D01*
Y1825D01*
Y1925D02*
X3499D01*
X3503Y1929D01*
X3507Y1925D01*
X3511D01*
Y1929D01*
X3507Y1933D01*
X3511Y1937D01*
Y1941D01*
X3507D01*
X3503Y1937D01*
X3499Y1941D01*
X3495D01*
Y1937D01*
X3499Y1933D01*
X3495Y1929D01*
Y1925D01*
X3395D02*
X3399D01*
X3403Y1929D01*
X3407Y1925D01*
X3411D01*
Y1929D01*
X3407Y1933D01*
X3411Y1937D01*
Y1941D01*
X3407D01*
X3403Y1937D01*
X3399Y1941D01*
X3395D01*
Y1937D01*
X3399Y1933D01*
X3395Y1929D01*
Y1925D01*
X1166Y186D02*
Y182D01*
X1174D01*
Y186D01*
X1178D01*
Y194D01*
X1174D01*
Y198D01*
X1166D01*
Y194D01*
X1162D01*
Y186D01*
X1166D01*
Y2115D02*
Y2111D01*
X1174D01*
Y2115D01*
X1178D01*
Y2123D01*
X1174D01*
Y2127D01*
X1166D01*
Y2123D01*
X1162D01*
Y2115D01*
X1166D01*
X3449D02*
Y2111D01*
X3457D01*
Y2115D01*
X3461D01*
Y2123D01*
X3457D01*
Y2127D01*
X3449D01*
Y2123D01*
X3445D01*
Y2115D01*
X3449D01*
Y186D02*
Y182D01*
X3457D01*
Y186D01*
X3461D01*
Y194D01*
X3457D01*
Y198D01*
X3449D01*
Y194D01*
X3445D01*
Y186D01*
X3449D01*
X2262Y2061D02*
X2254Y2077D01*
X2270D01*
X2262Y2061D01*
X2362D02*
X2354Y2077D01*
X2370D01*
X2362Y2061D01*
X2462D02*
X2454Y2077D01*
X2470D01*
X2462Y2061D01*
X2562Y2161D02*
X2554Y2177D01*
X2570D01*
X2562Y2161D01*
X3062Y2061D02*
X3054Y2077D01*
X3070D01*
X3062Y2061D01*
Y2161D02*
X3054Y2177D01*
X3070D01*
X3062Y2161D01*
X3162D02*
X3154Y2177D01*
X3170D01*
X3162Y2161D01*
X3262D02*
X3254Y2177D01*
X3270D01*
X3262Y2161D01*
X382Y2042D02*
Y2058D01*
X398D01*
Y2042D01*
X382D01*
X172D02*
Y2058D01*
X188D01*
Y2042D01*
X172D01*
X1362Y2061D02*
X1354Y2077D01*
X1370D01*
X1362Y2061D01*
X1462D02*
X1454Y2077D01*
X1470D01*
X1462Y2061D01*
X1562D02*
X1554Y2077D01*
X1570D01*
X1562Y2061D01*
X1662D02*
X1654Y2077D01*
X1670D01*
X1662Y2061D01*
X1762D02*
X1754Y2077D01*
X1770D01*
X1762Y2061D01*
X1862D02*
X1854Y2077D01*
X1870D01*
X1862Y2061D01*
X1962D02*
X1954Y2077D01*
X1970D01*
X1962Y2061D01*
X2062D02*
X2054Y2077D01*
X2070D01*
X2062Y2061D01*
X2162D02*
X2154Y2077D01*
X2170D01*
X2162Y2061D01*
X2562D02*
X2554Y2077D01*
X2570D01*
X2562Y2061D01*
X2662D02*
X2654Y2077D01*
X2670D01*
X2662Y2061D01*
X2762D02*
X2754Y2077D01*
X2770D01*
X2762Y2061D01*
X2862D02*
X2854Y2077D01*
X2870D01*
X2862Y2061D01*
X2962D02*
X2954Y2077D01*
X2970D01*
X2962Y2061D01*
X3162D02*
X3154Y2077D01*
X3170D01*
X3162Y2061D01*
X3262D02*
X3254Y2077D01*
X3270D01*
X3262Y2061D01*
X1362Y2161D02*
X1354Y2177D01*
X1370D01*
X1362Y2161D01*
X1462D02*
X1454Y2177D01*
X1470D01*
X1462Y2161D01*
X1562D02*
X1554Y2177D01*
X1570D01*
X1562Y2161D01*
X1662D02*
X1654Y2177D01*
X1670D01*
X1662Y2161D01*
X1762D02*
X1754Y2177D01*
X1770D01*
X1762Y2161D01*
X1862D02*
X1854Y2177D01*
X1870D01*
X1862Y2161D01*
X1962D02*
X1954Y2177D01*
X1970D01*
X1962Y2161D01*
X2062D02*
X2054Y2177D01*
X2070D01*
X2062Y2161D01*
X2162D02*
X2154Y2177D01*
X2170D01*
X2162Y2161D01*
X2262D02*
X2254Y2177D01*
X2270D01*
X2262Y2161D01*
X2362D02*
X2354Y2177D01*
X2370D01*
X2362Y2161D01*
X2462D02*
X2454Y2177D01*
X2470D01*
X2462Y2161D01*
X2662D02*
X2654Y2177D01*
X2670D01*
X2662Y2161D01*
X2762D02*
X2754Y2177D01*
X2770D01*
X2762Y2161D01*
X2862D02*
X2854Y2177D01*
X2870D01*
X2862Y2161D01*
X2962D02*
X2954Y2177D01*
X2970D01*
X2962Y2161D01*
X3337Y1642D02*
X3341Y1650D01*
X3337Y1658D01*
X3345Y1654D01*
X3353Y1658D01*
X3349Y1650D01*
X3353Y1642D01*
X3345Y1646D01*
X3337Y1642D01*
X3187Y1342D02*
X3191Y1350D01*
X3187Y1358D01*
X3195Y1354D01*
X3203Y1358D01*
X3199Y1350D01*
X3203Y1342D01*
X3195Y1346D01*
X3187Y1342D01*
X3337Y1042D02*
X3341Y1050D01*
X3337Y1058D01*
X3345Y1054D01*
X3353Y1058D01*
X3349Y1050D01*
X3353Y1042D01*
X3345Y1046D01*
X3337Y1042D01*
X3187Y742D02*
X3191Y750D01*
X3187Y758D01*
X3195Y754D01*
X3203Y758D01*
X3199Y750D01*
X3203Y742D01*
X3195Y746D01*
X3187Y742D01*
X3337Y442D02*
X3341Y450D01*
X3337Y458D01*
X3345Y454D01*
X3353Y458D01*
X3349Y450D01*
X3353Y442D01*
X3345Y446D01*
X3337Y442D01*
X3187Y142D02*
X3191Y150D01*
X3187Y158D01*
X3195Y154D01*
X3203Y158D01*
X3199Y150D01*
X3203Y142D01*
X3195Y146D01*
X3187Y142D01*
X2887Y1342D02*
X2891Y1350D01*
X2887Y1358D01*
X2895Y1354D01*
X2903Y1358D01*
X2899Y1350D01*
X2903Y1342D01*
X2895Y1346D01*
X2887Y1342D01*
X3037Y1042D02*
X3041Y1050D01*
X3037Y1058D01*
X3045Y1054D01*
X3053Y1058D01*
X3049Y1050D01*
X3053Y1042D01*
X3045Y1046D01*
X3037Y1042D01*
X2887Y742D02*
X2891Y750D01*
X2887Y758D01*
X2895Y754D01*
X2903Y758D01*
X2899Y750D01*
X2903Y742D01*
X2895Y746D01*
X2887Y742D01*
X3037Y442D02*
X3041Y450D01*
X3037Y458D01*
X3045Y454D01*
X3053Y458D01*
X3049Y450D01*
X3053Y442D01*
X3045Y446D01*
X3037Y442D01*
X2887Y142D02*
X2891Y150D01*
X2887Y158D01*
X2895Y154D01*
X2903Y158D01*
X2899Y150D01*
X2903Y142D01*
X2895Y146D01*
X2887Y142D01*
X2587Y1942D02*
X2591Y1950D01*
X2587Y1958D01*
X2595Y1954D01*
X2603Y1958D01*
X2599Y1950D01*
X2603Y1942D01*
X2595Y1946D01*
X2587Y1942D01*
X2737Y1642D02*
X2741Y1650D01*
X2737Y1658D01*
X2745Y1654D01*
X2753Y1658D01*
X2749Y1650D01*
X2753Y1642D01*
X2745Y1646D01*
X2737Y1642D01*
X2587Y1342D02*
X2591Y1350D01*
X2587Y1358D01*
X2595Y1354D01*
X2603Y1358D01*
X2599Y1350D01*
X2603Y1342D01*
X2595Y1346D01*
X2587Y1342D01*
X2737Y1042D02*
X2741Y1050D01*
X2737Y1058D01*
X2745Y1054D01*
X2753Y1058D01*
X2749Y1050D01*
X2753Y1042D01*
X2745Y1046D01*
X2737Y1042D01*
X2587Y742D02*
X2591Y750D01*
X2587Y758D01*
X2595Y754D01*
X2603Y758D01*
X2599Y750D01*
X2603Y742D01*
X2595Y746D01*
X2587Y742D01*
X2737Y442D02*
X2741Y450D01*
X2737Y458D01*
X2745Y454D01*
X2753Y458D01*
X2749Y450D01*
X2753Y442D01*
X2745Y446D01*
X2737Y442D01*
X2587Y142D02*
X2591Y150D01*
X2587Y158D01*
X2595Y154D01*
X2603Y158D01*
X2599Y150D01*
X2603Y142D01*
X2595Y146D01*
X2587Y142D01*
X2287Y1342D02*
X2291Y1350D01*
X2287Y1358D01*
X2295Y1354D01*
X2303Y1358D01*
X2299Y1350D01*
X2303Y1342D01*
X2295Y1346D01*
X2287Y1342D01*
Y742D02*
X2291Y750D01*
X2287Y758D01*
X2295Y754D01*
X2303Y758D01*
X2299Y750D01*
X2303Y742D01*
X2295Y746D01*
X2287Y742D01*
X2437Y442D02*
X2441Y450D01*
X2437Y458D01*
X2445Y454D01*
X2453Y458D01*
X2449Y450D01*
X2453Y442D01*
X2445Y446D01*
X2437Y442D01*
X2287Y142D02*
X2291Y150D01*
X2287Y158D01*
X2295Y154D01*
X2303Y158D01*
X2299Y150D01*
X2303Y142D01*
X2295Y146D01*
X2287Y142D01*
X1987Y1942D02*
X1991Y1950D01*
X1987Y1958D01*
X1995Y1954D01*
X2003Y1958D01*
X1999Y1950D01*
X2003Y1942D01*
X1995Y1946D01*
X1987Y1942D01*
X2137Y1642D02*
X2141Y1650D01*
X2137Y1658D01*
X2145Y1654D01*
X2153Y1658D01*
X2149Y1650D01*
X2153Y1642D01*
X2145Y1646D01*
X2137Y1642D01*
X1987Y1342D02*
X1991Y1350D01*
X1987Y1358D01*
X1995Y1354D01*
X2003Y1358D01*
X1999Y1350D01*
X2003Y1342D01*
X1995Y1346D01*
X1987Y1342D01*
X2137Y1042D02*
X2141Y1050D01*
X2137Y1058D01*
X2145Y1054D01*
X2153Y1058D01*
X2149Y1050D01*
X2153Y1042D01*
X2145Y1046D01*
X2137Y1042D01*
X1987Y742D02*
X1991Y750D01*
X1987Y758D01*
X1995Y754D01*
X2003Y758D01*
X1999Y750D01*
X2003Y742D01*
X1995Y746D01*
X1987Y742D01*
X2137Y442D02*
X2141Y450D01*
X2137Y458D01*
X2145Y454D01*
X2153Y458D01*
X2149Y450D01*
X2153Y442D01*
X2145Y446D01*
X2137Y442D01*
X1987Y142D02*
X1991Y150D01*
X1987Y158D01*
X1995Y154D01*
X2003Y158D01*
X1999Y150D01*
X2003Y142D01*
X1995Y146D01*
X1987Y142D01*
X1837Y1642D02*
X1841Y1650D01*
X1837Y1658D01*
X1845Y1654D01*
X1853Y1658D01*
X1849Y1650D01*
X1853Y1642D01*
X1845Y1646D01*
X1837Y1642D01*
X1687Y1342D02*
X1691Y1350D01*
X1687Y1358D01*
X1695Y1354D01*
X1703Y1358D01*
X1699Y1350D01*
X1703Y1342D01*
X1695Y1346D01*
X1687Y1342D01*
X1837Y1042D02*
X1841Y1050D01*
X1837Y1058D01*
X1845Y1054D01*
X1853Y1058D01*
X1849Y1050D01*
X1853Y1042D01*
X1845Y1046D01*
X1837Y1042D01*
X1687Y742D02*
X1691Y750D01*
X1687Y758D01*
X1695Y754D01*
X1703Y758D01*
X1699Y750D01*
X1703Y742D01*
X1695Y746D01*
X1687Y742D01*
X1837Y442D02*
X1841Y450D01*
X1837Y458D01*
X1845Y454D01*
X1853Y458D01*
X1849Y450D01*
X1853Y442D01*
X1845Y446D01*
X1837Y442D01*
X1687Y142D02*
X1691Y150D01*
X1687Y158D01*
X1695Y154D01*
X1703Y158D01*
X1699Y150D01*
X1703Y142D01*
X1695Y146D01*
X1687Y142D01*
X1537Y1042D02*
X1541Y1050D01*
X1537Y1058D01*
X1545Y1054D01*
X1553Y1058D01*
X1549Y1050D01*
X1553Y1042D01*
X1545Y1046D01*
X1537Y1042D01*
Y442D02*
X1541Y450D01*
X1537Y458D01*
X1545Y454D01*
X1553Y458D01*
X1549Y450D01*
X1553Y442D01*
X1545Y446D01*
X1537Y442D01*
X1387Y142D02*
X1391Y150D01*
X1387Y158D01*
X1395Y154D01*
X1403Y158D01*
X1399Y150D01*
X1403Y142D01*
X1395Y146D01*
X1387Y142D01*
X1237Y1642D02*
X1241Y1650D01*
X1237Y1658D01*
X1245Y1654D01*
X1253Y1658D01*
X1249Y1650D01*
X1253Y1642D01*
X1245Y1646D01*
X1237Y1642D01*
X937D02*
X941Y1650D01*
X937Y1658D01*
X945Y1654D01*
X953Y1658D01*
X949Y1650D01*
X953Y1642D01*
X945Y1646D01*
X937Y1642D01*
Y1042D02*
X941Y1050D01*
X937Y1058D01*
X945Y1054D01*
X953Y1058D01*
X949Y1050D01*
X953Y1042D01*
X945Y1046D01*
X937Y1042D01*
X787Y742D02*
X791Y750D01*
X787Y758D01*
X795Y754D01*
X803Y758D01*
X799Y750D01*
X803Y742D01*
X795Y746D01*
X787Y742D01*
X937Y442D02*
X941Y450D01*
X937Y458D01*
X945Y454D01*
X953Y458D01*
X949Y450D01*
X953Y442D01*
X945Y446D01*
X937Y442D01*
X787Y142D02*
X791Y150D01*
X787Y158D01*
X795Y154D01*
X803Y158D01*
X799Y150D01*
X803Y142D01*
X795Y146D01*
X787Y142D01*
X637Y1642D02*
X641Y1650D01*
X637Y1658D01*
X645Y1654D01*
X653Y1658D01*
X649Y1650D01*
X653Y1642D01*
X645Y1646D01*
X637Y1642D01*
Y1042D02*
X641Y1050D01*
X637Y1058D01*
X645Y1054D01*
X653Y1058D01*
X649Y1050D01*
X653Y1042D01*
X645Y1046D01*
X637Y1042D01*
X487Y742D02*
X491Y750D01*
X487Y758D01*
X495Y754D01*
X503Y758D01*
X499Y750D01*
X503Y742D01*
X495Y746D01*
X487Y742D01*
X637Y442D02*
X641Y450D01*
X637Y458D01*
X645Y454D01*
X653Y458D01*
X649Y450D01*
X653Y442D01*
X645Y446D01*
X637Y442D01*
X487Y142D02*
X491Y150D01*
X487Y158D01*
X495Y154D01*
X503Y158D01*
X499Y150D01*
X503Y142D01*
X495Y146D01*
X487Y142D01*
X187Y1942D02*
X191Y1950D01*
X187Y1958D01*
X195Y1954D01*
X203Y1958D01*
X199Y1950D01*
X203Y1942D01*
X195Y1946D01*
X187Y1942D01*
Y742D02*
X191Y750D01*
X187Y758D01*
X195Y754D01*
X203Y758D01*
X199Y750D01*
X203Y742D01*
X195Y746D01*
X187Y742D01*
X337Y442D02*
X341Y450D01*
X337Y458D01*
X345Y454D01*
X353Y458D01*
X349Y450D01*
X353Y442D01*
X345Y446D01*
X337Y442D01*
X187Y142D02*
X191Y150D01*
X187Y158D01*
X195Y154D01*
X203Y158D01*
X199Y150D01*
X203Y142D01*
X195Y146D01*
X187Y142D01*
X1352Y1164D02*
X1356Y1168D01*
X1360D01*
X1356Y1172D01*
X1360Y1176D01*
X1356D01*
X1352Y1180D01*
X1348Y1176D01*
X1344D01*
X1348Y1172D01*
X1344Y1168D01*
X1348D01*
X1352Y1164D01*
X756Y1557D02*
X760Y1561D01*
X764D01*
X760Y1565D01*
X764Y1569D01*
X760D01*
X756Y1573D01*
X752Y1569D01*
X748D01*
X752Y1565D01*
X748Y1561D01*
X752D01*
X756Y1557D01*
Y1500D02*
X760Y1504D01*
X764D01*
X760Y1508D01*
X764Y1512D01*
X760D01*
X756Y1516D01*
X752Y1512D01*
X748D01*
X752Y1508D01*
X748Y1504D01*
X752D01*
X756Y1500D01*
X476Y1236D02*
X480Y1240D01*
X484D01*
X480Y1244D01*
X484Y1248D01*
X480D01*
X476Y1252D01*
X472Y1248D01*
X468D01*
X472Y1244D01*
X468Y1240D01*
X472D01*
X476Y1236D01*
X2676Y1856D02*
X2680Y1860D01*
X2684D01*
X2680Y1864D01*
X2684Y1868D01*
X2680D01*
X2676Y1872D01*
X2672Y1868D01*
X2668D01*
X2672Y1864D01*
X2668Y1860D01*
X2672D01*
X2676Y1856D01*
X2404Y1168D02*
X2408Y1172D01*
X2412D01*
X2408Y1176D01*
X2412Y1180D01*
X2408D01*
X2404Y1184D01*
X2400Y1180D01*
X2396D01*
X2400Y1176D01*
X2396Y1172D01*
X2400D01*
X2404Y1168D01*
X1540Y1760D02*
X1544Y1764D01*
X1548D01*
X1544Y1768D01*
X1548Y1772D01*
X1544D01*
X1540Y1776D01*
X1536Y1772D01*
X1532D01*
X1536Y1768D01*
X1532Y1764D01*
X1536D01*
X1540Y1760D01*
X1348Y708D02*
X1352Y712D01*
X1356D01*
X1352Y716D01*
X1356Y720D01*
X1352D01*
X1348Y724D01*
X1344Y720D01*
X1340D01*
X1344Y716D01*
X1340Y712D01*
X1344D01*
X1348Y708D01*
X644Y1240D02*
X648Y1244D01*
X652D01*
X648Y1248D01*
X652Y1252D01*
X648D01*
X644Y1256D01*
X640Y1252D01*
X636D01*
X640Y1248D01*
X636Y1244D01*
X640D01*
X644Y1240D01*
X1384Y1732D02*
X1388Y1736D01*
X1392D01*
X1388Y1740D01*
X1392Y1744D01*
X1388D01*
X1384Y1748D01*
X1380Y1744D01*
X1376D01*
X1380Y1740D01*
X1376Y1736D01*
X1380D01*
X1384Y1732D01*
X143Y1242D02*
X147Y1246D01*
X151D01*
X147Y1250D01*
X151Y1254D01*
X147D01*
X143Y1258D01*
X139Y1254D01*
X135D01*
X139Y1250D01*
X135Y1246D01*
X139D01*
X143Y1242D01*
Y1184D02*
X147Y1188D01*
X151D01*
X147Y1192D01*
X151Y1196D01*
X147D01*
X143Y1200D01*
X139Y1196D01*
X135D01*
X139Y1192D01*
X135Y1188D01*
X139D01*
X143Y1184D01*
Y1300D02*
X147Y1304D01*
X151D01*
X147Y1308D01*
X151Y1312D01*
X147D01*
X143Y1316D01*
X139Y1312D01*
X135D01*
X139Y1308D01*
X135Y1304D01*
X139D01*
X143Y1300D01*
X200D02*
X204Y1304D01*
X208D01*
X204Y1308D01*
X208Y1312D01*
X204D01*
X200Y1316D01*
X196Y1312D01*
X192D01*
X196Y1308D01*
X192Y1304D01*
X196D01*
X200Y1300D01*
Y1184D02*
X204Y1188D01*
X208D01*
X204Y1192D01*
X208Y1196D01*
X204D01*
X200Y1200D01*
X196Y1196D01*
X192D01*
X196Y1192D01*
X192Y1188D01*
X196D01*
X200Y1184D01*
Y1242D02*
X204Y1246D01*
X208D01*
X204Y1250D01*
X208Y1254D01*
X204D01*
X200Y1258D01*
X196Y1254D01*
X192D01*
X196Y1250D01*
X192Y1246D01*
X196D01*
X200Y1242D01*
X706Y1500D02*
X710Y1504D01*
X714D01*
X710Y1508D01*
X714Y1512D01*
X710D01*
X706Y1516D01*
X702Y1512D01*
X698D01*
X702Y1508D01*
X698Y1504D01*
X702D01*
X706Y1500D01*
X648D02*
X652Y1504D01*
X656D01*
X652Y1508D01*
X656Y1512D01*
X652D01*
X648Y1516D01*
X644Y1512D01*
X640D01*
X644Y1508D01*
X640Y1504D01*
X644D01*
X648Y1500D01*
Y1557D02*
X652Y1561D01*
X656D01*
X652Y1565D01*
X656Y1569D01*
X652D01*
X648Y1573D01*
X644Y1569D01*
X640D01*
X644Y1565D01*
X640Y1561D01*
X644D01*
X648Y1557D01*
X706D02*
X710Y1561D01*
X714D01*
X710Y1565D01*
X714Y1569D01*
X710D01*
X706Y1573D01*
X702Y1569D01*
X698D01*
X702Y1565D01*
X698Y1561D01*
X702D01*
X706Y1557D01*
X473Y1176D02*
X477Y1184D01*
X473Y1192D01*
X481Y1188D01*
X489Y1192D01*
X485Y1184D01*
X489Y1176D01*
X481Y1180D01*
X473Y1176D01*
X389D02*
X393Y1184D01*
X389Y1192D01*
X397Y1188D01*
X405Y1192D01*
X401Y1184D01*
X405Y1176D01*
X397Y1180D01*
X389Y1176D01*
X2060Y1747D02*
X2064Y1751D01*
X2068D01*
X2064Y1755D01*
X2068Y1759D01*
X2064D01*
X2060Y1763D01*
X2056Y1759D01*
X2052D01*
X2056Y1755D01*
X2052Y1751D01*
X2056D01*
X2060Y1747D01*
D62*
X1318Y1315D02*
G03*
X1318Y1315I-8J0D01*
G01*
X1458D02*
G03*
X1458Y1315I-8J0D01*
G01*
X1318Y1570D02*
G03*
X1318Y1570I-8J0D01*
G01*
X1458D02*
G03*
X1458Y1570I-8J0D01*
G01*
X1323Y860D02*
G03*
X1323Y860I-8J0D01*
G01*
X1463D02*
G03*
X1463Y860I-8J0D01*
G01*
X1323Y445D02*
G03*
X1323Y445I-8J0D01*
G01*
X1463D02*
G03*
X1463Y445I-8J0D01*
G01*
X2388Y925D02*
G03*
X2388Y925I-8J0D01*
G01*
X2528D02*
G03*
X2528Y925I-8J0D01*
G01*
X218Y940D02*
G03*
X218Y940I-8J0D01*
G01*
Y1080D02*
G03*
X218Y1080I-8J0D01*
G01*
X2548Y1970D02*
G03*
X2548Y1970I-8J0D01*
G01*
X2408D02*
G03*
X2408Y1970I-8J0D01*
G01*
X1278Y1920D02*
G03*
X1278Y1920I-8J0D01*
G01*
X1138D02*
G03*
X1138Y1920I-8J0D01*
G01*
M02*
