M48
;Layer_Color=9474304
;FILE_FORMAT=2:4
INCH,LZ
;TYPE=PLATED
T1F00S00C0.0220
T2F00S00C0.0280
T3F00S00C0.0350
T4F00S00C0.0402
T5F00S00C0.0620
;TYPE=NON_PLATED
T6F00S00C0.0394
T7F00S00C0.1063
%
T01
X028954Y001496
X031954
X033454Y004496
X030454
X031954Y007496
X028954
X030454Y010496
X033454
X027454
X025954Y007496
X022954
X019954
X016954
X018454Y010496
X021454
Y004496
X024454
X027454
X025954Y001496
X022954
X019954
X016954
X013954
X018454Y004496
X009454
X006454
X003454
X004954Y007496
X007954
Y001496
X004954
X001954
Y007496
Y013496
Y019496
X009454Y016496
X012454
X015454
X018454
X021454
X024454
X027454
X025954Y019496
X019954
Y013496
X022954
X016954
X028954
X031954
X033454Y016496
T02
X01468Y00716
X01472Y01172
X01145Y0126
Y01327
X01504Y0174
X0166Y01768
X0206Y01755
X02676Y01864
X02404Y01176
T03
X01435Y00445
X01575
Y0086
X01435
X0238Y00925
X0252
X00195Y0095
Y0081
X0113Y0192
X0127
X0143Y0157
X0157
Y01315
X0143
X024Y0197
X0254
T04
X013617Y020691
X014617
X015617
X016617
X017617
X018617
X019617
X020617
X021617
X022617
X023617
X024617
X025617
Y021691
X024617
X023617
X022617
X021617
X020617
X019617
X018617
X017617
X016617
X015617
X014617
X013617
X026617
Y020691
X027617
Y021691
X028617
Y020691
X029617
X030617
Y021691
X031617
X032617
Y020691
X031617
X029617Y021691
T05
X0018Y0205
X0039
T06
X034035Y018329
X035035
Y019329
X034035
T07
X034535Y0019
X0117
Y021191
X034535
M30
