G04*
G04 #@! TF.GenerationSoftware,Altium Limited,Altium Designer,22.10.1 (41)*
G04*
G04 Layer_Physical_Order=2*
G04 Layer_Color=16711680*
%FSLAX23Y23*%
%MOIN*%
G70*
G04*
G04 #@! TF.SameCoordinates,9DCC93BE-6794-47A7-A240-529396958765*
G04*
G04*
G04 #@! TF.FilePolarity,Positive*
G04*
G01*
G75*
%ADD38C,0.010*%
%ADD43C,0.050*%
%ADD45C,0.005*%
%ADD49C,0.030*%
%ADD50C,0.062*%
%ADD51C,0.060*%
%ADD52C,0.100*%
%ADD53C,0.032*%
%ADD54C,0.050*%
G36*
X3447Y2234D02*
X3465Y2229D01*
X3481Y2220D01*
X3496Y2208D01*
X3508Y2193D01*
X3517Y2177D01*
X3520Y2165D01*
X3516Y2162D01*
X3507Y2173D01*
X3496Y2182D01*
X3482Y2189D01*
X3468Y2194D01*
X3453Y2195D01*
X3439Y2194D01*
X3424Y2189D01*
X3411Y2182D01*
X3400Y2173D01*
X3390Y2161D01*
X3383Y2148D01*
X3379Y2134D01*
X3378Y2119D01*
X3379Y2104D01*
X3383Y2090D01*
X3390Y2077D01*
X3400Y2065D01*
X3411Y2056D01*
X3424Y2049D01*
X3439Y2045D01*
X3453Y2043D01*
X3468Y2045D01*
X3482Y2049D01*
X3496Y2056D01*
X3507Y2065D01*
X3517Y2077D01*
X3519Y2081D01*
X3524Y2080D01*
Y1975D01*
X3519Y1972D01*
X3515Y1974D01*
X3503Y1976D01*
X3492Y1974D01*
X3482Y1970D01*
X3473Y1963D01*
X3466Y1954D01*
X3462Y1944D01*
X3461Y1933D01*
X3462Y1922D01*
X3466Y1911D01*
X3473Y1903D01*
X3482Y1896D01*
X3492Y1892D01*
X3503Y1890D01*
X3515Y1892D01*
X3519Y1894D01*
X3524Y1891D01*
Y1875D01*
X3519Y1872D01*
X3515Y1874D01*
X3503Y1876D01*
X3492Y1874D01*
X3482Y1870D01*
X3473Y1863D01*
X3466Y1854D01*
X3462Y1844D01*
X3461Y1833D01*
X3462Y1822D01*
X3466Y1811D01*
X3473Y1803D01*
X3482Y1796D01*
X3492Y1792D01*
X3503Y1790D01*
X3515Y1792D01*
X3519Y1794D01*
X3524Y1791D01*
Y230D01*
X3519Y228D01*
X3517Y232D01*
X3507Y244D01*
X3496Y253D01*
X3482Y260D01*
X3468Y264D01*
X3453Y266D01*
X3439Y264D01*
X3424Y260D01*
X3411Y253D01*
X3400Y244D01*
X3390Y232D01*
X3383Y219D01*
X3379Y205D01*
X3378Y190D01*
X3379Y175D01*
X3383Y161D01*
X3390Y148D01*
X3400Y136D01*
X3411Y127D01*
X3424Y120D01*
X3439Y116D01*
X3453Y114D01*
X3468Y116D01*
X3482Y120D01*
X3496Y127D01*
X3507Y136D01*
X3517Y148D01*
X3521Y146D01*
X3517Y131D01*
X3508Y115D01*
X3496Y100D01*
X3481Y88D01*
X3465Y79D01*
X3447Y74D01*
X3429Y72D01*
X3428Y72D01*
X164D01*
X163Y72D01*
X145Y74D01*
X127Y79D01*
X111Y88D01*
X96Y100D01*
X84Y115D01*
X75Y131D01*
X70Y149D01*
X68Y167D01*
X68Y168D01*
Y2140D01*
X68Y2141D01*
X70Y2159D01*
X75Y2177D01*
X84Y2193D01*
X96Y2208D01*
X111Y2220D01*
X127Y2229D01*
X145Y2234D01*
X163Y2236D01*
X164Y2236D01*
X3428D01*
X3429Y2236D01*
X3447Y2234D01*
D02*
G37*
%LPC*%
G36*
X3267Y2210D02*
X3256D01*
X3246Y2207D01*
X3237Y2202D01*
X3229Y2194D01*
X3224Y2185D01*
X3221Y2175D01*
Y2164D01*
X3224Y2153D01*
X3229Y2144D01*
X3237Y2136D01*
X3246Y2131D01*
X3256Y2128D01*
X3267D01*
X3278Y2131D01*
X3287Y2136D01*
X3295Y2144D01*
X3300Y2153D01*
X3303Y2164D01*
Y2175D01*
X3300Y2185D01*
X3295Y2194D01*
X3287Y2202D01*
X3278Y2207D01*
X3267Y2210D01*
D02*
G37*
G36*
X3167D02*
X3156D01*
X3146Y2207D01*
X3137Y2202D01*
X3129Y2194D01*
X3124Y2185D01*
X3121Y2175D01*
Y2164D01*
X3124Y2153D01*
X3129Y2144D01*
X3137Y2136D01*
X3146Y2131D01*
X3156Y2128D01*
X3167D01*
X3178Y2131D01*
X3187Y2136D01*
X3195Y2144D01*
X3200Y2153D01*
X3203Y2164D01*
Y2175D01*
X3200Y2185D01*
X3195Y2194D01*
X3187Y2202D01*
X3178Y2207D01*
X3167Y2210D01*
D02*
G37*
G36*
X3067D02*
X3056D01*
X3046Y2207D01*
X3037Y2202D01*
X3029Y2194D01*
X3024Y2185D01*
X3021Y2175D01*
Y2164D01*
X3024Y2153D01*
X3029Y2144D01*
X3037Y2136D01*
X3046Y2131D01*
X3056Y2128D01*
X3067D01*
X3078Y2131D01*
X3087Y2136D01*
X3095Y2144D01*
X3100Y2153D01*
X3103Y2164D01*
Y2175D01*
X3100Y2185D01*
X3095Y2194D01*
X3087Y2202D01*
X3078Y2207D01*
X3067Y2210D01*
D02*
G37*
G36*
X2867D02*
X2856D01*
X2846Y2207D01*
X2837Y2202D01*
X2829Y2194D01*
X2824Y2185D01*
X2821Y2175D01*
Y2164D01*
X2824Y2153D01*
X2829Y2144D01*
X2837Y2136D01*
X2846Y2131D01*
X2856Y2128D01*
X2867D01*
X2878Y2131D01*
X2887Y2136D01*
X2895Y2144D01*
X2900Y2153D01*
X2903Y2164D01*
Y2175D01*
X2900Y2185D01*
X2895Y2194D01*
X2887Y2202D01*
X2878Y2207D01*
X2867Y2210D01*
D02*
G37*
G36*
X2667D02*
X2656D01*
X2646Y2207D01*
X2637Y2202D01*
X2629Y2194D01*
X2624Y2185D01*
X2621Y2175D01*
Y2164D01*
X2624Y2153D01*
X2629Y2144D01*
X2637Y2136D01*
X2646Y2131D01*
X2656Y2128D01*
X2667D01*
X2678Y2131D01*
X2687Y2136D01*
X2695Y2144D01*
X2700Y2153D01*
X2703Y2164D01*
Y2175D01*
X2700Y2185D01*
X2695Y2194D01*
X2687Y2202D01*
X2678Y2207D01*
X2667Y2210D01*
D02*
G37*
G36*
X2567D02*
X2556D01*
X2546Y2207D01*
X2537Y2202D01*
X2529Y2194D01*
X2524Y2185D01*
X2521Y2175D01*
Y2164D01*
X2524Y2153D01*
X2529Y2144D01*
X2537Y2136D01*
X2546Y2131D01*
X2556Y2128D01*
X2567D01*
X2578Y2131D01*
X2587Y2136D01*
X2595Y2144D01*
X2600Y2153D01*
X2603Y2164D01*
Y2175D01*
X2600Y2185D01*
X2595Y2194D01*
X2587Y2202D01*
X2578Y2207D01*
X2567Y2210D01*
D02*
G37*
G36*
X2467D02*
X2456D01*
X2446Y2207D01*
X2437Y2202D01*
X2429Y2194D01*
X2424Y2185D01*
X2421Y2175D01*
Y2164D01*
X2424Y2153D01*
X2429Y2144D01*
X2437Y2136D01*
X2446Y2131D01*
X2456Y2128D01*
X2467D01*
X2478Y2131D01*
X2487Y2136D01*
X2495Y2144D01*
X2500Y2153D01*
X2503Y2164D01*
Y2175D01*
X2500Y2185D01*
X2495Y2194D01*
X2487Y2202D01*
X2478Y2207D01*
X2467Y2210D01*
D02*
G37*
G36*
X2367D02*
X2356D01*
X2346Y2207D01*
X2337Y2202D01*
X2329Y2194D01*
X2324Y2185D01*
X2321Y2175D01*
Y2164D01*
X2324Y2153D01*
X2329Y2144D01*
X2337Y2136D01*
X2346Y2131D01*
X2356Y2128D01*
X2367D01*
X2378Y2131D01*
X2387Y2136D01*
X2395Y2144D01*
X2400Y2153D01*
X2403Y2164D01*
Y2175D01*
X2400Y2185D01*
X2395Y2194D01*
X2387Y2202D01*
X2378Y2207D01*
X2367Y2210D01*
D02*
G37*
G36*
X2167D02*
X2156D01*
X2146Y2207D01*
X2137Y2202D01*
X2129Y2194D01*
X2124Y2185D01*
X2121Y2175D01*
Y2164D01*
X2124Y2153D01*
X2129Y2144D01*
X2137Y2136D01*
X2146Y2131D01*
X2156Y2128D01*
X2167D01*
X2178Y2131D01*
X2187Y2136D01*
X2195Y2144D01*
X2200Y2153D01*
X2203Y2164D01*
Y2175D01*
X2200Y2185D01*
X2195Y2194D01*
X2187Y2202D01*
X2178Y2207D01*
X2167Y2210D01*
D02*
G37*
G36*
X2067D02*
X2056D01*
X2046Y2207D01*
X2037Y2202D01*
X2029Y2194D01*
X2024Y2185D01*
X2021Y2175D01*
Y2164D01*
X2024Y2153D01*
X2029Y2144D01*
X2037Y2136D01*
X2046Y2131D01*
X2056Y2128D01*
X2067D01*
X2078Y2131D01*
X2087Y2136D01*
X2095Y2144D01*
X2100Y2153D01*
X2103Y2164D01*
Y2175D01*
X2100Y2185D01*
X2095Y2194D01*
X2087Y2202D01*
X2078Y2207D01*
X2067Y2210D01*
D02*
G37*
G36*
X1867D02*
X1856D01*
X1846Y2207D01*
X1837Y2202D01*
X1829Y2194D01*
X1824Y2185D01*
X1821Y2175D01*
Y2164D01*
X1824Y2153D01*
X1829Y2144D01*
X1837Y2136D01*
X1846Y2131D01*
X1856Y2128D01*
X1867D01*
X1878Y2131D01*
X1887Y2136D01*
X1895Y2144D01*
X1900Y2153D01*
X1903Y2164D01*
Y2175D01*
X1900Y2185D01*
X1895Y2194D01*
X1887Y2202D01*
X1878Y2207D01*
X1867Y2210D01*
D02*
G37*
G36*
X1767D02*
X1756D01*
X1746Y2207D01*
X1737Y2202D01*
X1729Y2194D01*
X1724Y2185D01*
X1721Y2175D01*
Y2164D01*
X1724Y2153D01*
X1729Y2144D01*
X1737Y2136D01*
X1746Y2131D01*
X1756Y2128D01*
X1767D01*
X1778Y2131D01*
X1787Y2136D01*
X1795Y2144D01*
X1800Y2153D01*
X1803Y2164D01*
Y2175D01*
X1800Y2185D01*
X1795Y2194D01*
X1787Y2202D01*
X1778Y2207D01*
X1767Y2210D01*
D02*
G37*
G36*
X1467D02*
X1456D01*
X1446Y2207D01*
X1437Y2202D01*
X1429Y2194D01*
X1424Y2185D01*
X1421Y2175D01*
Y2164D01*
X1424Y2153D01*
X1429Y2144D01*
X1437Y2136D01*
X1446Y2131D01*
X1456Y2128D01*
X1467D01*
X1478Y2131D01*
X1487Y2136D01*
X1495Y2144D01*
X1500Y2153D01*
X1503Y2164D01*
Y2175D01*
X1500Y2185D01*
X1495Y2194D01*
X1487Y2202D01*
X1478Y2207D01*
X1467Y2210D01*
D02*
G37*
G36*
X1367D02*
X1356D01*
X1346Y2207D01*
X1337Y2202D01*
X1329Y2194D01*
X1324Y2185D01*
X1322Y2179D01*
X1250Y2107D01*
X1245Y2109D01*
X1246Y2119D01*
X1244Y2134D01*
X1240Y2148D01*
X1233Y2161D01*
X1224Y2173D01*
X1212Y2182D01*
X1199Y2189D01*
X1185Y2194D01*
X1170Y2195D01*
X1155Y2194D01*
X1141Y2189D01*
X1128Y2182D01*
X1116Y2173D01*
X1107Y2161D01*
X1100Y2148D01*
X1096Y2134D01*
X1094Y2119D01*
X1096Y2104D01*
X1100Y2090D01*
X1107Y2077D01*
X1116Y2065D01*
X1128Y2056D01*
X1141Y2049D01*
X1155Y2045D01*
X1170Y2043D01*
X1180Y2044D01*
X1183Y2039D01*
X1164Y2021D01*
X1103D01*
X1094Y2020D01*
X1085Y2017D01*
X1078Y2011D01*
X791Y1724D01*
X785Y1717D01*
X782Y1708D01*
X781Y1699D01*
Y1231D01*
X757Y1207D01*
X735D01*
X669Y1273D01*
X667Y1274D01*
X665Y1276D01*
X663Y1277D01*
X662Y1279D01*
X660Y1279D01*
X658Y1281D01*
X655Y1281D01*
X653Y1282D01*
X651Y1282D01*
X649Y1283D01*
X646D01*
X644Y1283D01*
X642Y1283D01*
X639D01*
X637Y1282D01*
X635Y1282D01*
X633Y1281D01*
X630Y1281D01*
X628Y1279D01*
X626Y1279D01*
X625Y1277D01*
X623Y1276D01*
X621Y1274D01*
X619Y1273D01*
X618Y1271D01*
X616Y1269D01*
X615Y1267D01*
X613Y1266D01*
X613Y1264D01*
X611Y1262D01*
X611Y1259D01*
X610Y1257D01*
X610Y1255D01*
X609Y1253D01*
Y1250D01*
X609Y1248D01*
X609Y1246D01*
Y1243D01*
X610Y1241D01*
X610Y1239D01*
X611Y1237D01*
X611Y1234D01*
X613Y1232D01*
X613Y1230D01*
X615Y1229D01*
X616Y1227D01*
X618Y1225D01*
X619Y1223D01*
X695Y1147D01*
X702Y1141D01*
X711Y1138D01*
X720Y1137D01*
X753D01*
X781Y1109D01*
Y944D01*
X782Y935D01*
X785Y926D01*
X791Y919D01*
X1019Y691D01*
X1026Y685D01*
X1035Y682D01*
X1044Y681D01*
X1348D01*
X1350Y681D01*
X1353D01*
X1355Y682D01*
X1357Y682D01*
X1359Y683D01*
X1362Y683D01*
X1364Y685D01*
X1366Y685D01*
X1367Y687D01*
X1369Y688D01*
X1371Y690D01*
X1373Y691D01*
X1374Y693D01*
X1376Y695D01*
X1377Y697D01*
X1379Y698D01*
X1379Y700D01*
X1381Y702D01*
X1381Y705D01*
X1382Y707D01*
X1382Y709D01*
X1383Y711D01*
Y714D01*
X1383Y716D01*
X1383Y718D01*
Y721D01*
X1382Y723D01*
X1382Y725D01*
X1381Y727D01*
X1381Y730D01*
X1379Y732D01*
X1379Y734D01*
X1377Y735D01*
X1376Y737D01*
X1374Y739D01*
X1373Y741D01*
X1371Y742D01*
X1369Y744D01*
X1367Y745D01*
X1366Y747D01*
X1364Y747D01*
X1362Y749D01*
X1359Y749D01*
X1357Y750D01*
X1355Y750D01*
X1353Y751D01*
X1350D01*
X1348Y751D01*
X1059D01*
X851Y959D01*
Y1109D01*
X879Y1137D01*
X2400D01*
X2409Y1138D01*
X2418Y1141D01*
X2425Y1147D01*
X2429Y1151D01*
X2430Y1153D01*
X2432Y1155D01*
X2433Y1157D01*
X2435Y1158D01*
X2435Y1160D01*
X2437Y1162D01*
X2437Y1165D01*
X2438Y1167D01*
X2438Y1169D01*
X2439Y1171D01*
Y1174D01*
X2439Y1176D01*
X2439Y1176D01*
Y1645D01*
X2623Y1829D01*
X2676D01*
X2678Y1829D01*
X2681D01*
X2683Y1830D01*
X2685Y1830D01*
X2687Y1831D01*
X2690Y1831D01*
X2692Y1833D01*
X2694Y1833D01*
X2695Y1835D01*
X2697Y1836D01*
X2699Y1838D01*
X2701Y1839D01*
X2702Y1841D01*
X2704Y1843D01*
X2705Y1845D01*
X2707Y1846D01*
X2707Y1848D01*
X2709Y1850D01*
X2709Y1853D01*
X2710Y1855D01*
X2710Y1857D01*
X2711Y1859D01*
Y1862D01*
X2711Y1864D01*
X2711Y1866D01*
Y1869D01*
X2710Y1871D01*
X2710Y1873D01*
X2709Y1875D01*
X2709Y1878D01*
X2707Y1880D01*
X2707Y1882D01*
X2705Y1883D01*
X2704Y1885D01*
X2702Y1887D01*
X2701Y1889D01*
X2699Y1890D01*
X2697Y1892D01*
X2695Y1893D01*
X2694Y1895D01*
X2692Y1895D01*
X2690Y1897D01*
X2687Y1897D01*
X2685Y1898D01*
X2683Y1898D01*
X2681Y1899D01*
X2678D01*
X2676Y1899D01*
X2608D01*
X2599Y1898D01*
X2590Y1895D01*
X2583Y1889D01*
X2379Y1685D01*
X2373Y1678D01*
X2370Y1669D01*
X2369Y1660D01*
Y1231D01*
X2345Y1207D01*
X875D01*
X851Y1231D01*
Y1685D01*
X1117Y1951D01*
X1179D01*
X1188Y1952D01*
X1197Y1955D01*
X1204Y1961D01*
X1316Y2073D01*
X1321Y2071D01*
Y2064D01*
X1324Y2053D01*
X1329Y2044D01*
X1337Y2036D01*
X1346Y2031D01*
X1356Y2028D01*
X1367D01*
X1378Y2031D01*
X1387Y2036D01*
X1395Y2044D01*
X1400Y2053D01*
X1403Y2064D01*
Y2075D01*
X1400Y2085D01*
X1395Y2094D01*
X1387Y2102D01*
X1378Y2107D01*
X1367Y2110D01*
X1360D01*
X1358Y2115D01*
X1372Y2130D01*
X1378Y2131D01*
X1387Y2136D01*
X1395Y2144D01*
X1400Y2153D01*
X1403Y2164D01*
Y2175D01*
X1400Y2185D01*
X1395Y2194D01*
X1387Y2202D01*
X1378Y2207D01*
X1367Y2210D01*
D02*
G37*
G36*
X1667D02*
X1656D01*
X1646Y2207D01*
X1637Y2202D01*
X1629Y2194D01*
X1624Y2185D01*
X1621Y2175D01*
Y2164D01*
X1624Y2153D01*
X1629Y2144D01*
X1637Y2136D01*
X1646Y2131D01*
X1656Y2128D01*
X1667D01*
X1678Y2131D01*
X1678Y2131D01*
X1693Y2117D01*
Y2103D01*
X1688Y2101D01*
X1687Y2102D01*
X1678Y2107D01*
X1667Y2110D01*
X1656D01*
X1646Y2107D01*
X1637Y2102D01*
X1629Y2094D01*
X1624Y2085D01*
X1621Y2075D01*
Y2064D01*
X1624Y2053D01*
X1629Y2044D01*
X1637Y2036D01*
X1641Y2034D01*
Y2019D01*
X1396Y1773D01*
X1389Y1775D01*
X1379D01*
X1370Y1773D01*
X1363Y1768D01*
X1356Y1761D01*
X1351Y1754D01*
X1349Y1745D01*
Y1735D01*
X1351Y1726D01*
X1356Y1719D01*
X1363Y1712D01*
X1370Y1707D01*
X1379Y1705D01*
X1389D01*
X1398Y1707D01*
X1405Y1712D01*
X1412Y1719D01*
X1417Y1726D01*
X1419Y1735D01*
Y1745D01*
X1417Y1752D01*
X1667Y2001D01*
X1670Y2006D01*
X1672Y2012D01*
Y2029D01*
X1678Y2031D01*
X1687Y2036D01*
X1688Y2038D01*
X1693Y2036D01*
Y1994D01*
X1529Y1831D01*
X1526Y1826D01*
X1525Y1820D01*
Y1800D01*
X1519Y1796D01*
X1512Y1789D01*
X1507Y1782D01*
X1505Y1773D01*
Y1763D01*
X1507Y1754D01*
X1512Y1747D01*
X1519Y1740D01*
X1526Y1735D01*
X1535Y1733D01*
X1545D01*
X1554Y1735D01*
X1561Y1740D01*
X1568Y1747D01*
X1573Y1754D01*
X1575Y1763D01*
Y1773D01*
X1573Y1782D01*
X1568Y1789D01*
X1561Y1796D01*
X1555Y1800D01*
Y1814D01*
X1719Y1977D01*
X1722Y1982D01*
X1723Y1988D01*
Y2123D01*
X1722Y2129D01*
X1719Y2134D01*
X1700Y2153D01*
X1700Y2153D01*
X1703Y2164D01*
Y2175D01*
X1700Y2185D01*
X1695Y2194D01*
X1687Y2202D01*
X1678Y2207D01*
X1667Y2210D01*
D02*
G37*
G36*
X3167Y2110D02*
X3156D01*
X3146Y2107D01*
X3137Y2102D01*
X3129Y2094D01*
X3124Y2085D01*
X3121Y2075D01*
Y2064D01*
X3124Y2053D01*
X3129Y2044D01*
X3137Y2036D01*
X3146Y2031D01*
X3156Y2028D01*
X3167D01*
X3178Y2031D01*
X3187Y2036D01*
X3195Y2044D01*
X3200Y2053D01*
X3203Y2064D01*
Y2075D01*
X3200Y2085D01*
X3195Y2094D01*
X3187Y2102D01*
X3178Y2107D01*
X3167Y2110D01*
D02*
G37*
G36*
X3067D02*
X3056D01*
X3046Y2107D01*
X3037Y2102D01*
X3029Y2094D01*
X3024Y2085D01*
X3021Y2075D01*
Y2064D01*
X3024Y2053D01*
X3029Y2044D01*
X3037Y2036D01*
X3046Y2031D01*
X3056Y2028D01*
X3067D01*
X3078Y2031D01*
X3087Y2036D01*
X3095Y2044D01*
X3100Y2053D01*
X3103Y2064D01*
Y2075D01*
X3100Y2085D01*
X3095Y2094D01*
X3087Y2102D01*
X3078Y2107D01*
X3067Y2110D01*
D02*
G37*
G36*
X2967D02*
X2956D01*
X2946Y2107D01*
X2937Y2102D01*
X2929Y2094D01*
X2924Y2085D01*
X2921Y2075D01*
Y2064D01*
X2924Y2053D01*
X2929Y2044D01*
X2937Y2036D01*
X2946Y2031D01*
X2956Y2028D01*
X2967D01*
X2978Y2031D01*
X2987Y2036D01*
X2995Y2044D01*
X3000Y2053D01*
X3003Y2064D01*
Y2075D01*
X3000Y2085D01*
X2995Y2094D01*
X2987Y2102D01*
X2978Y2107D01*
X2967Y2110D01*
D02*
G37*
G36*
X2867D02*
X2856D01*
X2846Y2107D01*
X2837Y2102D01*
X2829Y2094D01*
X2824Y2085D01*
X2821Y2075D01*
Y2064D01*
X2824Y2053D01*
X2829Y2044D01*
X2837Y2036D01*
X2846Y2031D01*
X2856Y2028D01*
X2867D01*
X2878Y2031D01*
X2887Y2036D01*
X2895Y2044D01*
X2900Y2053D01*
X2903Y2064D01*
Y2075D01*
X2900Y2085D01*
X2895Y2094D01*
X2887Y2102D01*
X2878Y2107D01*
X2867Y2110D01*
D02*
G37*
G36*
X2767D02*
X2756D01*
X2746Y2107D01*
X2737Y2102D01*
X2729Y2094D01*
X2724Y2085D01*
X2721Y2075D01*
Y2064D01*
X2724Y2053D01*
X2729Y2044D01*
X2737Y2036D01*
X2746Y2031D01*
X2756Y2028D01*
X2767D01*
X2778Y2031D01*
X2787Y2036D01*
X2795Y2044D01*
X2800Y2053D01*
X2803Y2064D01*
Y2075D01*
X2800Y2085D01*
X2795Y2094D01*
X2787Y2102D01*
X2778Y2107D01*
X2767Y2110D01*
D02*
G37*
G36*
X2667D02*
X2656D01*
X2646Y2107D01*
X2637Y2102D01*
X2629Y2094D01*
X2624Y2085D01*
X2621Y2075D01*
Y2064D01*
X2624Y2053D01*
X2629Y2044D01*
X2637Y2036D01*
X2646Y2031D01*
X2656Y2028D01*
X2667D01*
X2678Y2031D01*
X2687Y2036D01*
X2695Y2044D01*
X2700Y2053D01*
X2703Y2064D01*
Y2075D01*
X2700Y2085D01*
X2695Y2094D01*
X2687Y2102D01*
X2678Y2107D01*
X2667Y2110D01*
D02*
G37*
G36*
X2467D02*
X2456D01*
X2446Y2107D01*
X2437Y2102D01*
X2429Y2094D01*
X2424Y2085D01*
X2421Y2075D01*
Y2064D01*
X2424Y2053D01*
X2429Y2044D01*
X2437Y2036D01*
X2446Y2031D01*
X2456Y2028D01*
X2467D01*
X2478Y2031D01*
X2487Y2036D01*
X2495Y2044D01*
X2500Y2053D01*
X2503Y2064D01*
Y2075D01*
X2500Y2085D01*
X2495Y2094D01*
X2487Y2102D01*
X2478Y2107D01*
X2467Y2110D01*
D02*
G37*
G36*
X2367D02*
X2356D01*
X2346Y2107D01*
X2337Y2102D01*
X2329Y2094D01*
X2324Y2085D01*
X2321Y2075D01*
Y2064D01*
X2324Y2053D01*
X2329Y2044D01*
X2337Y2036D01*
X2346Y2031D01*
X2356Y2028D01*
X2367D01*
X2378Y2031D01*
X2387Y2036D01*
X2395Y2044D01*
X2400Y2053D01*
X2403Y2064D01*
Y2075D01*
X2400Y2085D01*
X2395Y2094D01*
X2387Y2102D01*
X2378Y2107D01*
X2367Y2110D01*
D02*
G37*
G36*
X2267D02*
X2256D01*
X2246Y2107D01*
X2237Y2102D01*
X2229Y2094D01*
X2224Y2085D01*
X2221Y2075D01*
Y2064D01*
X2224Y2053D01*
X2229Y2044D01*
X2237Y2036D01*
X2246Y2031D01*
X2256Y2028D01*
X2267D01*
X2278Y2031D01*
X2287Y2036D01*
X2295Y2044D01*
X2300Y2053D01*
X2303Y2064D01*
Y2075D01*
X2300Y2085D01*
X2295Y2094D01*
X2287Y2102D01*
X2278Y2107D01*
X2267Y2110D01*
D02*
G37*
G36*
X2167D02*
X2156D01*
X2146Y2107D01*
X2137Y2102D01*
X2129Y2094D01*
X2124Y2085D01*
X2121Y2075D01*
Y2064D01*
X2124Y2053D01*
X2129Y2044D01*
X2137Y2036D01*
X2146Y2031D01*
X2156Y2028D01*
X2167D01*
X2178Y2031D01*
X2187Y2036D01*
X2195Y2044D01*
X2200Y2053D01*
X2203Y2064D01*
Y2075D01*
X2200Y2085D01*
X2195Y2094D01*
X2187Y2102D01*
X2178Y2107D01*
X2167Y2110D01*
D02*
G37*
G36*
X1567D02*
X1556D01*
X1546Y2107D01*
X1537Y2102D01*
X1529Y2094D01*
X1524Y2085D01*
X1521Y2075D01*
Y2064D01*
X1524Y2053D01*
X1529Y2044D01*
X1537Y2036D01*
X1546Y2031D01*
X1556Y2028D01*
X1567D01*
X1578Y2031D01*
X1587Y2036D01*
X1595Y2044D01*
X1600Y2053D01*
X1603Y2064D01*
Y2075D01*
X1600Y2085D01*
X1595Y2094D01*
X1587Y2102D01*
X1578Y2107D01*
X1567Y2110D01*
D02*
G37*
G36*
X1467D02*
X1456D01*
X1446Y2107D01*
X1437Y2102D01*
X1429Y2094D01*
X1424Y2085D01*
X1421Y2075D01*
Y2064D01*
X1424Y2053D01*
X1429Y2044D01*
X1437Y2036D01*
X1446Y2031D01*
X1456Y2028D01*
X1467D01*
X1478Y2031D01*
X1487Y2036D01*
X1495Y2044D01*
X1500Y2053D01*
X1503Y2064D01*
Y2075D01*
X1500Y2085D01*
X1495Y2094D01*
X1487Y2102D01*
X1478Y2107D01*
X1467Y2110D01*
D02*
G37*
G36*
X396Y2110D02*
X384D01*
X372Y2108D01*
X362Y2103D01*
X352Y2097D01*
X343Y2088D01*
X337Y2078D01*
X332Y2068D01*
X330Y2056D01*
Y2044D01*
X332Y2032D01*
X337Y2022D01*
X343Y2012D01*
X352Y2003D01*
X362Y1997D01*
X372Y1992D01*
X384Y1990D01*
X396D01*
X408Y1992D01*
X418Y1997D01*
X428Y2003D01*
X437Y2012D01*
X443Y2022D01*
X448Y2032D01*
X450Y2044D01*
Y2056D01*
X448Y2068D01*
X443Y2078D01*
X437Y2088D01*
X428Y2097D01*
X418Y2103D01*
X408Y2108D01*
X396Y2110D01*
D02*
G37*
G36*
X2545Y2011D02*
X2535D01*
X2524Y2008D01*
X2515Y2003D01*
X2507Y1995D01*
X2502Y1986D01*
X2499Y1975D01*
Y1965D01*
X2502Y1954D01*
X2507Y1945D01*
X2515Y1937D01*
X2524Y1932D01*
X2535Y1929D01*
X2545D01*
X2556Y1932D01*
X2565Y1937D01*
X2573Y1945D01*
X2578Y1954D01*
X2581Y1965D01*
Y1975D01*
X2578Y1986D01*
X2573Y1995D01*
X2565Y2003D01*
X2556Y2008D01*
X2545Y2011D01*
D02*
G37*
G36*
X2405D02*
X2395D01*
X2384Y2008D01*
X2375Y2003D01*
X2367Y1995D01*
X2362Y1986D01*
X2359Y1975D01*
Y1965D01*
X2362Y1954D01*
X2367Y1945D01*
X2375Y1937D01*
X2384Y1932D01*
X2395Y1929D01*
X2405D01*
X2416Y1932D01*
X2425Y1937D01*
X2433Y1945D01*
X2438Y1954D01*
X2441Y1965D01*
Y1975D01*
X2438Y1986D01*
X2433Y1995D01*
X2425Y2003D01*
X2416Y2008D01*
X2405Y2011D01*
D02*
G37*
G36*
X3403Y1976D02*
X3392Y1974D01*
X3382Y1970D01*
X3373Y1963D01*
X3366Y1954D01*
X3362Y1944D01*
X3361Y1933D01*
X3362Y1922D01*
X3366Y1911D01*
X3373Y1903D01*
X3382Y1896D01*
X3392Y1892D01*
X3403Y1890D01*
X3415Y1892D01*
X3425Y1896D01*
X3434Y1903D01*
X3441Y1911D01*
X3445Y1922D01*
X3446Y1933D01*
X3445Y1944D01*
X3441Y1954D01*
X3434Y1963D01*
X3425Y1970D01*
X3415Y1974D01*
X3403Y1976D01*
D02*
G37*
G36*
X1275Y1961D02*
X1265D01*
X1254Y1958D01*
X1245Y1953D01*
X1237Y1945D01*
X1232Y1936D01*
X1229Y1925D01*
Y1915D01*
X1232Y1904D01*
X1237Y1895D01*
X1245Y1887D01*
X1254Y1882D01*
X1265Y1879D01*
X1275D01*
X1286Y1882D01*
X1295Y1887D01*
X1303Y1895D01*
X1308Y1904D01*
X1311Y1915D01*
Y1925D01*
X1308Y1936D01*
X1303Y1945D01*
X1295Y1953D01*
X1286Y1958D01*
X1275Y1961D01*
D02*
G37*
G36*
X3403Y1876D02*
X3392Y1874D01*
X3382Y1870D01*
X3373Y1863D01*
X3366Y1854D01*
X3362Y1844D01*
X3361Y1833D01*
X3362Y1822D01*
X3366Y1811D01*
X3373Y1803D01*
X3382Y1796D01*
X3392Y1792D01*
X3403Y1790D01*
X3415Y1792D01*
X3425Y1796D01*
X3434Y1803D01*
X3441Y1811D01*
X3445Y1822D01*
X3446Y1833D01*
X3445Y1844D01*
X3441Y1854D01*
X3434Y1863D01*
X3425Y1870D01*
X3415Y1874D01*
X3403Y1876D01*
D02*
G37*
G36*
X2067Y2110D02*
X2056D01*
X2046Y2107D01*
X2037Y2102D01*
X2029Y2094D01*
X2024Y2085D01*
X2021Y2075D01*
Y2064D01*
X2024Y2053D01*
X2029Y2044D01*
X2037Y2036D01*
X2046Y2031D01*
Y1787D01*
X2039Y1783D01*
X2032Y1776D01*
X2027Y1769D01*
X2025Y1760D01*
Y1750D01*
X2027Y1741D01*
X2032Y1734D01*
X2039Y1727D01*
X2046Y1722D01*
X2055Y1720D01*
X2065D01*
X2074Y1722D01*
X2081Y1727D01*
X2088Y1734D01*
X2093Y1741D01*
X2095Y1750D01*
Y1760D01*
X2093Y1769D01*
X2088Y1776D01*
X2081Y1783D01*
X2076Y1786D01*
Y2031D01*
X2078Y2031D01*
X2087Y2036D01*
X2095Y2044D01*
X2100Y2053D01*
X2103Y2064D01*
Y2075D01*
X2100Y2085D01*
X2095Y2094D01*
X2087Y2102D01*
X2078Y2107D01*
X2067Y2110D01*
D02*
G37*
G36*
X1867D02*
X1856D01*
X1846Y2107D01*
X1837Y2102D01*
X1829Y2094D01*
X1824Y2085D01*
X1821Y2075D01*
Y2064D01*
X1824Y2053D01*
X1829Y2044D01*
X1837Y2036D01*
X1846Y2031D01*
X1846Y2031D01*
Y1988D01*
X1466Y1608D01*
X1466Y1608D01*
X1455Y1611D01*
X1445D01*
X1434Y1608D01*
X1425Y1603D01*
X1417Y1595D01*
X1412Y1586D01*
X1409Y1575D01*
Y1565D01*
X1412Y1554D01*
X1417Y1545D01*
X1425Y1537D01*
X1434Y1532D01*
X1445Y1529D01*
X1455D01*
X1466Y1532D01*
X1475Y1537D01*
X1483Y1545D01*
X1488Y1554D01*
X1491Y1565D01*
Y1575D01*
X1488Y1586D01*
X1488Y1586D01*
X1873Y1971D01*
X1876Y1976D01*
X1877Y1982D01*
Y2031D01*
X1878Y2031D01*
X1887Y2036D01*
X1895Y2044D01*
X1900Y2053D01*
X1903Y2064D01*
Y2075D01*
X1900Y2085D01*
X1895Y2094D01*
X1887Y2102D01*
X1878Y2107D01*
X1867Y2110D01*
D02*
G37*
G36*
X1315Y1611D02*
X1305D01*
X1294Y1608D01*
X1285Y1603D01*
X1277Y1595D01*
X1272Y1586D01*
X1269Y1575D01*
Y1565D01*
X1272Y1554D01*
X1277Y1545D01*
X1285Y1537D01*
X1294Y1532D01*
X1305Y1529D01*
X1315D01*
X1326Y1532D01*
X1335Y1537D01*
X1343Y1545D01*
X1348Y1554D01*
X1351Y1565D01*
Y1575D01*
X1348Y1586D01*
X1343Y1595D01*
X1335Y1603D01*
X1326Y1608D01*
X1315Y1611D01*
D02*
G37*
G36*
X1967Y2110D02*
X1956D01*
X1946Y2107D01*
X1937Y2102D01*
X1929Y2094D01*
X1924Y2085D01*
X1921Y2075D01*
Y2064D01*
X1924Y2053D01*
X1929Y2044D01*
X1937Y2036D01*
X1946Y2031D01*
X1946Y2031D01*
Y1833D01*
X1466Y1353D01*
X1466Y1353D01*
X1455Y1356D01*
X1445D01*
X1434Y1353D01*
X1425Y1348D01*
X1417Y1340D01*
X1412Y1331D01*
X1409Y1320D01*
Y1310D01*
X1412Y1299D01*
X1417Y1290D01*
X1425Y1282D01*
X1434Y1277D01*
X1445Y1274D01*
X1455D01*
X1466Y1277D01*
X1475Y1282D01*
X1483Y1290D01*
X1488Y1299D01*
X1491Y1310D01*
Y1320D01*
X1488Y1331D01*
X1488Y1331D01*
X1973Y1816D01*
X1976Y1821D01*
X1977Y1827D01*
Y2031D01*
X1978Y2031D01*
X1987Y2036D01*
X1995Y2044D01*
X2000Y2053D01*
X2003Y2064D01*
Y2075D01*
X2000Y2085D01*
X1995Y2094D01*
X1987Y2102D01*
X1978Y2107D01*
X1967Y2110D01*
D02*
G37*
G36*
X1315Y1356D02*
X1305D01*
X1294Y1353D01*
X1285Y1348D01*
X1277Y1340D01*
X1272Y1331D01*
X1269Y1320D01*
Y1310D01*
X1272Y1299D01*
X1277Y1290D01*
X1285Y1282D01*
X1294Y1277D01*
X1305Y1274D01*
X1315D01*
X1326Y1277D01*
X1335Y1282D01*
X1343Y1290D01*
X1348Y1299D01*
X1351Y1310D01*
Y1320D01*
X1348Y1331D01*
X1343Y1340D01*
X1335Y1348D01*
X1326Y1353D01*
X1315Y1356D01*
D02*
G37*
G36*
X484Y1210D02*
X478D01*
X471Y1208D01*
X465Y1205D01*
X460Y1200D01*
X458Y1197D01*
X420D01*
X418Y1200D01*
X413Y1205D01*
X407Y1208D01*
X400Y1210D01*
X394D01*
X387Y1208D01*
X381Y1205D01*
X376Y1200D01*
X373Y1194D01*
X371Y1187D01*
Y1181D01*
X373Y1174D01*
X376Y1168D01*
X381Y1163D01*
X387Y1160D01*
X394Y1158D01*
X400D01*
X407Y1160D01*
X413Y1163D01*
X418Y1168D01*
X420Y1171D01*
X458D01*
X460Y1168D01*
X465Y1163D01*
X471Y1160D01*
X478Y1158D01*
X484D01*
X491Y1160D01*
X497Y1163D01*
X502Y1168D01*
X505Y1174D01*
X507Y1181D01*
Y1187D01*
X505Y1194D01*
X502Y1200D01*
X497Y1205D01*
X491Y1208D01*
X484Y1210D01*
D02*
G37*
G36*
X215Y1121D02*
X205D01*
X194Y1118D01*
X185Y1113D01*
X177Y1105D01*
X172Y1096D01*
X169Y1085D01*
Y1075D01*
X172Y1064D01*
X177Y1055D01*
X185Y1047D01*
X194Y1042D01*
X205Y1039D01*
X215D01*
X226Y1042D01*
X235Y1047D01*
X243Y1055D01*
X248Y1064D01*
X251Y1075D01*
Y1085D01*
X248Y1096D01*
X243Y1105D01*
X235Y1113D01*
X226Y1118D01*
X215Y1121D01*
D02*
G37*
G36*
Y981D02*
X205D01*
X194Y978D01*
X185Y973D01*
X177Y965D01*
X172Y956D01*
X169Y945D01*
Y935D01*
X172Y924D01*
X177Y915D01*
X185Y907D01*
X194Y902D01*
X205Y899D01*
X215D01*
X226Y902D01*
X235Y907D01*
X243Y915D01*
X248Y924D01*
X251Y935D01*
Y945D01*
X248Y956D01*
X243Y965D01*
X235Y973D01*
X226Y978D01*
X215Y981D01*
D02*
G37*
G36*
X2525Y966D02*
X2515D01*
X2504Y963D01*
X2495Y958D01*
X2487Y950D01*
X2482Y941D01*
X2479Y930D01*
Y920D01*
X2482Y909D01*
X2487Y900D01*
X2495Y892D01*
X2504Y887D01*
X2515Y884D01*
X2525D01*
X2536Y887D01*
X2545Y892D01*
X2553Y900D01*
X2558Y909D01*
X2561Y920D01*
Y930D01*
X2558Y941D01*
X2553Y950D01*
X2545Y958D01*
X2536Y963D01*
X2525Y966D01*
D02*
G37*
G36*
X2385D02*
X2375D01*
X2364Y963D01*
X2355Y958D01*
X2347Y950D01*
X2342Y941D01*
X2339Y930D01*
Y920D01*
X2342Y909D01*
X2347Y900D01*
X2355Y892D01*
X2364Y887D01*
X2375Y884D01*
X2385D01*
X2396Y887D01*
X2405Y892D01*
X2413Y900D01*
X2418Y909D01*
X2421Y920D01*
Y930D01*
X2418Y941D01*
X2413Y950D01*
X2405Y958D01*
X2396Y963D01*
X2385Y966D01*
D02*
G37*
G36*
X1460Y901D02*
X1450D01*
X1439Y898D01*
X1430Y893D01*
X1422Y885D01*
X1417Y876D01*
X1414Y865D01*
Y855D01*
X1417Y844D01*
X1422Y835D01*
X1430Y827D01*
X1439Y822D01*
X1450Y819D01*
X1460D01*
X1471Y822D01*
X1480Y827D01*
X1488Y835D01*
X1493Y844D01*
X1496Y855D01*
Y865D01*
X1493Y876D01*
X1488Y885D01*
X1480Y893D01*
X1471Y898D01*
X1460Y901D01*
D02*
G37*
G36*
X1320D02*
X1310D01*
X1299Y898D01*
X1290Y893D01*
X1282Y885D01*
X1277Y876D01*
X1274Y865D01*
Y855D01*
X1277Y844D01*
X1282Y835D01*
X1290Y827D01*
X1299Y822D01*
X1310Y819D01*
X1320D01*
X1331Y822D01*
X1340Y827D01*
X1348Y835D01*
X1353Y844D01*
X1356Y855D01*
Y865D01*
X1353Y876D01*
X1348Y885D01*
X1340Y893D01*
X1331Y898D01*
X1320Y901D01*
D02*
G37*
G36*
X1460Y486D02*
X1450D01*
X1439Y483D01*
X1430Y478D01*
X1422Y470D01*
X1417Y461D01*
X1414Y450D01*
Y440D01*
X1417Y429D01*
X1422Y420D01*
X1430Y412D01*
X1439Y407D01*
X1450Y404D01*
X1460D01*
X1471Y407D01*
X1480Y412D01*
X1488Y420D01*
X1493Y429D01*
X1496Y440D01*
Y450D01*
X1493Y461D01*
X1488Y470D01*
X1480Y478D01*
X1471Y483D01*
X1460Y486D01*
D02*
G37*
G36*
X1320D02*
X1310D01*
X1299Y483D01*
X1290Y478D01*
X1282Y470D01*
X1277Y461D01*
X1274Y450D01*
Y440D01*
X1277Y429D01*
X1282Y420D01*
X1290Y412D01*
X1299Y407D01*
X1310Y404D01*
X1320D01*
X1331Y407D01*
X1340Y412D01*
X1348Y420D01*
X1353Y429D01*
X1356Y440D01*
Y450D01*
X1353Y461D01*
X1348Y470D01*
X1340Y478D01*
X1331Y483D01*
X1320Y486D01*
D02*
G37*
G36*
X1170Y266D02*
X1155Y264D01*
X1141Y260D01*
X1128Y253D01*
X1116Y244D01*
X1107Y232D01*
X1100Y219D01*
X1096Y205D01*
X1094Y190D01*
X1096Y175D01*
X1100Y161D01*
X1107Y148D01*
X1116Y136D01*
X1128Y127D01*
X1141Y120D01*
X1155Y116D01*
X1170Y114D01*
X1185Y116D01*
X1199Y120D01*
X1212Y127D01*
X1224Y136D01*
X1233Y148D01*
X1240Y161D01*
X1244Y175D01*
X1246Y190D01*
X1244Y205D01*
X1240Y219D01*
X1233Y232D01*
X1224Y244D01*
X1212Y253D01*
X1199Y260D01*
X1185Y264D01*
X1170Y266D01*
D02*
G37*
%LPD*%
G36*
X2392Y1192D02*
X2344D01*
X2392Y1240D01*
Y1192D01*
D02*
G37*
G36*
X800Y1188D02*
X752D01*
X800Y1236D01*
Y1188D01*
D02*
G37*
G36*
X884Y1184D02*
X836D01*
Y1232D01*
X884Y1184D01*
D02*
G37*
G36*
X832Y1104D02*
Y1152D01*
X880D01*
X832Y1104D01*
D02*
G37*
G36*
X800D02*
X752Y1152D01*
X800D01*
Y1104D01*
D02*
G37*
D38*
X1662Y2169D02*
X1708Y2123D01*
Y1988D02*
Y2123D01*
X1540Y1820D02*
X1708Y1988D01*
X1540Y1768D02*
Y1820D01*
X1384Y1740D02*
X1656Y2012D01*
Y2064D01*
X1450Y1570D02*
X1862Y1982D01*
Y2069D01*
X1656Y2064D02*
X1662Y2069D01*
X1962Y1827D02*
Y2069D01*
X1450Y1315D02*
X1962Y1827D01*
X2061Y1756D02*
Y2068D01*
X2062Y2069D01*
X2060Y1755D02*
X2061Y1756D01*
D43*
X816Y1172D02*
X2400D01*
X2404Y1176D01*
X816Y1699D02*
X1103Y1986D01*
X1179D01*
X1362Y2169D01*
Y2169D01*
X816Y1172D02*
Y1699D01*
X2404Y1660D02*
X2608Y1864D01*
X2676D01*
X2404Y1176D02*
Y1660D01*
X1044Y716D02*
X1348D01*
X816Y944D02*
X1044Y716D01*
X720Y1172D02*
X816D01*
Y944D02*
Y1172D01*
X644Y1248D02*
X720Y1172D01*
D45*
X397Y1184D02*
X481D01*
D49*
X3403Y1833D02*
D03*
X3503D02*
D03*
Y1933D02*
D03*
X3403D02*
D03*
D50*
X1310Y1315D02*
D03*
X1450D02*
D03*
X1310Y1570D02*
D03*
X1450D02*
D03*
X1315Y860D02*
D03*
X1455D02*
D03*
X1315Y445D02*
D03*
X1455D02*
D03*
X2380Y925D02*
D03*
X2520D02*
D03*
X2262Y2069D02*
D03*
X2362D02*
D03*
X2462D02*
D03*
X2562Y2169D02*
D03*
X3062Y2069D02*
D03*
Y2169D02*
D03*
X3162D02*
D03*
X3262D02*
D03*
X210Y940D02*
D03*
Y1080D02*
D03*
X1362Y2069D02*
D03*
X1462D02*
D03*
X1562D02*
D03*
X1662D02*
D03*
X1762D02*
D03*
X1862D02*
D03*
X1962D02*
D03*
X2062D02*
D03*
X2162D02*
D03*
X2562D02*
D03*
X2662D02*
D03*
X2762D02*
D03*
X2862D02*
D03*
X2962D02*
D03*
X3162D02*
D03*
X3262D02*
D03*
X1362Y2169D02*
D03*
X1462D02*
D03*
X1562D02*
D03*
X1662D02*
D03*
X1762D02*
D03*
X1862D02*
D03*
X1962D02*
D03*
X2062D02*
D03*
X2162D02*
D03*
X2262D02*
D03*
X2362D02*
D03*
X2462D02*
D03*
X2662D02*
D03*
X2762D02*
D03*
X2862D02*
D03*
X2962D02*
D03*
X2540Y1970D02*
D03*
X2400D02*
D03*
X1270Y1920D02*
D03*
X1130D02*
D03*
D51*
X1170Y190D02*
D03*
Y2119D02*
D03*
X3453D02*
D03*
Y190D02*
D03*
D52*
X390Y2050D02*
D03*
X180D02*
D03*
D53*
X3345Y1650D02*
D03*
X3195Y1350D02*
D03*
X3345Y1050D02*
D03*
X3195Y750D02*
D03*
X3345Y450D02*
D03*
X3195Y150D02*
D03*
X2895Y1350D02*
D03*
X3045Y1050D02*
D03*
X2895Y750D02*
D03*
X3045Y450D02*
D03*
X2895Y150D02*
D03*
X2595Y1950D02*
D03*
X2745Y1650D02*
D03*
X2595Y1350D02*
D03*
X2745Y1050D02*
D03*
X2595Y750D02*
D03*
X2745Y450D02*
D03*
X2595Y150D02*
D03*
X2295Y1350D02*
D03*
Y750D02*
D03*
X2445Y450D02*
D03*
X2295Y150D02*
D03*
X1995Y1950D02*
D03*
X2145Y1650D02*
D03*
X1995Y1350D02*
D03*
X2145Y1050D02*
D03*
X1995Y750D02*
D03*
X2145Y450D02*
D03*
X1995Y150D02*
D03*
X1845Y1650D02*
D03*
X1695Y1350D02*
D03*
X1845Y1050D02*
D03*
X1695Y750D02*
D03*
X1845Y450D02*
D03*
X1695Y150D02*
D03*
X1545Y1050D02*
D03*
Y450D02*
D03*
X1395Y150D02*
D03*
X1245Y1650D02*
D03*
X945D02*
D03*
Y1050D02*
D03*
X795Y750D02*
D03*
X945Y450D02*
D03*
X795Y150D02*
D03*
X645Y1650D02*
D03*
Y1050D02*
D03*
X495Y750D02*
D03*
X645Y450D02*
D03*
X495Y150D02*
D03*
X195Y1950D02*
D03*
Y750D02*
D03*
X345Y450D02*
D03*
X195Y150D02*
D03*
X481Y1184D02*
D03*
X397D02*
D03*
D54*
X1352Y1172D02*
D03*
X756Y1565D02*
D03*
Y1508D02*
D03*
X476Y1244D02*
D03*
X2676Y1864D02*
D03*
X2404Y1176D02*
D03*
X1540Y1768D02*
D03*
X1348Y716D02*
D03*
X644Y1248D02*
D03*
X1384Y1740D02*
D03*
X143Y1250D02*
D03*
Y1192D02*
D03*
Y1308D02*
D03*
X200D02*
D03*
Y1192D02*
D03*
Y1250D02*
D03*
X706Y1508D02*
D03*
X648D02*
D03*
Y1565D02*
D03*
X706D02*
D03*
X2060Y1755D02*
D03*
M02*
