G04*
G04 #@! TF.GenerationSoftware,Altium Limited,Altium Designer,23.1.1 (15)*
G04*
G04 Layer_Physical_Order=1*
G04 Layer_Color=255*
%FSLAX24Y24*%
%MOIN*%
G70*
G04*
G04 #@! TF.SameCoordinates,385EC99C-E85F-452A-9B23-167F912ADACD*
G04*
G04*
G04 #@! TF.FilePolarity,Positive*
G04*
G01*
G75*
%ADD13R,0.0866X0.1240*%
%ADD14R,0.0500X0.0500*%
%ADD15R,0.0360X0.0360*%
%ADD16R,0.0600X0.0256*%
%ADD17R,0.1067X0.1319*%
%ADD18R,0.0500X0.0500*%
%ADD19R,0.0950X0.2100*%
%ADD20R,0.0965X0.0925*%
%ADD21O,0.0240X0.0800*%
%ADD22R,0.0240X0.0800*%
%ADD23R,0.1670X0.1500*%
%ADD39C,0.0100*%
%ADD40C,0.0500*%
%ADD41C,0.0255*%
%ADD42C,0.0360*%
%ADD43C,0.0800*%
%ADD44C,0.0340*%
%ADD45C,0.1100*%
%ADD46C,0.0620*%
%ADD47C,0.0600*%
%ADD48C,0.0300*%
%ADD49C,0.1000*%
%ADD50C,0.0320*%
%ADD51C,0.0500*%
G36*
X34467Y22341D02*
X34647Y22287D01*
X34813Y22198D01*
X34959Y22079D01*
X35078Y21933D01*
X35167Y21767D01*
X35204Y21645D01*
X35159Y21621D01*
X35071Y21728D01*
X34956Y21822D01*
X34825Y21892D01*
X34683Y21935D01*
X34535Y21950D01*
X34387Y21935D01*
X34244Y21892D01*
X34113Y21822D01*
X33998Y21728D01*
X33904Y21613D01*
X33834Y21482D01*
X33791Y21339D01*
X33776Y21191D01*
X33791Y21043D01*
X33834Y20901D01*
X33904Y20770D01*
X33998Y20655D01*
X34113Y20561D01*
X34244Y20490D01*
X34387Y20447D01*
X34535Y20433D01*
X34683Y20447D01*
X34825Y20490D01*
X34956Y20561D01*
X35071Y20655D01*
X35165Y20770D01*
X35186Y20808D01*
X35236Y20796D01*
Y19751D01*
X35195Y19723D01*
X35146Y19743D01*
X35035Y19758D01*
X34924Y19743D01*
X34820Y19700D01*
X34732Y19632D01*
X34663Y19543D01*
X34621Y19440D01*
X34606Y19329D01*
X34621Y19218D01*
X34663Y19115D01*
X34732Y19026D01*
X34820Y18958D01*
X34924Y18915D01*
X35035Y18900D01*
X35146Y18915D01*
X35195Y18935D01*
X35236Y18908D01*
Y18751D01*
X35195Y18723D01*
X35146Y18743D01*
X35035Y18758D01*
X34924Y18743D01*
X34820Y18700D01*
X34732Y18632D01*
X34663Y18543D01*
X34621Y18440D01*
X34606Y18329D01*
X34621Y18218D01*
X34663Y18115D01*
X34732Y18026D01*
X34820Y17958D01*
X34924Y17915D01*
X35035Y17900D01*
X35146Y17915D01*
X35195Y17935D01*
X35236Y17908D01*
Y2295D01*
X35186Y2283D01*
X35165Y2321D01*
X35071Y2436D01*
X34956Y2531D01*
X34825Y2601D01*
X34683Y2644D01*
X34535Y2659D01*
X34387Y2644D01*
X34244Y2601D01*
X34113Y2531D01*
X33998Y2436D01*
X33904Y2321D01*
X33834Y2190D01*
X33791Y2048D01*
X33776Y1900D01*
X33791Y1752D01*
X33834Y1610D01*
X33904Y1479D01*
X33998Y1364D01*
X34113Y1269D01*
X34244Y1199D01*
X34387Y1156D01*
X34535Y1141D01*
X34683Y1156D01*
X34825Y1199D01*
X34956Y1269D01*
X35071Y1364D01*
X35165Y1479D01*
X35210Y1456D01*
X35167Y1313D01*
X35078Y1147D01*
X34959Y1001D01*
X34813Y882D01*
X34647Y793D01*
X34467Y739D01*
X34292Y722D01*
X34280Y724D01*
X1640D01*
X1628Y722D01*
X1453Y739D01*
X1273Y793D01*
X1107Y882D01*
X961Y1001D01*
X842Y1147D01*
X753Y1313D01*
X699Y1493D01*
X682Y1668D01*
X684Y1680D01*
Y12626D01*
X734Y12646D01*
X1368Y12013D01*
Y11367D01*
X1597D01*
Y9709D01*
X1568Y9658D01*
X1540Y9554D01*
Y9446D01*
X1568Y9342D01*
X1622Y9248D01*
X1698Y9172D01*
X1792Y9118D01*
X1896Y9090D01*
X2004D01*
X2108Y9118D01*
X2162Y9149D01*
X2193Y9109D01*
X1792Y8708D01*
X1759Y8659D01*
X1747Y8600D01*
Y8456D01*
X1698Y8428D01*
X1622Y8352D01*
X1568Y8258D01*
X1540Y8154D01*
Y8046D01*
X1568Y7942D01*
X1622Y7848D01*
X1698Y7772D01*
X1792Y7718D01*
X1896Y7690D01*
X2004D01*
X2108Y7718D01*
X2159Y7747D01*
X2750D01*
X2773Y7750D01*
X3450D01*
Y8450D01*
X2773D01*
X2750Y8453D01*
X2159D01*
X2108Y8482D01*
X2068Y8493D01*
X2061Y8545D01*
X2758Y9242D01*
X2791Y9291D01*
X2803Y9350D01*
Y11649D01*
X4151Y12997D01*
X4792D01*
Y12928D01*
X4792Y12922D01*
Y12878D01*
X4792Y12872D01*
Y12422D01*
X4968D01*
Y12203D01*
X4350D01*
X4327Y12200D01*
X4000D01*
Y11873D01*
X3997Y11850D01*
X4000Y11827D01*
Y11500D01*
X4327D01*
X4350Y11497D01*
X5200D01*
X5223Y11500D01*
X5550D01*
Y11827D01*
X5553Y11850D01*
X5550Y11873D01*
Y12200D01*
X5432D01*
Y12422D01*
X5592D01*
Y12872D01*
X5592Y12878D01*
Y12922D01*
X5592Y12928D01*
Y13378D01*
X5592Y13378D01*
Y13422D01*
X5592D01*
X5592Y13428D01*
Y13878D01*
X5212D01*
X5192Y13882D01*
X4500D01*
Y14000D01*
X4173D01*
X4150Y14003D01*
X3300D01*
X3300Y14003D01*
X3277Y14000D01*
X2950D01*
Y13799D01*
X2650Y13500D01*
X2594Y13427D01*
X2559Y13341D01*
X2547Y13250D01*
Y13006D01*
X2033Y12492D01*
X1887D01*
X1303Y13076D01*
Y15104D01*
X2146Y15947D01*
X3150D01*
Y15150D01*
X4300D01*
Y17450D01*
X4072D01*
Y18087D01*
X27197Y18087D01*
X27848Y17436D01*
Y16650D01*
X27856Y16611D01*
X27878Y16578D01*
X27911Y16556D01*
X27950Y16548D01*
X29300D01*
X29339Y16556D01*
X29372Y16578D01*
X29394Y16611D01*
X29399Y16635D01*
X29417Y16646D01*
X29436Y16653D01*
X29452Y16654D01*
X29514Y16613D01*
X29600Y16596D01*
X29686Y16613D01*
X29759Y16661D01*
X29807Y16734D01*
X29824Y16820D01*
Y17380D01*
X29807Y17466D01*
X29759Y17539D01*
X29686Y17587D01*
X29600Y17604D01*
X29514Y17587D01*
X29452Y17546D01*
X29436Y17547D01*
X29417Y17554D01*
X29399Y17565D01*
X29394Y17589D01*
X29372Y17622D01*
X29339Y17644D01*
X29300Y17652D01*
X28064D01*
X27476Y18241D01*
X27495Y18287D01*
X27800D01*
X27891Y18299D01*
X27977Y18334D01*
X28050Y18390D01*
X28407Y18748D01*
X29800D01*
X29839Y18756D01*
X29872Y18778D01*
X29894Y18811D01*
X29902Y18850D01*
Y19750D01*
X29894Y19789D01*
X29872Y19822D01*
X29839Y19844D01*
X29800Y19852D01*
X28060D01*
X28040Y19898D01*
X28454Y20312D01*
X28459Y20309D01*
X28563Y20281D01*
X28671D01*
X28776Y20309D01*
X28869Y20363D01*
X28945Y20440D01*
X28999Y20533D01*
X29027Y20637D01*
Y20745D01*
X28999Y20850D01*
X28945Y20943D01*
X28869Y21019D01*
X28776Y21073D01*
X28671Y21101D01*
X28563D01*
X28459Y21073D01*
X28366Y21019D01*
X28289Y20943D01*
X28235Y20850D01*
X28207Y20745D01*
Y20637D01*
X28235Y20533D01*
X28238Y20528D01*
X27813Y20103D01*
X25791D01*
X25732Y20091D01*
X25683Y20058D01*
X25652Y20028D01*
X25652Y20028D01*
X25558Y20082D01*
X25454Y20110D01*
X25346D01*
X25242Y20082D01*
X25148Y20028D01*
X25072Y19952D01*
X25018Y19858D01*
X24990Y19754D01*
Y19646D01*
X25018Y19542D01*
X25072Y19448D01*
X25148Y19372D01*
X25242Y19318D01*
X25346Y19290D01*
X25454D01*
X25558Y19318D01*
X25652Y19372D01*
X25728Y19448D01*
X25782Y19542D01*
X25810Y19646D01*
Y19753D01*
X25854Y19797D01*
X27806D01*
X27848Y19750D01*
Y19187D01*
X27654Y18993D01*
X26760D01*
X26737Y18990D01*
X26714D01*
X26692Y18984D01*
X26669Y18981D01*
X26647Y18972D01*
X26625Y18966D01*
X26605Y18955D01*
X26583Y18946D01*
X26565Y18932D01*
X26545Y18920D01*
X26529Y18904D01*
X26510Y18890D01*
X26496Y18871D01*
X26480Y18855D01*
X26468Y18835D01*
X26454Y18817D01*
X26445Y18795D01*
X26434Y18775D01*
X26428Y18753D01*
X26419Y18731D01*
X26416Y18708D01*
X26410Y18686D01*
Y18663D01*
X26407Y18640D01*
X26410Y18617D01*
Y18594D01*
X26416Y18572D01*
X26419Y18549D01*
X26428Y18527D01*
X26434Y18505D01*
X26445Y18485D01*
X26454Y18463D01*
X26468Y18445D01*
X26470Y18443D01*
X26448Y18397D01*
X26443Y18393D01*
X4070Y18393D01*
Y18635D01*
X3808D01*
X3790Y18637D01*
X3772Y18635D01*
X3510D01*
Y18373D01*
X3508Y18355D01*
Y18240D01*
Y17450D01*
X3150D01*
Y16653D01*
X2000D01*
X1909Y16641D01*
X1823Y16606D01*
X1750Y16550D01*
X734Y15533D01*
X684Y15554D01*
Y21400D01*
X682Y21412D01*
X699Y21587D01*
X753Y21767D01*
X842Y21933D01*
X961Y22079D01*
X1107Y22198D01*
X1273Y22287D01*
X1453Y22341D01*
X1628Y22358D01*
X1640Y22356D01*
X31536D01*
X31551Y22325D01*
X31530Y22303D01*
X31076D01*
X31017Y22291D01*
X30968Y22258D01*
X30780Y22071D01*
X30776Y22073D01*
X30671Y22101D01*
X30563D01*
X30459Y22073D01*
X30366Y22019D01*
X30289Y21943D01*
X30235Y21850D01*
X30207Y21745D01*
Y21637D01*
X30235Y21533D01*
X30289Y21440D01*
X30366Y21363D01*
X30459Y21309D01*
X30563Y21281D01*
X30671D01*
X30776Y21309D01*
X30869Y21363D01*
X30945Y21440D01*
X30999Y21533D01*
X31027Y21637D01*
Y21745D01*
X30999Y21850D01*
X30997Y21854D01*
X31139Y21997D01*
X31278D01*
X31297Y21951D01*
X31289Y21943D01*
X31235Y21850D01*
X31207Y21745D01*
Y21637D01*
X31235Y21533D01*
X31238Y21528D01*
X30992Y21282D01*
X30959Y21233D01*
X30947Y21174D01*
Y21012D01*
X30897Y20991D01*
X30869Y21019D01*
X30776Y21073D01*
X30671Y21101D01*
X30563D01*
X30459Y21073D01*
X30366Y21019D01*
X30289Y20943D01*
X30235Y20850D01*
X30207Y20745D01*
Y20637D01*
X30235Y20533D01*
X30289Y20440D01*
X30366Y20363D01*
X30459Y20309D01*
X30464Y20308D01*
Y20063D01*
X30476Y20004D01*
X30509Y19955D01*
X30615Y19848D01*
X30591Y19802D01*
X30514Y19787D01*
X30441Y19739D01*
X30393Y19666D01*
X30376Y19580D01*
Y19020D01*
X30393Y18934D01*
X30441Y18861D01*
X30447Y18858D01*
Y18750D01*
X30459Y18691D01*
X30492Y18642D01*
X30792Y18342D01*
X30841Y18309D01*
X30900Y18297D01*
X32600D01*
X32659Y18309D01*
X32708Y18342D01*
X33308Y18942D01*
X33341Y18991D01*
X33353Y19050D01*
Y21109D01*
X33341Y21167D01*
X33308Y21217D01*
X32997Y21528D01*
X32999Y21533D01*
X33027Y21637D01*
Y21745D01*
X32999Y21850D01*
X32945Y21943D01*
X32869Y22019D01*
X32776Y22073D01*
X32671Y22101D01*
X32563D01*
X32459Y22073D01*
X32366Y22019D01*
X32303Y21957D01*
X32253Y21976D01*
Y22000D01*
X32241Y22059D01*
X32208Y22108D01*
X32087Y22229D01*
X32087Y22229D01*
X32058Y22258D01*
X32009Y22291D01*
X31950Y22303D01*
X31709D01*
X31707Y22306D01*
X31729Y22356D01*
X34280D01*
X34292Y22358D01*
X34467Y22341D01*
D02*
G37*
G36*
X29800Y18850D02*
X27950D01*
Y19750D01*
X29800D01*
Y18850D01*
D02*
G37*
G36*
X32366Y21363D02*
X32459Y21309D01*
X32563Y21281D01*
X32671D01*
X32776Y21309D01*
X32780Y21312D01*
X33047Y21045D01*
Y19113D01*
X32537Y18603D01*
X30963D01*
X30755Y18811D01*
X30758Y18861D01*
X30759Y18861D01*
X30807Y18934D01*
X30824Y19020D01*
Y19513D01*
X30874Y19543D01*
X30876Y19542D01*
Y19020D01*
X30893Y18934D01*
X30941Y18861D01*
X31014Y18813D01*
X31100Y18796D01*
X31186Y18813D01*
X31259Y18861D01*
X31307Y18934D01*
X31324Y19020D01*
Y19513D01*
X31374Y19543D01*
X31376Y19542D01*
Y19020D01*
X31393Y18934D01*
X31441Y18861D01*
X31514Y18813D01*
X31600Y18796D01*
X31686Y18813D01*
X31759Y18861D01*
X31807Y18934D01*
X31824Y19020D01*
Y19580D01*
X31807Y19666D01*
X31759Y19739D01*
X31686Y19787D01*
X31600Y19804D01*
X31593Y19803D01*
X31253Y20143D01*
Y20407D01*
X31303Y20426D01*
X31366Y20363D01*
X31459Y20309D01*
X31563Y20281D01*
X31671D01*
X31776Y20309D01*
X31869Y20363D01*
X31897Y20391D01*
X31947Y20371D01*
Y19742D01*
X31941Y19739D01*
X31893Y19666D01*
X31876Y19580D01*
Y19020D01*
X31893Y18934D01*
X31941Y18861D01*
X32014Y18813D01*
X32100Y18796D01*
X32186Y18813D01*
X32259Y18861D01*
X32307Y18934D01*
X32324Y19020D01*
Y19580D01*
X32307Y19666D01*
X32259Y19739D01*
X32253Y19742D01*
Y21407D01*
X32303Y21426D01*
X32366Y21363D01*
D02*
G37*
G36*
X29300Y16650D02*
X27950D01*
Y17550D01*
X29300D01*
Y16650D01*
D02*
G37*
G36*
X3955Y13291D02*
X3969Y13247D01*
X2582Y11861D01*
X2532Y11881D01*
Y11993D01*
X3150Y12610D01*
X3206Y12683D01*
X3241Y12768D01*
X3253Y12860D01*
Y13104D01*
X3446Y13297D01*
X3950D01*
X3955Y13291D01*
D02*
G37*
G36*
X2497Y9413D02*
X2341Y9257D01*
X2301Y9288D01*
X2332Y9342D01*
X2360Y9446D01*
Y9554D01*
X2332Y9658D01*
X2303Y9709D01*
Y11367D01*
X2497D01*
Y9413D01*
D02*
G37*
%LPC*%
G36*
X28671Y22101D02*
X28563D01*
X28459Y22073D01*
X28366Y22019D01*
X28289Y21943D01*
X28235Y21850D01*
X28207Y21745D01*
Y21637D01*
X28235Y21533D01*
X28289Y21440D01*
X28366Y21363D01*
X28459Y21309D01*
X28563Y21281D01*
X28671D01*
X28776Y21309D01*
X28869Y21363D01*
X28945Y21440D01*
X28999Y21533D01*
X29027Y21637D01*
Y21745D01*
X28999Y21850D01*
X28945Y21943D01*
X28869Y22019D01*
X28776Y22073D01*
X28671Y22101D01*
D02*
G37*
G36*
X26671D02*
X26563D01*
X26459Y22073D01*
X26366Y22019D01*
X26289Y21943D01*
X26235Y21850D01*
X26207Y21745D01*
Y21637D01*
X26235Y21533D01*
X26289Y21440D01*
X26366Y21363D01*
X26459Y21309D01*
X26563Y21281D01*
X26671D01*
X26776Y21309D01*
X26869Y21363D01*
X26945Y21440D01*
X26999Y21533D01*
X27027Y21637D01*
Y21745D01*
X26999Y21850D01*
X26945Y21943D01*
X26869Y22019D01*
X26776Y22073D01*
X26671Y22101D01*
D02*
G37*
G36*
X25671D02*
X25563D01*
X25459Y22073D01*
X25366Y22019D01*
X25289Y21943D01*
X25235Y21850D01*
X25207Y21745D01*
Y21637D01*
X25235Y21533D01*
X25289Y21440D01*
X25366Y21363D01*
X25459Y21309D01*
X25563Y21281D01*
X25671D01*
X25776Y21309D01*
X25869Y21363D01*
X25945Y21440D01*
X25999Y21533D01*
X26027Y21637D01*
Y21745D01*
X25999Y21850D01*
X25945Y21943D01*
X25869Y22019D01*
X25776Y22073D01*
X25671Y22101D01*
D02*
G37*
G36*
X24671D02*
X24563D01*
X24459Y22073D01*
X24366Y22019D01*
X24289Y21943D01*
X24235Y21850D01*
X24207Y21745D01*
Y21637D01*
X24235Y21533D01*
X24289Y21440D01*
X24366Y21363D01*
X24459Y21309D01*
X24563Y21281D01*
X24671D01*
X24776Y21309D01*
X24869Y21363D01*
X24945Y21440D01*
X24999Y21533D01*
X25027Y21637D01*
Y21745D01*
X24999Y21850D01*
X24945Y21943D01*
X24869Y22019D01*
X24776Y22073D01*
X24671Y22101D01*
D02*
G37*
G36*
X23671D02*
X23563D01*
X23459Y22073D01*
X23366Y22019D01*
X23289Y21943D01*
X23235Y21850D01*
X23207Y21745D01*
Y21637D01*
X23235Y21533D01*
X23289Y21440D01*
X23366Y21363D01*
X23459Y21309D01*
X23563Y21281D01*
X23671D01*
X23776Y21309D01*
X23869Y21363D01*
X23945Y21440D01*
X23999Y21533D01*
X24027Y21637D01*
Y21745D01*
X23999Y21850D01*
X23945Y21943D01*
X23869Y22019D01*
X23776Y22073D01*
X23671Y22101D01*
D02*
G37*
G36*
X21671D02*
X21563D01*
X21459Y22073D01*
X21366Y22019D01*
X21289Y21943D01*
X21235Y21850D01*
X21207Y21745D01*
Y21637D01*
X21235Y21533D01*
X21289Y21440D01*
X21366Y21363D01*
X21459Y21309D01*
X21563Y21281D01*
X21671D01*
X21776Y21309D01*
X21869Y21363D01*
X21945Y21440D01*
X21999Y21533D01*
X22027Y21637D01*
Y21745D01*
X21999Y21850D01*
X21945Y21943D01*
X21869Y22019D01*
X21776Y22073D01*
X21671Y22101D01*
D02*
G37*
G36*
X20671D02*
X20563D01*
X20459Y22073D01*
X20366Y22019D01*
X20289Y21943D01*
X20235Y21850D01*
X20207Y21745D01*
Y21637D01*
X20235Y21533D01*
X20289Y21440D01*
X20366Y21363D01*
X20459Y21309D01*
X20563Y21281D01*
X20671D01*
X20776Y21309D01*
X20869Y21363D01*
X20945Y21440D01*
X20999Y21533D01*
X21027Y21637D01*
Y21745D01*
X20999Y21850D01*
X20945Y21943D01*
X20869Y22019D01*
X20776Y22073D01*
X20671Y22101D01*
D02*
G37*
G36*
X18671D02*
X18563D01*
X18459Y22073D01*
X18366Y22019D01*
X18289Y21943D01*
X18235Y21850D01*
X18207Y21745D01*
Y21637D01*
X18235Y21533D01*
X18289Y21440D01*
X18366Y21363D01*
X18459Y21309D01*
X18563Y21281D01*
X18671D01*
X18776Y21309D01*
X18869Y21363D01*
X18945Y21440D01*
X18999Y21533D01*
X19027Y21637D01*
Y21745D01*
X18999Y21850D01*
X18945Y21943D01*
X18869Y22019D01*
X18776Y22073D01*
X18671Y22101D01*
D02*
G37*
G36*
X17671D02*
X17563D01*
X17459Y22073D01*
X17366Y22019D01*
X17289Y21943D01*
X17235Y21850D01*
X17207Y21745D01*
Y21637D01*
X17235Y21533D01*
X17289Y21440D01*
X17366Y21363D01*
X17459Y21309D01*
X17563Y21281D01*
X17671D01*
X17776Y21309D01*
X17869Y21363D01*
X17945Y21440D01*
X17999Y21533D01*
X18027Y21637D01*
Y21745D01*
X17999Y21850D01*
X17945Y21943D01*
X17869Y22019D01*
X17776Y22073D01*
X17671Y22101D01*
D02*
G37*
G36*
X16671D02*
X16563D01*
X16459Y22073D01*
X16366Y22019D01*
X16289Y21943D01*
X16235Y21850D01*
X16207Y21745D01*
Y21637D01*
X16235Y21533D01*
X16289Y21440D01*
X16366Y21363D01*
X16459Y21309D01*
X16563Y21281D01*
X16671D01*
X16776Y21309D01*
X16869Y21363D01*
X16945Y21440D01*
X16999Y21533D01*
X17027Y21637D01*
Y21745D01*
X16999Y21850D01*
X16945Y21943D01*
X16869Y22019D01*
X16776Y22073D01*
X16671Y22101D01*
D02*
G37*
G36*
X14671D02*
X14563D01*
X14459Y22073D01*
X14366Y22019D01*
X14289Y21943D01*
X14235Y21850D01*
X14207Y21745D01*
Y21637D01*
X14235Y21533D01*
X14289Y21440D01*
X14366Y21363D01*
X14459Y21309D01*
X14563Y21281D01*
X14671D01*
X14776Y21309D01*
X14869Y21363D01*
X14945Y21440D01*
X14999Y21533D01*
X15027Y21637D01*
Y21745D01*
X14999Y21850D01*
X14945Y21943D01*
X14869Y22019D01*
X14776Y22073D01*
X14671Y22101D01*
D02*
G37*
G36*
X13671D02*
X13563D01*
X13459Y22073D01*
X13366Y22019D01*
X13289Y21943D01*
X13235Y21850D01*
X13207Y21745D01*
Y21637D01*
X13235Y21533D01*
X13289Y21440D01*
X13366Y21363D01*
X13459Y21309D01*
X13563Y21281D01*
X13671D01*
X13776Y21309D01*
X13869Y21363D01*
X13945Y21440D01*
X13999Y21533D01*
X14027Y21637D01*
Y21745D01*
X13999Y21850D01*
X13945Y21943D01*
X13869Y22019D01*
X13776Y22073D01*
X13671Y22101D01*
D02*
G37*
G36*
X11700Y21950D02*
X11552Y21935D01*
X11410Y21892D01*
X11279Y21822D01*
X11164Y21728D01*
X11069Y21613D01*
X10999Y21482D01*
X10956Y21339D01*
X10941Y21191D01*
X10956Y21043D01*
X10999Y20901D01*
X11069Y20770D01*
X11164Y20655D01*
X11279Y20561D01*
X11410Y20490D01*
X11552Y20447D01*
X11700Y20433D01*
X11848Y20447D01*
X11990Y20490D01*
X12121Y20561D01*
X12236Y20655D01*
X12331Y20770D01*
X12401Y20901D01*
X12444Y21043D01*
X12459Y21191D01*
X12444Y21339D01*
X12401Y21482D01*
X12331Y21613D01*
X12236Y21728D01*
X12121Y21822D01*
X11990Y21892D01*
X11848Y21935D01*
X11700Y21950D01*
D02*
G37*
G36*
X29671Y21101D02*
X29563D01*
X29459Y21073D01*
X29366Y21019D01*
X29289Y20943D01*
X29235Y20850D01*
X29207Y20745D01*
Y20637D01*
X29235Y20533D01*
X29289Y20440D01*
X29366Y20363D01*
X29459Y20309D01*
X29563Y20281D01*
X29671D01*
X29776Y20309D01*
X29869Y20363D01*
X29945Y20440D01*
X29999Y20533D01*
X30027Y20637D01*
Y20745D01*
X29999Y20850D01*
X29945Y20943D01*
X29869Y21019D01*
X29776Y21073D01*
X29671Y21101D01*
D02*
G37*
G36*
X27671D02*
X27563D01*
X27459Y21073D01*
X27366Y21019D01*
X27289Y20943D01*
X27235Y20850D01*
X27207Y20745D01*
Y20637D01*
X27235Y20533D01*
X27289Y20440D01*
X27366Y20363D01*
X27459Y20309D01*
X27563Y20281D01*
X27671D01*
X27776Y20309D01*
X27869Y20363D01*
X27945Y20440D01*
X27999Y20533D01*
X28027Y20637D01*
Y20745D01*
X27999Y20850D01*
X27945Y20943D01*
X27869Y21019D01*
X27776Y21073D01*
X27671Y21101D01*
D02*
G37*
G36*
X26671D02*
X26563D01*
X26459Y21073D01*
X26366Y21019D01*
X26289Y20943D01*
X26235Y20850D01*
X26207Y20745D01*
Y20637D01*
X26235Y20533D01*
X26289Y20440D01*
X26366Y20363D01*
X26459Y20309D01*
X26563Y20281D01*
X26671D01*
X26776Y20309D01*
X26869Y20363D01*
X26945Y20440D01*
X26999Y20533D01*
X27027Y20637D01*
Y20745D01*
X26999Y20850D01*
X26945Y20943D01*
X26869Y21019D01*
X26776Y21073D01*
X26671Y21101D01*
D02*
G37*
G36*
X24671D02*
X24563D01*
X24459Y21073D01*
X24366Y21019D01*
X24289Y20943D01*
X24235Y20850D01*
X24207Y20745D01*
Y20637D01*
X24235Y20533D01*
X24289Y20440D01*
X24366Y20363D01*
X24459Y20309D01*
X24563Y20281D01*
X24671D01*
X24776Y20309D01*
X24869Y20363D01*
X24945Y20440D01*
X24999Y20533D01*
X25027Y20637D01*
Y20745D01*
X24999Y20850D01*
X24945Y20943D01*
X24869Y21019D01*
X24776Y21073D01*
X24671Y21101D01*
D02*
G37*
G36*
X23671D02*
X23563D01*
X23459Y21073D01*
X23366Y21019D01*
X23289Y20943D01*
X23235Y20850D01*
X23207Y20745D01*
Y20637D01*
X23235Y20533D01*
X23289Y20440D01*
X23366Y20363D01*
X23459Y20309D01*
X23563Y20281D01*
X23671D01*
X23776Y20309D01*
X23869Y20363D01*
X23945Y20440D01*
X23999Y20533D01*
X24027Y20637D01*
Y20745D01*
X23999Y20850D01*
X23945Y20943D01*
X23869Y21019D01*
X23776Y21073D01*
X23671Y21101D01*
D02*
G37*
G36*
X22671D02*
X22563D01*
X22459Y21073D01*
X22366Y21019D01*
X22289Y20943D01*
X22235Y20850D01*
X22207Y20745D01*
Y20637D01*
X22235Y20533D01*
X22289Y20440D01*
X22366Y20363D01*
X22459Y20309D01*
X22563Y20281D01*
X22671D01*
X22776Y20309D01*
X22869Y20363D01*
X22945Y20440D01*
X22999Y20533D01*
X23027Y20637D01*
Y20745D01*
X22999Y20850D01*
X22945Y20943D01*
X22869Y21019D01*
X22776Y21073D01*
X22671Y21101D01*
D02*
G37*
G36*
X21671D02*
X21563D01*
X21459Y21073D01*
X21366Y21019D01*
X21289Y20943D01*
X21235Y20850D01*
X21207Y20745D01*
Y20637D01*
X21235Y20533D01*
X21289Y20440D01*
X21366Y20363D01*
X21459Y20309D01*
X21563Y20281D01*
X21671D01*
X21776Y20309D01*
X21869Y20363D01*
X21945Y20440D01*
X21999Y20533D01*
X22027Y20637D01*
Y20745D01*
X21999Y20850D01*
X21945Y20943D01*
X21869Y21019D01*
X21776Y21073D01*
X21671Y21101D01*
D02*
G37*
G36*
X20671D02*
X20563D01*
X20459Y21073D01*
X20366Y21019D01*
X20289Y20943D01*
X20235Y20850D01*
X20207Y20745D01*
Y20637D01*
X20235Y20533D01*
X20289Y20440D01*
X20366Y20363D01*
X20459Y20309D01*
X20563Y20281D01*
X20671D01*
X20776Y20309D01*
X20869Y20363D01*
X20945Y20440D01*
X20999Y20533D01*
X21027Y20637D01*
Y20745D01*
X20999Y20850D01*
X20945Y20943D01*
X20869Y21019D01*
X20776Y21073D01*
X20671Y21101D01*
D02*
G37*
G36*
X19671D02*
X19563D01*
X19459Y21073D01*
X19366Y21019D01*
X19289Y20943D01*
X19235Y20850D01*
X19207Y20745D01*
Y20637D01*
X19235Y20533D01*
X19289Y20440D01*
X19366Y20363D01*
X19459Y20309D01*
X19563Y20281D01*
X19671D01*
X19776Y20309D01*
X19869Y20363D01*
X19945Y20440D01*
X19999Y20533D01*
X20027Y20637D01*
Y20745D01*
X19999Y20850D01*
X19945Y20943D01*
X19869Y21019D01*
X19776Y21073D01*
X19671Y21101D01*
D02*
G37*
G36*
X18671D02*
X18563D01*
X18459Y21073D01*
X18366Y21019D01*
X18289Y20943D01*
X18235Y20850D01*
X18207Y20745D01*
Y20637D01*
X18235Y20533D01*
X18289Y20440D01*
X18366Y20363D01*
X18459Y20309D01*
X18563Y20281D01*
X18671D01*
X18776Y20309D01*
X18869Y20363D01*
X18945Y20440D01*
X18999Y20533D01*
X19027Y20637D01*
Y20745D01*
X18999Y20850D01*
X18945Y20943D01*
X18869Y21019D01*
X18776Y21073D01*
X18671Y21101D01*
D02*
G37*
G36*
X16671D02*
X16563D01*
X16459Y21073D01*
X16366Y21019D01*
X16289Y20943D01*
X16235Y20850D01*
X16207Y20745D01*
Y20637D01*
X16235Y20533D01*
X16289Y20440D01*
X16366Y20363D01*
X16459Y20309D01*
X16563Y20281D01*
X16671D01*
X16776Y20309D01*
X16869Y20363D01*
X16945Y20440D01*
X16999Y20533D01*
X17027Y20637D01*
Y20745D01*
X16999Y20850D01*
X16945Y20943D01*
X16869Y21019D01*
X16776Y21073D01*
X16671Y21101D01*
D02*
G37*
G36*
X15671D02*
X15563D01*
X15459Y21073D01*
X15366Y21019D01*
X15289Y20943D01*
X15235Y20850D01*
X15207Y20745D01*
Y20637D01*
X15235Y20533D01*
X15238Y20528D01*
X14063Y19353D01*
X13083D01*
X13082Y19358D01*
X13028Y19452D01*
X12952Y19528D01*
X12858Y19582D01*
X12754Y19610D01*
X12646D01*
X12542Y19582D01*
X12448Y19528D01*
X12372Y19452D01*
X12318Y19358D01*
X12290Y19254D01*
Y19146D01*
X12318Y19042D01*
X12372Y18948D01*
X12448Y18872D01*
X12542Y18818D01*
X12646Y18790D01*
X12754D01*
X12858Y18818D01*
X12952Y18872D01*
X13028Y18948D01*
X13082Y19042D01*
X13083Y19047D01*
X14126D01*
X14185Y19059D01*
X14234Y19092D01*
X15454Y20312D01*
X15459Y20309D01*
X15563Y20281D01*
X15671D01*
X15776Y20309D01*
X15869Y20363D01*
X15945Y20440D01*
X15999Y20533D01*
X16027Y20637D01*
Y20745D01*
X15999Y20850D01*
X15945Y20943D01*
X15869Y21019D01*
X15776Y21073D01*
X15671Y21101D01*
D02*
G37*
G36*
X14671D02*
X14563D01*
X14459Y21073D01*
X14366Y21019D01*
X14289Y20943D01*
X14235Y20850D01*
X14207Y20745D01*
Y20637D01*
X14235Y20533D01*
X14289Y20440D01*
X14366Y20363D01*
X14459Y20309D01*
X14563Y20281D01*
X14671D01*
X14776Y20309D01*
X14869Y20363D01*
X14945Y20440D01*
X14999Y20533D01*
X15027Y20637D01*
Y20745D01*
X14999Y20850D01*
X14945Y20943D01*
X14869Y21019D01*
X14776Y21073D01*
X14671Y21101D01*
D02*
G37*
G36*
X13671D02*
X13563D01*
X13459Y21073D01*
X13366Y21019D01*
X13289Y20943D01*
X13235Y20850D01*
X13207Y20745D01*
Y20637D01*
X13235Y20533D01*
X13289Y20440D01*
X13366Y20363D01*
X13459Y20309D01*
X13563Y20281D01*
X13671D01*
X13776Y20309D01*
X13869Y20363D01*
X13945Y20440D01*
X13999Y20533D01*
X14027Y20637D01*
Y20745D01*
X13999Y20850D01*
X13945Y20943D01*
X13869Y21019D01*
X13776Y21073D01*
X13671Y21101D01*
D02*
G37*
G36*
X24054Y20110D02*
X23946D01*
X23842Y20082D01*
X23748Y20028D01*
X23672Y19952D01*
X23618Y19858D01*
X23617Y19853D01*
X23250D01*
Y20050D01*
X22550D01*
Y19350D01*
X23250D01*
Y19547D01*
X23617D01*
X23618Y19542D01*
X23672Y19448D01*
X23748Y19372D01*
X23842Y19318D01*
X23946Y19290D01*
X24054D01*
X24158Y19318D01*
X24252Y19372D01*
X24328Y19448D01*
X24382Y19542D01*
X24410Y19646D01*
Y19754D01*
X24382Y19858D01*
X24328Y19952D01*
X24252Y20028D01*
X24158Y20082D01*
X24054Y20110D01*
D02*
G37*
G36*
X6780Y21350D02*
X4910D01*
Y21153D01*
X3900D01*
X3773Y21141D01*
X3650Y21103D01*
X3537Y21043D01*
X3438Y20962D01*
X3357Y20863D01*
X3297Y20750D01*
X3259Y20627D01*
X3247Y20500D01*
X3259Y20373D01*
X3297Y20250D01*
X3357Y20137D01*
X3438Y20038D01*
X3537Y19957D01*
X3650Y19897D01*
X3773Y19859D01*
X3900Y19847D01*
X4910D01*
Y19650D01*
X6780D01*
Y21350D01*
D02*
G37*
G36*
X9290D02*
X7420D01*
Y19650D01*
X7448D01*
Y19242D01*
X7208Y19002D01*
X4930D01*
Y19005D01*
X4370D01*
Y18445D01*
X4930D01*
Y18448D01*
X7550D01*
X9150Y18448D01*
X9189Y18456D01*
X9222Y18478D01*
X9244Y18511D01*
X9252Y18550D01*
Y19650D01*
X9290D01*
Y21350D01*
D02*
G37*
G36*
X34035Y19758D02*
X33924Y19743D01*
X33820Y19700D01*
X33732Y19632D01*
X33663Y19543D01*
X33621Y19440D01*
X33606Y19329D01*
X33621Y19218D01*
X33663Y19115D01*
X33732Y19026D01*
X33820Y18958D01*
X33924Y18915D01*
X34035Y18900D01*
X34146Y18915D01*
X34249Y18958D01*
X34338Y19026D01*
X34406Y19115D01*
X34449Y19218D01*
X34463Y19329D01*
X34449Y19440D01*
X34406Y19543D01*
X34338Y19632D01*
X34249Y19700D01*
X34146Y19743D01*
X34035Y19758D01*
D02*
G37*
G36*
Y18758D02*
X33924Y18743D01*
X33820Y18700D01*
X33732Y18632D01*
X33663Y18543D01*
X33621Y18440D01*
X33606Y18329D01*
X33621Y18218D01*
X33663Y18115D01*
X33732Y18026D01*
X33820Y17958D01*
X33924Y17915D01*
X34035Y17900D01*
X34146Y17915D01*
X34249Y17958D01*
X34338Y18026D01*
X34406Y18115D01*
X34449Y18218D01*
X34463Y18329D01*
X34449Y18440D01*
X34406Y18543D01*
X34338Y18632D01*
X34249Y18700D01*
X34146Y18743D01*
X34035Y18758D01*
D02*
G37*
G36*
X32600Y17604D02*
X32514Y17587D01*
X32441Y17539D01*
X32393Y17466D01*
X32376Y17380D01*
Y16820D01*
X32393Y16734D01*
X32441Y16661D01*
X32514Y16613D01*
X32600Y16596D01*
X32686Y16613D01*
X32759Y16661D01*
X32807Y16734D01*
X32824Y16820D01*
Y17380D01*
X32807Y17466D01*
X32759Y17539D01*
X32686Y17587D01*
X32600Y17604D01*
D02*
G37*
G36*
X32100D02*
X32014Y17587D01*
X31941Y17539D01*
X31893Y17466D01*
X31876Y17380D01*
Y16820D01*
X31893Y16734D01*
X31941Y16661D01*
X32014Y16613D01*
X32100Y16596D01*
X32186Y16613D01*
X32259Y16661D01*
X32307Y16734D01*
X32324Y16820D01*
Y17380D01*
X32307Y17466D01*
X32259Y17539D01*
X32186Y17587D01*
X32100Y17604D01*
D02*
G37*
G36*
X31600D02*
X31514Y17587D01*
X31441Y17539D01*
X31393Y17466D01*
X31376Y17380D01*
Y16820D01*
X31393Y16734D01*
X31441Y16661D01*
X31514Y16613D01*
X31600Y16596D01*
X31686Y16613D01*
X31759Y16661D01*
X31807Y16734D01*
X31824Y16820D01*
Y17380D01*
X31807Y17466D01*
X31759Y17539D01*
X31686Y17587D01*
X31600Y17604D01*
D02*
G37*
G36*
X31100D02*
X31014Y17587D01*
X30941Y17539D01*
X30893Y17466D01*
X30876Y17380D01*
Y16820D01*
X30893Y16734D01*
X30941Y16661D01*
X31014Y16613D01*
X31100Y16596D01*
X31186Y16613D01*
X31259Y16661D01*
X31307Y16734D01*
X31324Y16820D01*
Y17380D01*
X31307Y17466D01*
X31259Y17539D01*
X31186Y17587D01*
X31100Y17604D01*
D02*
G37*
G36*
X30600D02*
X30514Y17587D01*
X30441Y17539D01*
X30393Y17466D01*
X30376Y17380D01*
Y16820D01*
X30393Y16734D01*
X30441Y16661D01*
X30514Y16613D01*
X30600Y16596D01*
X30686Y16613D01*
X30759Y16661D01*
X30807Y16734D01*
X30824Y16820D01*
Y17380D01*
X30807Y17466D01*
X30759Y17539D01*
X30686Y17587D01*
X30600Y17604D01*
D02*
G37*
G36*
X30100D02*
X30014Y17587D01*
X29941Y17539D01*
X29893Y17466D01*
X29876Y17380D01*
Y16820D01*
X29893Y16734D01*
X29941Y16661D01*
X30014Y16613D01*
X30100Y16596D01*
X30186Y16613D01*
X30259Y16661D01*
X30307Y16734D01*
X30324Y16820D01*
Y17380D01*
X30307Y17466D01*
X30259Y17539D01*
X30186Y17587D01*
X30100Y17604D01*
D02*
G37*
G36*
X14354Y16110D02*
X14246D01*
X14142Y16082D01*
X14048Y16028D01*
X13972Y15952D01*
X13918Y15858D01*
X13917Y15853D01*
X13750D01*
Y16050D01*
X13050D01*
Y15350D01*
X13750D01*
Y15547D01*
X13917D01*
X13918Y15542D01*
X13972Y15448D01*
X14048Y15372D01*
X14142Y15318D01*
X14246Y15290D01*
X14354D01*
X14458Y15318D01*
X14552Y15372D01*
X14628Y15448D01*
X14682Y15542D01*
X14710Y15646D01*
Y15754D01*
X14682Y15858D01*
X14628Y15952D01*
X14552Y16028D01*
X14458Y16082D01*
X14354Y16110D01*
D02*
G37*
G36*
X7150Y17450D02*
X6000D01*
Y15150D01*
X6822D01*
X7095Y14877D01*
Y14378D01*
X6927D01*
Y13928D01*
X6927Y13922D01*
Y13878D01*
X6927Y13872D01*
Y13428D01*
X6927Y13422D01*
X6927D01*
Y13378D01*
X6927D01*
Y12922D01*
X7511D01*
X7847Y12586D01*
Y12213D01*
X7834Y12200D01*
X7723D01*
X7700Y12203D01*
X6750D01*
X6727Y12200D01*
X6400D01*
Y11873D01*
X6397Y11850D01*
X6400Y11827D01*
Y11500D01*
X6727D01*
X6750Y11497D01*
X7700D01*
X7723Y11500D01*
X8050D01*
Y11827D01*
X8053Y11850D01*
X8050Y11873D01*
Y11984D01*
X8108Y12042D01*
X8141Y12091D01*
X8153Y12150D01*
Y12649D01*
X8141Y12708D01*
X8115Y12748D01*
X8154Y12780D01*
X8491Y12442D01*
X8541Y12409D01*
X8599Y12397D01*
X8700D01*
Y12200D01*
X9400D01*
Y12900D01*
X8700D01*
Y12734D01*
X8650Y12716D01*
X7727Y13638D01*
Y13872D01*
X7727Y13878D01*
Y13922D01*
X7727Y13928D01*
Y14378D01*
X7559D01*
Y14973D01*
X7541Y15062D01*
X7491Y15137D01*
X7150Y15478D01*
Y15796D01*
X7689D01*
Y15580D01*
X8755D01*
Y17020D01*
X7689D01*
Y16804D01*
X7150D01*
Y17450D01*
D02*
G37*
G36*
X15754Y16110D02*
X15646D01*
X15542Y16082D01*
X15448Y16028D01*
X15372Y15952D01*
X15318Y15858D01*
X15290Y15754D01*
Y15646D01*
X15318Y15542D01*
X15372Y15448D01*
X15448Y15372D01*
X15542Y15318D01*
X15646Y15290D01*
X15754D01*
X15858Y15318D01*
X15952Y15372D01*
X16028Y15448D01*
X16082Y15542D01*
X16110Y15646D01*
Y15754D01*
X16082Y15858D01*
X16028Y15952D01*
X15952Y16028D01*
X15858Y16082D01*
X15754Y16110D01*
D02*
G37*
G36*
X11511Y17020D02*
X10445D01*
Y16300D01*
X10441Y16267D01*
Y15155D01*
X10219Y14933D01*
X9768D01*
Y14723D01*
X9226D01*
X9150Y14800D01*
X9077Y14856D01*
X8991Y14891D01*
X8900Y14903D01*
X8350D01*
X8327Y14900D01*
X8000D01*
Y14573D01*
X7997Y14550D01*
X8000Y14527D01*
Y14200D01*
X8327D01*
X8350Y14197D01*
X8754D01*
X8830Y14121D01*
X8903Y14065D01*
X8988Y14029D01*
X9080Y14017D01*
X9768D01*
Y13808D01*
X10413D01*
X11200Y13021D01*
X11219Y13007D01*
X11235Y12990D01*
X11255Y12979D01*
X11273Y12965D01*
X11278Y12963D01*
X11283Y12949D01*
Y12922D01*
X11278Y12908D01*
X11273Y12906D01*
X11255Y12892D01*
X11235Y12880D01*
X11219Y12864D01*
X11200Y12850D01*
X11186Y12831D01*
X11170Y12815D01*
X11158Y12795D01*
X11144Y12777D01*
X11135Y12755D01*
X11124Y12735D01*
X11118Y12713D01*
X11109Y12691D01*
X11106Y12668D01*
X11100Y12646D01*
Y12623D01*
X11097Y12600D01*
Y11389D01*
X11011Y11303D01*
X7700D01*
X7677Y11300D01*
X7350D01*
Y10973D01*
X7347Y10950D01*
X7350Y10927D01*
Y10600D01*
X7677D01*
X7700Y10597D01*
X11157D01*
X11248Y10609D01*
X11334Y10644D01*
X11407Y10700D01*
X11700Y10993D01*
X11756Y11066D01*
X11791Y11152D01*
X11803Y11243D01*
Y12600D01*
X11800Y12623D01*
Y12646D01*
X11794Y12668D01*
X11791Y12691D01*
X11782Y12713D01*
X11776Y12735D01*
X11765Y12755D01*
X11756Y12777D01*
X11742Y12795D01*
X11730Y12815D01*
X11714Y12831D01*
X11700Y12850D01*
X11681Y12864D01*
X11665Y12880D01*
X11645Y12892D01*
X11627Y12906D01*
X11622Y12908D01*
X11617Y12922D01*
Y12949D01*
X11622Y12963D01*
X11627Y12965D01*
X11645Y12979D01*
X11665Y12990D01*
X11681Y13007D01*
X11700Y13021D01*
X11714Y13039D01*
X11730Y13056D01*
X11742Y13076D01*
X11756Y13094D01*
X11765Y13115D01*
X11776Y13135D01*
X11782Y13158D01*
X11791Y13179D01*
X11794Y13202D01*
X11800Y13224D01*
Y13248D01*
X11803Y13270D01*
X11800Y13293D01*
Y13317D01*
X11794Y13339D01*
X11791Y13362D01*
X11782Y13383D01*
X11776Y13406D01*
X11765Y13426D01*
X11756Y13447D01*
X11742Y13465D01*
X11730Y13485D01*
X11714Y13502D01*
X11700Y13520D01*
X10966Y14254D01*
X11301Y14589D01*
X11382Y14694D01*
X11432Y14815D01*
X11449Y14946D01*
Y15580D01*
X11511D01*
Y17020D01*
D02*
G37*
G36*
X14354Y13560D02*
X14246D01*
X14142Y13532D01*
X14048Y13478D01*
X13972Y13402D01*
X13918Y13308D01*
X13917Y13303D01*
X13750D01*
Y13500D01*
X13050D01*
Y12800D01*
X13750D01*
Y12997D01*
X13917D01*
X13918Y12992D01*
X13972Y12898D01*
X14048Y12822D01*
X14142Y12768D01*
X14246Y12740D01*
X14354D01*
X14458Y12768D01*
X14552Y12822D01*
X14628Y12898D01*
X14682Y12992D01*
X14710Y13096D01*
Y13204D01*
X14682Y13308D01*
X14628Y13402D01*
X14552Y13478D01*
X14458Y13532D01*
X14354Y13560D01*
D02*
G37*
G36*
X15754D02*
X15646D01*
X15542Y13532D01*
X15448Y13478D01*
X15372Y13402D01*
X15318Y13308D01*
X15290Y13204D01*
Y13096D01*
X15318Y12992D01*
X15372Y12898D01*
X15448Y12822D01*
X15542Y12768D01*
X15646Y12740D01*
X15754D01*
X15858Y12768D01*
X15952Y12822D01*
X16028Y12898D01*
X16082Y12992D01*
X16110Y13096D01*
Y13204D01*
X16082Y13308D01*
X16028Y13402D01*
X15952Y13478D01*
X15858Y13532D01*
X15754Y13560D01*
D02*
G37*
G36*
X4350Y11303D02*
X3500D01*
X3477Y11300D01*
X3150D01*
Y10973D01*
X3147Y10950D01*
X3150Y10927D01*
Y10600D01*
X3477D01*
X3500Y10597D01*
X4350D01*
X4373Y10600D01*
X4700D01*
Y10927D01*
X4703Y10950D01*
X4700Y10973D01*
Y11300D01*
X4373D01*
X4350Y11303D01*
D02*
G37*
G36*
X24040Y12113D02*
X24017Y12110D01*
X23994D01*
X23972Y12104D01*
X23949Y12101D01*
X23927Y12092D01*
X23905Y12086D01*
X23885Y12075D01*
X23863Y12066D01*
X23845Y12052D01*
X23825Y12040D01*
X23809Y12024D01*
X23790Y12010D01*
X23776Y11991D01*
X23760Y11975D01*
X23748Y11955D01*
X23734Y11937D01*
X23725Y11915D01*
X23714Y11895D01*
X23708Y11873D01*
X23699Y11851D01*
X23696Y11828D01*
X23690Y11806D01*
Y11783D01*
X23687Y11760D01*
X23690Y11737D01*
Y11714D01*
X23696Y11692D01*
X23699Y11669D01*
X23708Y11647D01*
X23714Y11625D01*
X23725Y11605D01*
X23734Y11583D01*
X23747Y11567D01*
Y10750D01*
X23750Y10727D01*
Y10400D01*
X24077D01*
X24100Y10397D01*
X24123Y10400D01*
X24450D01*
Y10727D01*
X24453Y10750D01*
Y11700D01*
X24441Y11791D01*
X24406Y11877D01*
X24350Y11950D01*
X24290Y12010D01*
X24271Y12024D01*
X24255Y12040D01*
X24235Y12052D01*
X24217Y12066D01*
X24195Y12075D01*
X24175Y12086D01*
X24153Y12092D01*
X24131Y12101D01*
X24108Y12104D01*
X24086Y12110D01*
X24063D01*
X24040Y12113D01*
D02*
G37*
G36*
X14720Y12073D02*
X14697Y12070D01*
X14674D01*
X14652Y12064D01*
X14629Y12061D01*
X14607Y12052D01*
X14585Y12046D01*
X14565Y12035D01*
X14543Y12026D01*
X14525Y12012D01*
X14505Y12000D01*
X14489Y11984D01*
X14470Y11970D01*
X14350Y11850D01*
X14294Y11777D01*
X14259Y11691D01*
X14247Y11600D01*
Y10350D01*
X14250Y10327D01*
Y10000D01*
X14577D01*
X14600Y9997D01*
X14623Y10000D01*
X14950D01*
Y10327D01*
X14953Y10350D01*
Y11454D01*
X14970Y11470D01*
X14984Y11489D01*
X15000Y11505D01*
X15012Y11525D01*
X15026Y11543D01*
X15035Y11565D01*
X15046Y11585D01*
X15052Y11607D01*
X15061Y11629D01*
X15064Y11652D01*
X15070Y11674D01*
Y11697D01*
X15073Y11720D01*
X15070Y11743D01*
Y11766D01*
X15064Y11788D01*
X15061Y11811D01*
X15052Y11833D01*
X15046Y11855D01*
X15035Y11875D01*
X15026Y11897D01*
X15012Y11915D01*
X15000Y11935D01*
X14984Y11951D01*
X14970Y11970D01*
X14951Y11984D01*
X14935Y12000D01*
X14915Y12012D01*
X14897Y12026D01*
X14875Y12035D01*
X14855Y12046D01*
X14833Y12052D01*
X14811Y12061D01*
X14788Y12064D01*
X14766Y12070D01*
X14743D01*
X14720Y12073D01*
D02*
G37*
G36*
X20646Y17900D02*
X20554D01*
X20465Y17876D01*
X20385Y17830D01*
X20320Y17765D01*
X20274Y17685D01*
X20250Y17596D01*
Y17504D01*
X20274Y17415D01*
X20320Y17335D01*
X20385Y17270D01*
X20447Y17234D01*
Y12150D01*
X20459Y12091D01*
X20492Y12042D01*
X21650Y10884D01*
Y10400D01*
X21847D01*
Y9900D01*
X21710D01*
Y9340D01*
X22270D01*
Y9900D01*
X22153D01*
Y10400D01*
X22350D01*
Y11100D01*
X21866D01*
X20753Y12213D01*
Y17234D01*
X20815Y17270D01*
X20880Y17335D01*
X20926Y17415D01*
X20950Y17504D01*
Y17596D01*
X20926Y17685D01*
X20880Y17765D01*
X20815Y17830D01*
X20735Y17876D01*
X20646Y17900D01*
D02*
G37*
G36*
X25000Y11103D02*
X24977Y11100D01*
X24650D01*
Y10773D01*
X24647Y10750D01*
Y10482D01*
X24650Y10460D01*
Y10400D01*
X24658D01*
X24659Y10391D01*
X24694Y10306D01*
X24750Y10233D01*
X24824Y10159D01*
Y9419D01*
X24818Y9408D01*
X24790Y9304D01*
Y9196D01*
X24818Y9092D01*
X24872Y8998D01*
X24948Y8922D01*
X25042Y8868D01*
X25146Y8840D01*
X25254D01*
X25358Y8868D01*
X25452Y8922D01*
X25528Y8998D01*
X25582Y9092D01*
X25610Y9196D01*
Y9304D01*
X25582Y9408D01*
X25530Y9498D01*
Y10305D01*
X25518Y10397D01*
X25483Y10482D01*
X25427Y10555D01*
X25353Y10629D01*
Y10750D01*
X25350Y10773D01*
Y11100D01*
X25023D01*
X25000Y11103D01*
D02*
G37*
G36*
X23854Y9660D02*
X23746D01*
X23642Y9632D01*
X23548Y9578D01*
X23503Y9532D01*
X22850D01*
X22832Y9530D01*
X22570D01*
Y9268D01*
X22568Y9250D01*
X22570Y9232D01*
Y8970D01*
X22832D01*
X22850Y8968D01*
X23503D01*
X23548Y8922D01*
X23642Y8868D01*
X23746Y8840D01*
X23854D01*
X23958Y8868D01*
X24052Y8922D01*
X24128Y8998D01*
X24182Y9092D01*
X24210Y9196D01*
Y9304D01*
X24182Y9408D01*
X24128Y9502D01*
X24052Y9578D01*
X23958Y9632D01*
X23854Y9660D01*
D02*
G37*
G36*
X14404Y9010D02*
X14296D01*
X14192Y8982D01*
X14098Y8928D01*
X14022Y8852D01*
X13968Y8758D01*
X13967Y8753D01*
X13690D01*
Y8850D01*
X13130D01*
Y8290D01*
X13690D01*
Y8447D01*
X13967D01*
X13968Y8442D01*
X14022Y8348D01*
X14098Y8272D01*
X14192Y8218D01*
X14296Y8190D01*
X14404D01*
X14508Y8218D01*
X14602Y8272D01*
X14678Y8348D01*
X14732Y8442D01*
X14760Y8546D01*
Y8654D01*
X14732Y8758D01*
X14678Y8852D01*
X14602Y8928D01*
X14508Y8982D01*
X14404Y9010D01*
D02*
G37*
G36*
X15086Y17750D02*
X14994D01*
X14905Y17726D01*
X14825Y17680D01*
X14760Y17615D01*
X14714Y17535D01*
X14690Y17446D01*
Y17354D01*
X14714Y17265D01*
X14760Y17185D01*
X14825Y17120D01*
X14887Y17084D01*
Y12953D01*
X12634Y10700D01*
X12150D01*
Y10000D01*
X12347D01*
Y9220D01*
X12270D01*
Y8660D01*
X12830D01*
Y9220D01*
X12653D01*
Y10000D01*
X12850D01*
Y10484D01*
X15148Y12782D01*
X15181Y12831D01*
X15193Y12890D01*
Y17084D01*
X15255Y17120D01*
X15320Y17185D01*
X15366Y17265D01*
X15390Y17354D01*
Y17446D01*
X15366Y17535D01*
X15320Y17615D01*
X15255Y17680D01*
X15175Y17726D01*
X15086Y17750D01*
D02*
G37*
G36*
X15850Y10700D02*
X15150D01*
Y10000D01*
X15347D01*
Y8991D01*
X15359Y8932D01*
X15392Y8883D01*
X15422Y8852D01*
X15422Y8852D01*
X15368Y8758D01*
X15340Y8654D01*
Y8546D01*
X15368Y8442D01*
X15422Y8348D01*
X15498Y8272D01*
X15592Y8218D01*
X15696Y8190D01*
X15804D01*
X15908Y8218D01*
X16002Y8272D01*
X16078Y8348D01*
X16132Y8442D01*
X16160Y8546D01*
Y8654D01*
X16132Y8758D01*
X16078Y8852D01*
X16002Y8928D01*
X15908Y8982D01*
X15804Y9010D01*
X15697D01*
X15653Y9054D01*
Y10000D01*
X15850D01*
Y10700D01*
D02*
G37*
G36*
X14680Y7513D02*
X14657Y7510D01*
X14634D01*
X14612Y7504D01*
X14589Y7501D01*
X14567Y7492D01*
X14545Y7486D01*
X14525Y7475D01*
X14503Y7466D01*
X14485Y7452D01*
X14465Y7440D01*
X14449Y7424D01*
X14430Y7410D01*
X14350Y7330D01*
X14294Y7257D01*
X14259Y7171D01*
X14247Y7080D01*
Y6250D01*
X14250Y6227D01*
Y5900D01*
X14577D01*
X14600Y5897D01*
X14623Y5900D01*
X14950D01*
Y6227D01*
X14953Y6250D01*
Y6938D01*
X14960Y6945D01*
X14972Y6965D01*
X14986Y6983D01*
X14995Y7005D01*
X15006Y7025D01*
X15012Y7047D01*
X15021Y7069D01*
X15024Y7092D01*
X15030Y7114D01*
Y7137D01*
X15033Y7160D01*
X15030Y7183D01*
Y7206D01*
X15024Y7228D01*
X15021Y7251D01*
X15012Y7273D01*
X15006Y7295D01*
X14995Y7315D01*
X14986Y7337D01*
X14972Y7355D01*
X14960Y7375D01*
X14944Y7391D01*
X14930Y7410D01*
X14911Y7424D01*
X14895Y7440D01*
X14875Y7452D01*
X14857Y7466D01*
X14835Y7475D01*
X14815Y7486D01*
X14793Y7492D01*
X14771Y7501D01*
X14748Y7504D01*
X14726Y7510D01*
X14703D01*
X14680Y7513D01*
D02*
G37*
G36*
X14404Y4860D02*
X14296D01*
X14192Y4832D01*
X14098Y4778D01*
X14022Y4702D01*
X13968Y4608D01*
X13967Y4603D01*
X13690D01*
Y4710D01*
X13130D01*
Y4150D01*
X13690D01*
Y4297D01*
X13967D01*
X13968Y4292D01*
X14022Y4198D01*
X14098Y4122D01*
X14192Y4068D01*
X14296Y4040D01*
X14404D01*
X14508Y4068D01*
X14602Y4122D01*
X14678Y4198D01*
X14732Y4292D01*
X14760Y4396D01*
Y4504D01*
X14732Y4608D01*
X14678Y4702D01*
X14602Y4778D01*
X14508Y4832D01*
X14404Y4860D01*
D02*
G37*
G36*
X16646Y18030D02*
X16554D01*
X16465Y18006D01*
X16385Y17960D01*
X16320Y17895D01*
X16274Y17815D01*
X16250Y17726D01*
Y17634D01*
X16274Y17545D01*
X16320Y17465D01*
X16385Y17400D01*
X16465Y17354D01*
X16554Y17330D01*
X16646D01*
X16715Y17349D01*
X17207Y16857D01*
Y9103D01*
X16002Y7898D01*
X13995D01*
X13936Y7886D01*
X13887Y7853D01*
X12634Y6600D01*
X12150D01*
Y5900D01*
X12347D01*
Y5080D01*
X12270D01*
Y4520D01*
X12830D01*
Y5080D01*
X12653D01*
Y5900D01*
X12850D01*
Y6384D01*
X14058Y7592D01*
X16065D01*
X16124Y7604D01*
X16173Y7637D01*
X17468Y8932D01*
X17501Y8981D01*
X17513Y9040D01*
Y16920D01*
X17501Y16979D01*
X17468Y17028D01*
X16931Y17565D01*
X16950Y17634D01*
Y17726D01*
X16926Y17815D01*
X16880Y17895D01*
X16815Y17960D01*
X16735Y18006D01*
X16646Y18030D01*
D02*
G37*
G36*
X15850Y6600D02*
X15150D01*
Y5900D01*
X15347D01*
Y4841D01*
X15359Y4782D01*
X15392Y4733D01*
X15422Y4702D01*
X15422Y4702D01*
X15368Y4608D01*
X15340Y4504D01*
Y4396D01*
X15368Y4292D01*
X15422Y4198D01*
X15498Y4122D01*
X15592Y4068D01*
X15696Y4040D01*
X15804D01*
X15908Y4068D01*
X16002Y4122D01*
X16078Y4198D01*
X16132Y4292D01*
X16160Y4396D01*
Y4504D01*
X16132Y4608D01*
X16078Y4702D01*
X16002Y4778D01*
X15908Y4832D01*
X15804Y4860D01*
X15697D01*
X15653Y4904D01*
Y5900D01*
X15850D01*
Y6600D01*
D02*
G37*
G36*
X11700Y2659D02*
X11552Y2644D01*
X11410Y2601D01*
X11279Y2531D01*
X11164Y2436D01*
X11069Y2321D01*
X10999Y2190D01*
X10956Y2048D01*
X10941Y1900D01*
X10956Y1752D01*
X10999Y1610D01*
X11069Y1479D01*
X11164Y1364D01*
X11279Y1269D01*
X11410Y1199D01*
X11552Y1156D01*
X11700Y1141D01*
X11848Y1156D01*
X11990Y1199D01*
X12121Y1269D01*
X12236Y1364D01*
X12331Y1479D01*
X12401Y1610D01*
X12444Y1752D01*
X12459Y1900D01*
X12444Y2048D01*
X12401Y2190D01*
X12331Y2321D01*
X12236Y2436D01*
X12121Y2531D01*
X11990Y2601D01*
X11848Y2644D01*
X11700Y2659D01*
D02*
G37*
%LPD*%
G36*
X9150Y18550D02*
X7550Y18550D01*
X4650D01*
Y18900D01*
X7250D01*
X7550Y19200D01*
Y21200D01*
X9150D01*
Y18550D01*
D02*
G37*
D13*
X10978Y16300D02*
D03*
X8222D02*
D03*
D14*
X14600Y6250D02*
D03*
X15500D02*
D03*
X14600Y10350D02*
D03*
X15500D02*
D03*
X13400Y13150D02*
D03*
X12500D02*
D03*
X13400Y15700D02*
D03*
X12500D02*
D03*
Y10350D02*
D03*
X13400D02*
D03*
X13400Y6250D02*
D03*
X12500D02*
D03*
X22000Y10750D02*
D03*
X22900D02*
D03*
X24100Y10750D02*
D03*
X25000D02*
D03*
X28250Y19300D02*
D03*
X27350D02*
D03*
X27350Y17100D02*
D03*
X28250D02*
D03*
X22900Y19700D02*
D03*
X22000D02*
D03*
D15*
X13410Y8570D02*
D03*
X12550Y8200D02*
D03*
Y8940D02*
D03*
X13410Y4430D02*
D03*
X12550Y4060D02*
D03*
Y4800D02*
D03*
X22850Y9250D02*
D03*
X21990Y8880D02*
D03*
Y9620D02*
D03*
X3790Y19095D02*
D03*
Y18355D02*
D03*
X4650Y18725D02*
D03*
D16*
X5192Y14150D02*
D03*
Y13650D02*
D03*
Y13150D02*
D03*
Y12650D02*
D03*
X7327D02*
D03*
Y13150D02*
D03*
Y13650D02*
D03*
Y14150D02*
D03*
D17*
X6250Y13400D02*
D03*
D18*
X9050Y11650D02*
D03*
Y12550D02*
D03*
X4350Y10950D02*
D03*
Y11850D02*
D03*
X6750Y10950D02*
D03*
Y11850D02*
D03*
X7700D02*
D03*
Y10950D02*
D03*
X5200D02*
D03*
Y11850D02*
D03*
X3500D02*
D03*
Y10950D02*
D03*
X4150Y14550D02*
D03*
Y13650D02*
D03*
X8350D02*
D03*
Y14550D02*
D03*
X3300Y13650D02*
D03*
Y14550D02*
D03*
X3100Y9000D02*
D03*
Y8100D02*
D03*
D19*
X6575Y16300D02*
D03*
X3725D02*
D03*
D20*
X1950Y14370D02*
D03*
Y11930D02*
D03*
X10350D02*
D03*
Y14370D02*
D03*
D21*
X32600Y17100D02*
D03*
X32100D02*
D03*
X31600D02*
D03*
X31100D02*
D03*
X30600D02*
D03*
X30100D02*
D03*
X29600D02*
D03*
X31100Y19300D02*
D03*
X31600D02*
D03*
X32100D02*
D03*
X32600D02*
D03*
X29100D02*
D03*
X29600D02*
D03*
X30100D02*
D03*
X30600D02*
D03*
D22*
X29100Y17100D02*
D03*
D23*
X5845Y20500D02*
D03*
X8355D02*
D03*
D39*
X31599Y22151D02*
G03*
X31550Y22150I-14J-460D01*
G01*
X31650Y22150D02*
G03*
X31655Y22150I6J100D01*
G01*
X31650Y22150D02*
G03*
X31604Y22151I-32J-459D01*
G01*
X31599D02*
G03*
X31604Y22151I2J100D01*
G01*
X1900Y8600D02*
X2650Y9350D01*
X1900Y8150D02*
Y8600D01*
X2650Y9350D02*
Y11712D01*
X1900Y8150D02*
X1950Y8100D01*
X2750D02*
X3100D01*
X2650Y8200D02*
X2750Y8100D01*
X2650Y11712D02*
X4088Y13150D01*
X5192D01*
Y12650D02*
X5200Y12642D01*
X7499Y13650D02*
X8599Y12550D01*
X9050D01*
X7327Y13650D02*
X7499D01*
Y13150D02*
X8000Y12649D01*
X7700Y11850D02*
X8000Y12150D01*
Y12649D01*
X7327Y13150D02*
X7499D01*
X3790Y18240D02*
X27260Y18240D01*
X16600Y17680D02*
X17360Y16920D01*
X15750Y4450D02*
Y4591D01*
X15500Y4841D02*
X15750Y4591D01*
X15500Y4841D02*
Y6250D01*
X12500Y8990D02*
Y10350D01*
Y8990D02*
X12550Y8940D01*
X13410Y8570D02*
X13440Y8600D01*
X12500Y10350D02*
X15040Y12890D01*
X13440Y8600D02*
X14350D01*
X16065Y7745D02*
X17360Y9040D01*
X13995Y7745D02*
X16065D01*
X15500Y8991D02*
Y10350D01*
Y8991D02*
X15750Y8741D01*
Y8600D02*
Y8741D01*
X15040Y12890D02*
Y17400D01*
X13400Y15700D02*
X14300D01*
X13400Y15700D02*
X13400Y15700D01*
X13400Y13150D02*
X14300D01*
X17360Y9040D02*
Y16920D01*
X13430Y4450D02*
X14350D01*
X12500Y4850D02*
Y6250D01*
Y4850D02*
X12550Y4800D01*
X12500Y6250D02*
X13995Y7745D01*
X13410Y4430D02*
X13430Y4450D01*
X14126Y19200D02*
X15617Y20691D01*
X12700Y19200D02*
X14126D01*
X27260Y18240D02*
X28100Y17400D01*
X21990Y9620D02*
X22000Y9630D01*
Y10750D01*
X20600Y12150D02*
Y17550D01*
Y12150D02*
X22000Y10750D01*
X30900Y18450D02*
X32600D01*
X30600Y18750D02*
X30900Y18450D01*
X32600D02*
X33200Y19050D01*
X32617Y21691D02*
X33200Y21109D01*
Y19050D02*
Y21109D01*
X30600Y18750D02*
Y19300D01*
X32100D02*
Y22000D01*
X31979Y22121D02*
X32100Y22000D01*
X31655Y22150D02*
X31950D01*
X31979Y22121D01*
X30617Y21691D02*
X31076Y22150D01*
X31550D01*
X30617Y20063D02*
X31100Y19580D01*
X30617Y20063D02*
Y20691D01*
X31100Y20080D02*
X31600Y19580D01*
Y19300D02*
Y19580D01*
X31100Y20080D02*
Y21174D01*
X31617Y21691D01*
X31100Y19300D02*
Y19580D01*
X22900Y19700D02*
X24000D01*
X22900Y19700D02*
X22900Y19700D01*
X25400D02*
X25541D01*
X25791Y19950D01*
X27876D01*
X28617Y20691D01*
D40*
X11450Y11243D02*
Y12600D01*
X1950Y8100D02*
X2750D01*
X1950Y11930D02*
X1950Y11930D01*
X1950Y9500D02*
X1950Y9500D01*
Y11930D01*
X2000Y16300D02*
X3725D01*
X950Y15250D02*
X2000Y16300D01*
X950Y12930D02*
Y15250D01*
Y12930D02*
X1648Y12232D01*
X1970Y11930D02*
X2900Y12860D01*
X4350Y11850D02*
X5200D01*
X3500Y10950D02*
X4350D01*
X6750Y11850D02*
X7700D01*
X10582Y14138D02*
X11450Y13270D01*
X7700Y10950D02*
X11157D01*
X11450Y11243D01*
X10350Y14370D02*
X10370D01*
X10582Y14138D02*
Y14158D01*
X10370Y14370D02*
X10582Y14158D01*
X8900Y14550D02*
X9080Y14370D01*
X8350Y14550D02*
X8900D01*
X9080Y14370D02*
X10350D01*
X2900Y13250D02*
X3300Y13650D01*
X2900Y12860D02*
Y13250D01*
X1950Y11930D02*
X1970D01*
X3300Y13650D02*
X3300Y13650D01*
X4150D01*
X14600Y6250D02*
Y7080D01*
X14680Y7160D01*
X14600Y10350D02*
Y11600D01*
X14720Y11720D01*
X25177Y9273D02*
Y10305D01*
Y9273D02*
X25200Y9250D01*
X27800Y18640D02*
X28200Y19040D01*
X26760Y18640D02*
X27800D01*
X25000Y10482D02*
X25177Y10305D01*
X25000Y10482D02*
Y10750D01*
X24100D02*
Y11700D01*
X24040Y11760D02*
X24100Y11700D01*
D41*
X6575Y15725D02*
Y16300D01*
Y15725D02*
X7327Y14973D01*
Y14150D02*
Y14973D01*
X5200Y11850D02*
Y12642D01*
X4150Y13650D02*
X5192D01*
D42*
X3725Y16300D02*
X3790Y16365D01*
X1930Y11930D02*
X1950D01*
X1648Y12212D02*
Y12232D01*
Y12212D02*
X1930Y11930D01*
X3790Y18240D02*
Y18355D01*
Y16365D02*
Y18240D01*
X22850Y9250D02*
X23800D01*
D43*
X10945Y14946D02*
Y16267D01*
X10978Y16300D01*
X10370Y14370D02*
X10945Y14946D01*
X6575Y16300D02*
X8222D01*
X6575Y16300D02*
X6575Y16300D01*
X8222D02*
X8222Y16300D01*
D44*
X22850Y9250D02*
X22850Y9250D01*
X23800D02*
X23800Y9250D01*
D45*
X3900Y20500D02*
X5845D01*
X5845Y20500D01*
D46*
X15750Y8600D02*
D03*
X14350D02*
D03*
X15750Y4450D02*
D03*
X14350D02*
D03*
X15700Y13150D02*
D03*
X14300D02*
D03*
X15700Y15700D02*
D03*
X14300D02*
D03*
X25200Y9250D02*
D03*
X23800D02*
D03*
X22617Y20691D02*
D03*
X23617D02*
D03*
X24617D02*
D03*
X25617Y21691D02*
D03*
X30617Y20691D02*
D03*
Y21691D02*
D03*
X31617D02*
D03*
X32617D02*
D03*
X1950Y8100D02*
D03*
Y9500D02*
D03*
X13617Y20691D02*
D03*
X14617D02*
D03*
X15617D02*
D03*
X16617D02*
D03*
X17617D02*
D03*
X18617D02*
D03*
X19617D02*
D03*
X20617D02*
D03*
X21617D02*
D03*
X25617D02*
D03*
X26617D02*
D03*
X27617D02*
D03*
X28617D02*
D03*
X29617D02*
D03*
X31617D02*
D03*
X32617D02*
D03*
X13617Y21691D02*
D03*
X14617D02*
D03*
X15617D02*
D03*
X16617D02*
D03*
X17617D02*
D03*
X18617D02*
D03*
X19617D02*
D03*
X20617D02*
D03*
X21617D02*
D03*
X22617D02*
D03*
X23617D02*
D03*
X24617D02*
D03*
X26617D02*
D03*
X27617D02*
D03*
X28617D02*
D03*
X29617D02*
D03*
X25400Y19700D02*
D03*
X24000D02*
D03*
X12700Y19200D02*
D03*
X11300D02*
D03*
D47*
X11700Y1900D02*
D03*
Y21191D02*
D03*
X34535D02*
D03*
Y1900D02*
D03*
D48*
X34035Y18329D02*
D03*
X35035D02*
D03*
Y19329D02*
D03*
X34035D02*
D03*
D49*
X3900Y20500D02*
D03*
X1800D02*
D03*
D50*
X33454Y16496D02*
D03*
X31954Y13496D02*
D03*
X33454Y10496D02*
D03*
X31954Y7496D02*
D03*
X33454Y4496D02*
D03*
X31954Y1496D02*
D03*
X28954Y13496D02*
D03*
X30454Y10496D02*
D03*
X28954Y7496D02*
D03*
X30454Y4496D02*
D03*
X28954Y1496D02*
D03*
X25954Y19496D02*
D03*
X27454Y16496D02*
D03*
Y10496D02*
D03*
X25954Y7496D02*
D03*
X27454Y4496D02*
D03*
X25954Y1496D02*
D03*
X24454Y16496D02*
D03*
X22954Y13496D02*
D03*
Y7496D02*
D03*
X24454Y4496D02*
D03*
X22954Y1496D02*
D03*
X19954Y19496D02*
D03*
X21454Y16496D02*
D03*
X19954Y13496D02*
D03*
X21454Y10496D02*
D03*
X19954Y7496D02*
D03*
X21454Y4496D02*
D03*
X19954Y1496D02*
D03*
X18454Y16496D02*
D03*
X16954Y13496D02*
D03*
X18454Y10496D02*
D03*
X16954Y7496D02*
D03*
X18454Y4496D02*
D03*
X16954Y1496D02*
D03*
X15454Y16496D02*
D03*
X13954Y1496D02*
D03*
X12454Y16496D02*
D03*
X9454D02*
D03*
X7954Y7496D02*
D03*
X9454Y4496D02*
D03*
X7954Y1496D02*
D03*
X4954Y7496D02*
D03*
X6454Y4496D02*
D03*
X4954Y1496D02*
D03*
X1954Y19496D02*
D03*
Y13496D02*
D03*
Y7496D02*
D03*
X3454Y4496D02*
D03*
X1954Y1496D02*
D03*
D51*
X11450Y12600D02*
D03*
Y13270D02*
D03*
X14720Y11720D02*
D03*
X14680Y7160D02*
D03*
X15040Y17400D02*
D03*
X16600Y17680D02*
D03*
X26760Y18640D02*
D03*
X24040Y11760D02*
D03*
X20600Y17550D02*
D03*
M02*
