G04*
G04 #@! TF.GenerationSoftware,Altium Limited,Altium Designer,23.1.1 (15)*
G04*
G04 Layer_Color=128*
%FSLAX24Y24*%
%MOIN*%
G70*
G04*
G04 #@! TF.SameCoordinates,385EC99C-E85F-452A-9B23-167F912ADACD*
G04*
G04*
G04 #@! TF.FilePolarity,Positive*
G04*
G01*
G75*
%ADD53C,0.0020*%
D53*
X15575Y8600D02*
X15925D01*
X15750Y8425D02*
Y8775D01*
X14175Y8600D02*
X14525D01*
X14350Y8425D02*
Y8775D01*
X11169Y1900D02*
X12232D01*
X11700Y1368D02*
Y2431D01*
X15575Y4450D02*
X15925D01*
X15750Y4275D02*
Y4625D01*
X14175Y4450D02*
X14525D01*
X14350Y4275D02*
Y4625D01*
X15525Y13150D02*
X15875D01*
X15700Y12975D02*
Y13325D01*
X14125Y13150D02*
X14475D01*
X14300Y12975D02*
Y13325D01*
X15525Y15700D02*
X15875D01*
X15700Y15525D02*
Y15875D01*
X14125Y15700D02*
X14475D01*
X14300Y15525D02*
Y15875D01*
X25025Y9250D02*
X25375D01*
X25200Y9075D02*
Y9425D01*
X23625Y9250D02*
X23975D01*
X23800Y9075D02*
Y9425D01*
X33838Y18329D02*
X34232D01*
X34035Y18132D02*
Y18526D01*
X34838Y18329D02*
X35231D01*
X35035Y18132D02*
Y18526D01*
X34838Y19329D02*
X35231D01*
X35035Y19132D02*
Y19526D01*
X33838Y19329D02*
X34232D01*
X34035Y19132D02*
Y19526D01*
X11169Y21191D02*
X12232D01*
X11700Y20660D02*
Y21723D01*
X34003Y21191D02*
X35066D01*
X34535Y20660D02*
Y21723D01*
X34003Y1900D02*
X35066D01*
X34535Y1368D02*
Y2431D01*
X22417Y20691D02*
X22818D01*
X22617Y20491D02*
Y20892D01*
X23417Y20691D02*
X23818D01*
X23617Y20491D02*
Y20892D01*
X24417Y20691D02*
X24818D01*
X24617Y20491D02*
Y20892D01*
X25417Y21691D02*
X25818D01*
X25617Y21491D02*
Y21892D01*
X30417Y20691D02*
X30818D01*
X30617Y20491D02*
Y20892D01*
X30417Y21691D02*
X30818D01*
X30617Y21491D02*
Y21892D01*
X31417Y21691D02*
X31818D01*
X31617Y21491D02*
Y21892D01*
X32417Y21691D02*
X32818D01*
X32617Y21491D02*
Y21892D01*
X3590Y20500D02*
X4210D01*
X3900Y20190D02*
Y20810D01*
X1775Y8100D02*
X2125D01*
X1950Y7925D02*
Y8275D01*
X1775Y9500D02*
X2125D01*
X1950Y9325D02*
Y9675D01*
X1490Y20500D02*
X2110D01*
X1800Y20190D02*
Y20810D01*
X13417Y20691D02*
X13818D01*
X13617Y20491D02*
Y20892D01*
X14417Y20691D02*
X14818D01*
X14617Y20491D02*
Y20892D01*
X15417Y20691D02*
X15818D01*
X15617Y20491D02*
Y20892D01*
X16417Y20691D02*
X16818D01*
X16617Y20491D02*
Y20892D01*
X17417Y20691D02*
X17818D01*
X17617Y20491D02*
Y20892D01*
X18417Y20691D02*
X18818D01*
X18617Y20491D02*
Y20892D01*
X19417Y20691D02*
X19818D01*
X19617Y20491D02*
Y20892D01*
X20417Y20691D02*
X20818D01*
X20617Y20491D02*
Y20892D01*
X21417Y20691D02*
X21818D01*
X21617Y20491D02*
Y20892D01*
X25417Y20691D02*
X25818D01*
X25617Y20491D02*
Y20892D01*
X26417Y20691D02*
X26818D01*
X26617Y20491D02*
Y20892D01*
X27417Y20691D02*
X27818D01*
X27617Y20491D02*
Y20892D01*
X28417Y20691D02*
X28818D01*
X28617Y20491D02*
Y20892D01*
X29417Y20691D02*
X29818D01*
X29617Y20491D02*
Y20892D01*
X31417Y20691D02*
X31818D01*
X31617Y20491D02*
Y20892D01*
X32417Y20691D02*
X32818D01*
X32617Y20491D02*
Y20892D01*
X13417Y21691D02*
X13818D01*
X13617Y21491D02*
Y21892D01*
X14417Y21691D02*
X14818D01*
X14617Y21491D02*
Y21892D01*
X15417Y21691D02*
X15818D01*
X15617Y21491D02*
Y21892D01*
X16417Y21691D02*
X16818D01*
X16617Y21491D02*
Y21892D01*
X17417Y21691D02*
X17818D01*
X17617Y21491D02*
Y21892D01*
X18417Y21691D02*
X18818D01*
X18617Y21491D02*
Y21892D01*
X19417Y21691D02*
X19818D01*
X19617Y21491D02*
Y21892D01*
X20417Y21691D02*
X20818D01*
X20617Y21491D02*
Y21892D01*
X21417Y21691D02*
X21818D01*
X21617Y21491D02*
Y21892D01*
X22417Y21691D02*
X22818D01*
X22617Y21491D02*
Y21892D01*
X23417Y21691D02*
X23818D01*
X23617Y21491D02*
Y21892D01*
X24417Y21691D02*
X24818D01*
X24617Y21491D02*
Y21892D01*
X26417Y21691D02*
X26818D01*
X26617Y21491D02*
Y21892D01*
X27417Y21691D02*
X27818D01*
X27617Y21491D02*
Y21892D01*
X28417Y21691D02*
X28818D01*
X28617Y21491D02*
Y21892D01*
X29417Y21691D02*
X29818D01*
X29617Y21491D02*
Y21892D01*
X25225Y19700D02*
X25575D01*
X25400Y19525D02*
Y19875D01*
X23825Y19700D02*
X24175D01*
X24000Y19525D02*
Y19875D01*
X12525Y19200D02*
X12875D01*
X12700Y19025D02*
Y19375D01*
X11125Y19200D02*
X11475D01*
X11300Y19025D02*
Y19375D01*
X33344Y16496D02*
X33564D01*
X33454Y16386D02*
Y16606D01*
X31844Y13496D02*
X32064D01*
X31954Y13386D02*
Y13606D01*
X33344Y10496D02*
X33564D01*
X33454Y10386D02*
Y10606D01*
X31844Y7496D02*
X32064D01*
X31954Y7386D02*
Y7606D01*
X33344Y4496D02*
X33564D01*
X33454Y4386D02*
Y4606D01*
X31844Y1496D02*
X32064D01*
X31954Y1386D02*
Y1606D01*
X28844Y13496D02*
X29064D01*
X28954Y13386D02*
Y13606D01*
X30344Y10496D02*
X30564D01*
X30454Y10386D02*
Y10606D01*
X28844Y7496D02*
X29064D01*
X28954Y7386D02*
Y7606D01*
X30344Y4496D02*
X30564D01*
X30454Y4386D02*
Y4606D01*
X28844Y1496D02*
X29064D01*
X28954Y1386D02*
Y1606D01*
X25844Y19496D02*
X26064D01*
X25954Y19386D02*
Y19606D01*
X27344Y16496D02*
X27564D01*
X27454Y16386D02*
Y16606D01*
X27344Y10496D02*
X27564D01*
X27454Y10386D02*
Y10606D01*
X25844Y7496D02*
X26064D01*
X25954Y7386D02*
Y7606D01*
X27344Y4496D02*
X27564D01*
X27454Y4386D02*
Y4606D01*
X25844Y1496D02*
X26064D01*
X25954Y1386D02*
Y1606D01*
X24344Y16496D02*
X24564D01*
X24454Y16386D02*
Y16606D01*
X22844Y13496D02*
X23064D01*
X22954Y13386D02*
Y13606D01*
X22844Y7496D02*
X23064D01*
X22954Y7386D02*
Y7606D01*
X24344Y4496D02*
X24564D01*
X24454Y4386D02*
Y4606D01*
X22844Y1496D02*
X23064D01*
X22954Y1386D02*
Y1606D01*
X19844Y19496D02*
X20064D01*
X19954Y19386D02*
Y19606D01*
X21344Y16496D02*
X21564D01*
X21454Y16386D02*
Y16606D01*
X19844Y13496D02*
X20064D01*
X19954Y13386D02*
Y13606D01*
X21344Y10496D02*
X21564D01*
X21454Y10386D02*
Y10606D01*
X19844Y7496D02*
X20064D01*
X19954Y7386D02*
Y7606D01*
X21344Y4496D02*
X21564D01*
X21454Y4386D02*
Y4606D01*
X19844Y1496D02*
X20064D01*
X19954Y1386D02*
Y1606D01*
X18344Y16496D02*
X18564D01*
X18454Y16386D02*
Y16606D01*
X16844Y13496D02*
X17064D01*
X16954Y13386D02*
Y13606D01*
X18344Y10496D02*
X18564D01*
X18454Y10386D02*
Y10606D01*
X16844Y7496D02*
X17064D01*
X16954Y7386D02*
Y7606D01*
X18344Y4496D02*
X18564D01*
X18454Y4386D02*
Y4606D01*
X16844Y1496D02*
X17064D01*
X16954Y1386D02*
Y1606D01*
X15344Y16496D02*
X15564D01*
X15454Y16386D02*
Y16606D01*
X13844Y1496D02*
X14064D01*
X13954Y1386D02*
Y1606D01*
X12344Y16496D02*
X12564D01*
X12454Y16386D02*
Y16606D01*
X9344Y16496D02*
X9564D01*
X9454Y16386D02*
Y16606D01*
X7844Y7496D02*
X8064D01*
X7954Y7386D02*
Y7606D01*
X9344Y4496D02*
X9564D01*
X9454Y4386D02*
Y4606D01*
X7844Y1496D02*
X8064D01*
X7954Y1386D02*
Y1606D01*
X4844Y7496D02*
X5064D01*
X4954Y7386D02*
Y7606D01*
X6344Y4496D02*
X6564D01*
X6454Y4386D02*
Y4606D01*
X4844Y1496D02*
X5064D01*
X4954Y1386D02*
Y1606D01*
X1844Y19496D02*
X2064D01*
X1954Y19386D02*
Y19606D01*
X1844Y13496D02*
X2064D01*
X1954Y13386D02*
Y13606D01*
X1844Y7496D02*
X2064D01*
X1954Y7386D02*
Y7606D01*
X3344Y4496D02*
X3564D01*
X3454Y4386D02*
Y4606D01*
X1844Y1496D02*
X2064D01*
X1954Y1386D02*
Y1606D01*
X11310Y12600D02*
X11590D01*
X11450Y12460D02*
Y12740D01*
X11310Y13270D02*
X11590D01*
X11450Y13130D02*
Y13410D01*
X14580Y11720D02*
X14860D01*
X14720Y11580D02*
Y11860D01*
X14540Y7160D02*
X14820D01*
X14680Y7020D02*
Y7300D01*
X14900Y17400D02*
X15180D01*
X15040Y17260D02*
Y17540D01*
X16460Y17680D02*
X16740D01*
X16600Y17540D02*
Y17820D01*
X26620Y18640D02*
X26900D01*
X26760Y18500D02*
Y18780D01*
X23900Y11760D02*
X24180D01*
X24040Y11620D02*
Y11900D01*
X20460Y17550D02*
X20740D01*
X20600Y17410D02*
Y17690D01*
M02*
