G04*
G04 #@! TF.GenerationSoftware,Altium Limited,Altium Designer,22.10.1 (41)*
G04*
G04 Layer_Color=16711935*
%FSLAX23Y23*%
%MOIN*%
G70*
G04*
G04 #@! TF.SameCoordinates,9DCC93BE-6794-47A7-A240-529396958765*
G04*
G04*
G04 #@! TF.FilePolarity,Negative*
G04*
G01*
G75*
%ADD34C,0.038*%
%ADD35C,0.070*%
%ADD36C,0.068*%
%ADD37C,0.108*%
D34*
X3403Y1833D02*
D03*
X3503D02*
D03*
Y1933D02*
D03*
X3403D02*
D03*
D35*
X1310Y1315D02*
D03*
X1450D02*
D03*
X1310Y1570D02*
D03*
X1450D02*
D03*
X1315Y860D02*
D03*
X1455D02*
D03*
X1315Y445D02*
D03*
X1455D02*
D03*
X2380Y925D02*
D03*
X2520D02*
D03*
X2262Y2069D02*
D03*
X2362D02*
D03*
X2462D02*
D03*
X2562Y2169D02*
D03*
X3062Y2069D02*
D03*
Y2169D02*
D03*
X3162D02*
D03*
X3262D02*
D03*
X210Y940D02*
D03*
Y1080D02*
D03*
X1362Y2069D02*
D03*
X1462D02*
D03*
X1562D02*
D03*
X1662D02*
D03*
X1762D02*
D03*
X1862D02*
D03*
X1962D02*
D03*
X2062D02*
D03*
X2162D02*
D03*
X2562D02*
D03*
X2662D02*
D03*
X2762D02*
D03*
X2862D02*
D03*
X2962D02*
D03*
X3162D02*
D03*
X3262D02*
D03*
X1362Y2169D02*
D03*
X1462D02*
D03*
X1562D02*
D03*
X1662D02*
D03*
X1762D02*
D03*
X1862D02*
D03*
X1962D02*
D03*
X2062D02*
D03*
X2162D02*
D03*
X2262D02*
D03*
X2362D02*
D03*
X2462D02*
D03*
X2662D02*
D03*
X2762D02*
D03*
X2862D02*
D03*
X2962D02*
D03*
X2540Y1970D02*
D03*
X2400D02*
D03*
X1270Y1920D02*
D03*
X1130D02*
D03*
D36*
X1170Y190D02*
D03*
Y2119D02*
D03*
X3453D02*
D03*
Y190D02*
D03*
D37*
X390Y2050D02*
D03*
X180D02*
D03*
M02*
