G04*
G04 #@! TF.GenerationSoftware,Altium Limited,Altium Designer,22.10.1 (41)*
G04*
G04 Layer_Color=32768*
%FSLAX23Y23*%
%MOIN*%
G70*
G04*
G04 #@! TF.SameCoordinates,9DCC93BE-6794-47A7-A240-529396958765*
G04*
G04*
G04 #@! TF.FilePolarity,Positive*
G04*
G01*
G75*
%ADD10C,0.008*%
%ADD11C,0.006*%
%ADD56C,0.002*%
%ADD57C,0.004*%
D10*
X2885Y1710D02*
G03*
X2885Y1710I-6J0D01*
G01*
X2879Y1706D02*
Y1714D01*
X2875Y1710D02*
X2883D01*
D11*
X3282Y1745D02*
Y1895D01*
X2888D02*
X3282D01*
X2888Y1745D02*
X3282D01*
X2888D02*
Y1895D01*
X400Y1330D02*
Y1410D01*
X350Y1330D02*
Y1410D01*
Y1330D02*
X400D01*
X350Y1410D02*
X400D01*
X1135Y1595D02*
X1215D01*
X1135Y1545D02*
X1215D01*
Y1595D01*
X1135Y1545D02*
Y1595D01*
Y1340D02*
X1215D01*
X1135Y1290D02*
X1215D01*
Y1340D01*
X1135Y1290D02*
Y1340D01*
X1135Y650D02*
X1215D01*
X1135Y600D02*
X1215D01*
Y650D01*
X1135Y600D02*
Y650D01*
X2205Y1100D02*
X2285D01*
X2205Y1050D02*
X2285D01*
Y1100D01*
X2205Y1050D02*
Y1100D01*
X2267Y868D02*
Y982D01*
X2217Y868D02*
Y982D01*
Y868D02*
X2267D01*
X2217Y982D02*
X2267D01*
X2415Y1100D02*
X2495D01*
X2415Y1050D02*
X2495D01*
Y1100D01*
X2415Y1050D02*
Y1100D01*
X710Y1330D02*
X760D01*
X710Y1410D02*
X760D01*
Y1330D02*
Y1410D01*
X710Y1330D02*
Y1410D01*
X635Y1330D02*
X685D01*
X635Y1410D02*
X685D01*
Y1330D02*
Y1410D01*
X635Y1330D02*
Y1410D01*
X560Y1330D02*
X610D01*
X560Y1410D02*
X610D01*
Y1330D02*
Y1410D01*
X560Y1330D02*
Y1410D01*
X250Y1410D02*
X300D01*
X250Y1330D02*
X300D01*
X250D02*
Y1410D01*
X300Y1330D02*
Y1410D01*
X223Y1930D02*
X273D01*
X223Y1816D02*
X273D01*
X223D02*
Y1930D01*
X273Y1816D02*
Y1930D01*
X310Y1050D02*
X360D01*
X310Y970D02*
X360D01*
X310D02*
Y1050D01*
X360Y970D02*
Y1050D01*
X1345Y600D02*
Y650D01*
X1425Y600D02*
Y650D01*
X1345Y600D02*
X1425D01*
X1345Y650D02*
X1425D01*
X1345Y1010D02*
Y1060D01*
X1425Y1010D02*
Y1060D01*
X1345Y1010D02*
X1425D01*
X1345Y1060D02*
X1425D01*
X1135Y1010D02*
Y1060D01*
X1215Y1010D02*
Y1060D01*
X1135Y1010D02*
X1215D01*
X1135Y1060D02*
X1215D01*
X1153Y500D02*
X1203D01*
X1153Y386D02*
X1203D01*
X1153D02*
Y500D01*
X1203Y386D02*
Y500D01*
X1153Y914D02*
X1203D01*
X1153Y800D02*
X1203D01*
X1153D02*
Y914D01*
X1203Y800D02*
Y914D01*
X2740Y1905D02*
Y1955D01*
X2820Y1905D02*
Y1955D01*
X2740Y1905D02*
X2820D01*
X2740Y1955D02*
X2820D01*
X2820Y1685D02*
Y1735D01*
X2740Y1685D02*
Y1735D01*
X2820D01*
X2740Y1685D02*
X2820D01*
X2205Y1945D02*
Y1995D01*
X2285Y1945D02*
Y1995D01*
X2205Y1945D02*
X2285D01*
X2205Y1995D02*
X2285D01*
D56*
X2949Y1790D02*
G03*
X2949Y1790I-14J0D01*
G01*
X2888Y1765D02*
X3282D01*
X3257Y1910D02*
X3263D01*
X3207D02*
X3213D01*
X3157D02*
X3163D01*
X3107D02*
X3113D01*
X3057D02*
X3063D01*
X3007D02*
X3013D01*
X2957D02*
X2963D01*
X2907D02*
X2913D01*
X3257Y1730D02*
X3263D01*
X3207D02*
X3213D01*
X3157D02*
X3163D01*
X3107D02*
X3113D01*
X3057D02*
X3063D01*
X3007D02*
X3013D01*
X2957D02*
X2963D01*
X2907D02*
X2913D01*
X350Y1346D02*
X400D01*
X350Y1394D02*
X400D01*
X1199Y1545D02*
Y1595D01*
X1151Y1545D02*
Y1595D01*
X1199Y1290D02*
Y1340D01*
X1151Y1290D02*
Y1340D01*
X1199Y600D02*
Y650D01*
X1151Y600D02*
Y650D01*
X2269Y1050D02*
Y1100D01*
X2221Y1050D02*
Y1100D01*
X2195Y879D02*
Y897D01*
X2202Y879D02*
Y897D01*
X2208Y884D02*
Y892D01*
X2195Y953D02*
Y971D01*
X2202Y953D02*
Y971D01*
X2208Y958D02*
Y966D01*
X2276Y921D02*
Y929D01*
X2282Y916D02*
Y934D01*
X2289Y916D02*
Y934D01*
X2195Y879D02*
X2217D01*
X2195Y897D02*
X2217D01*
X2195Y953D02*
X2217D01*
X2195Y971D02*
X2217D01*
X2267Y916D02*
X2289D01*
X2267Y934D02*
X2289D01*
X2479Y1050D02*
Y1100D01*
X2431Y1050D02*
Y1100D01*
X710Y1346D02*
X760D01*
X710Y1394D02*
X760D01*
X635Y1346D02*
X685D01*
X635Y1394D02*
X685D01*
X560Y1346D02*
X610D01*
X560Y1394D02*
X610D01*
X250Y1394D02*
X300D01*
X250Y1346D02*
X300D01*
X273Y1882D02*
X295D01*
X273Y1864D02*
X295D01*
X201Y1919D02*
X223D01*
X201Y1901D02*
X223D01*
X201Y1845D02*
X223D01*
X201Y1827D02*
X223D01*
X295Y1864D02*
Y1882D01*
X288Y1864D02*
Y1882D01*
X282Y1869D02*
Y1877D01*
X214Y1906D02*
Y1914D01*
X208Y1901D02*
Y1919D01*
X201Y1901D02*
Y1919D01*
X214Y1832D02*
Y1840D01*
X208Y1827D02*
Y1845D01*
X201Y1827D02*
Y1845D01*
X310Y1034D02*
X360D01*
X310Y986D02*
X360D01*
X1361Y600D02*
Y650D01*
X1409Y600D02*
Y650D01*
X1361Y1010D02*
Y1060D01*
X1409Y1010D02*
Y1060D01*
X1151Y1010D02*
Y1060D01*
X1199Y1010D02*
Y1060D01*
X1203Y452D02*
X1225D01*
X1203Y434D02*
X1225D01*
X1131Y489D02*
X1153D01*
X1131Y471D02*
X1153D01*
X1131Y415D02*
X1153D01*
X1131Y397D02*
X1153D01*
X1225Y434D02*
Y452D01*
X1218Y434D02*
Y452D01*
X1212Y439D02*
Y447D01*
X1144Y476D02*
Y484D01*
X1138Y471D02*
Y489D01*
X1131Y471D02*
Y489D01*
X1144Y402D02*
Y410D01*
X1138Y397D02*
Y415D01*
X1131Y397D02*
Y415D01*
X1203Y866D02*
X1225D01*
X1203Y848D02*
X1225D01*
X1131Y903D02*
X1153D01*
X1131Y885D02*
X1153D01*
X1131Y829D02*
X1153D01*
X1131Y811D02*
X1153D01*
X1225Y848D02*
Y866D01*
X1218Y848D02*
Y866D01*
X1212Y853D02*
Y861D01*
X1144Y890D02*
Y898D01*
X1138Y885D02*
Y903D01*
X1131Y885D02*
Y903D01*
X1144Y816D02*
Y824D01*
X1138Y811D02*
Y829D01*
X1131Y811D02*
Y829D01*
X2756Y1905D02*
Y1955D01*
X2804Y1905D02*
Y1955D01*
X2804Y1685D02*
Y1735D01*
X2756Y1685D02*
Y1735D01*
X2221Y1945D02*
Y1995D01*
X2269Y1945D02*
Y1995D01*
D57*
X3252Y1895D02*
Y1940D01*
X3268Y1895D02*
Y1940D01*
X3252D02*
X3268D01*
X3252Y1920D02*
X3268D01*
X3202D02*
X3218D01*
X3202Y1940D02*
X3218D01*
Y1895D02*
Y1940D01*
X3202Y1895D02*
Y1940D01*
X3152Y1920D02*
X3168D01*
X3152Y1940D02*
X3168D01*
Y1895D02*
Y1940D01*
X3152Y1895D02*
Y1940D01*
X3102Y1920D02*
X3118D01*
X3102Y1940D02*
X3118D01*
Y1895D02*
Y1940D01*
X3102Y1895D02*
Y1940D01*
X3052Y1920D02*
X3068D01*
X3052Y1940D02*
X3068D01*
Y1895D02*
Y1940D01*
X3052Y1895D02*
Y1940D01*
X3002Y1920D02*
X3018D01*
X3002Y1940D02*
X3018D01*
Y1895D02*
Y1940D01*
X3002Y1895D02*
Y1940D01*
X2952Y1920D02*
X2968D01*
X2952Y1940D02*
X2968D01*
Y1895D02*
Y1940D01*
X2952Y1895D02*
Y1940D01*
X2902Y1920D02*
X2918D01*
X2902Y1940D02*
X2918D01*
Y1895D02*
Y1940D01*
X2902Y1895D02*
Y1940D01*
X3268Y1700D02*
Y1745D01*
X3252Y1700D02*
Y1745D01*
Y1700D02*
X3268D01*
X3252Y1720D02*
X3268D01*
X3218Y1700D02*
Y1745D01*
X3202Y1700D02*
Y1745D01*
Y1700D02*
X3218D01*
X3202Y1720D02*
X3218D01*
X3168Y1700D02*
Y1745D01*
X3152Y1700D02*
Y1745D01*
Y1700D02*
X3168D01*
X3152Y1720D02*
X3168D01*
X3118Y1700D02*
Y1745D01*
X3102Y1700D02*
Y1745D01*
Y1700D02*
X3118D01*
X3102Y1720D02*
X3118D01*
X3068Y1700D02*
Y1745D01*
X3052Y1700D02*
Y1745D01*
Y1700D02*
X3068D01*
X3052Y1720D02*
X3068D01*
X3018Y1700D02*
Y1745D01*
X3002Y1700D02*
Y1745D01*
Y1700D02*
X3018D01*
X3002Y1720D02*
X3018D01*
X2968Y1700D02*
Y1745D01*
X2952Y1700D02*
Y1745D01*
Y1700D02*
X2968D01*
X2952Y1720D02*
X2968D01*
X2902D02*
X2918D01*
X2902Y1700D02*
X2918D01*
X2902D02*
Y1745D01*
X2918Y1700D02*
Y1745D01*
M02*
