G04*
G04 #@! TF.GenerationSoftware,Altium Limited,Altium Designer,22.10.1 (41)*
G04*
G04 Layer_Color=16711935*
%FSLAX23Y23*%
%MOIN*%
G70*
G04*
G04 #@! TF.SameCoordinates,9DCC93BE-6794-47A7-A240-529396958765*
G04*
G04*
G04 #@! TF.FilePolarity,Positive*
G04*
G01*
G75*
%ADD38C,0.010*%
%ADD55C,0.001*%
D38*
X166Y2257D02*
G03*
X48Y2139I0J-118D01*
G01*
Y170D02*
G03*
X166Y52I118J0D01*
G01*
X3543Y2139D02*
G03*
X3425Y2257I-118J0D01*
G01*
Y52D02*
G03*
X3543Y170I0J118D01*
G01*
X166Y2257D02*
X3425D01*
X166Y52D02*
X3425D01*
X3543Y170D02*
Y2139D01*
X48Y170D02*
Y2139D01*
D55*
X3423Y1833D02*
G03*
X3423Y1833I-20J0D01*
G01*
X3523D02*
G03*
X3523Y1833I-20J0D01*
G01*
Y1933D02*
G03*
X3523Y1933I-20J0D01*
G01*
X3423D02*
G03*
X3423Y1933I-20J0D01*
G01*
X3507Y190D02*
G03*
X3507Y190I-53J0D01*
G01*
X2381Y2069D02*
G03*
X2381Y2069I-20J0D01*
G01*
X2281D02*
G03*
X2281Y2069I-20J0D01*
G01*
X2681D02*
G03*
X2681Y2069I-20J0D01*
G01*
X2581D02*
G03*
X2581Y2069I-20J0D01*
G01*
X2181D02*
G03*
X2181Y2069I-20J0D01*
G01*
X2481D02*
G03*
X2481Y2069I-20J0D01*
G01*
X1881D02*
G03*
X1881Y2069I-20J0D01*
G01*
X1581D02*
G03*
X1581Y2069I-20J0D01*
G01*
X1681D02*
G03*
X1681Y2069I-20J0D01*
G01*
X1781D02*
G03*
X1781Y2069I-20J0D01*
G01*
X1481D02*
G03*
X1481Y2069I-20J0D01*
G01*
X1981D02*
G03*
X1981Y2069I-20J0D01*
G01*
X2081D02*
G03*
X2081Y2069I-20J0D01*
G01*
X1381D02*
G03*
X1381Y2069I-20J0D01*
G01*
X2781Y2169D02*
G03*
X2781Y2169I-20J0D01*
G01*
X2081D02*
G03*
X2081Y2169I-20J0D01*
G01*
X1481D02*
G03*
X1481Y2169I-20J0D01*
G01*
X1781D02*
G03*
X1781Y2169I-20J0D01*
G01*
X1881D02*
G03*
X1881Y2169I-20J0D01*
G01*
X1981D02*
G03*
X1981Y2169I-20J0D01*
G01*
X1681D02*
G03*
X1681Y2169I-20J0D01*
G01*
X1581D02*
G03*
X1581Y2169I-20J0D01*
G01*
X1223Y190D02*
G03*
X1223Y190I-53J0D01*
G01*
Y2119D02*
G03*
X1223Y2119I-53J0D01*
G01*
X2981Y2069D02*
G03*
X2981Y2069I-20J0D01*
G01*
X3507Y2119D02*
G03*
X3507Y2119I-53J0D01*
G01*
X3281Y2069D02*
G03*
X3281Y2069I-20J0D01*
G01*
X3081D02*
G03*
X3081Y2069I-20J0D01*
G01*
X3181D02*
G03*
X3181Y2069I-20J0D01*
G01*
X2781D02*
G03*
X2781Y2069I-20J0D01*
G01*
X2881D02*
G03*
X2881Y2069I-20J0D01*
G01*
X1381Y2169D02*
G03*
X1381Y2169I-20J0D01*
G01*
X2981D02*
G03*
X2981Y2169I-20J0D01*
G01*
X2881D02*
G03*
X2881Y2169I-20J0D01*
G01*
X2581D02*
G03*
X2581Y2169I-20J0D01*
G01*
X2481D02*
G03*
X2481Y2169I-20J0D01*
G01*
X2381D02*
G03*
X2381Y2169I-20J0D01*
G01*
X2681D02*
G03*
X2681Y2169I-20J0D01*
G01*
X2281D02*
G03*
X2281Y2169I-20J0D01*
G01*
X2181D02*
G03*
X2181Y2169I-20J0D01*
G01*
X3281D02*
G03*
X3281Y2169I-20J0D01*
G01*
X3181D02*
G03*
X3181Y2169I-20J0D01*
G01*
X3081D02*
G03*
X3081Y2169I-20J0D01*
G01*
M02*
