G04*
G04 #@! TF.GenerationSoftware,Altium Limited,Altium Designer,23.1.1 (15)*
G04*
G04 Layer_Color=16711935*
%FSLAX24Y24*%
%MOIN*%
G70*
G04*
G04 #@! TF.SameCoordinates,385EC99C-E85F-452A-9B23-167F912ADACD*
G04*
G04*
G04 #@! TF.FilePolarity,Negative*
G04*
G01*
G75*
%ADD35C,0.0700*%
%ADD36C,0.0680*%
%ADD37C,0.0380*%
%ADD38C,0.1080*%
D35*
X15750Y8600D02*
D03*
X14350D02*
D03*
X15750Y4450D02*
D03*
X14350D02*
D03*
X15700Y13150D02*
D03*
X14300D02*
D03*
X15700Y15700D02*
D03*
X14300D02*
D03*
X25200Y9250D02*
D03*
X23800D02*
D03*
X22617Y20691D02*
D03*
X23617D02*
D03*
X24617D02*
D03*
X25617Y21691D02*
D03*
X30617Y20691D02*
D03*
Y21691D02*
D03*
X31617D02*
D03*
X32617D02*
D03*
X1950Y8100D02*
D03*
Y9500D02*
D03*
X13617Y20691D02*
D03*
X14617D02*
D03*
X15617D02*
D03*
X16617D02*
D03*
X17617D02*
D03*
X18617D02*
D03*
X19617D02*
D03*
X20617D02*
D03*
X21617D02*
D03*
X25617D02*
D03*
X26617D02*
D03*
X27617D02*
D03*
X28617D02*
D03*
X29617D02*
D03*
X31617D02*
D03*
X32617D02*
D03*
X13617Y21691D02*
D03*
X14617D02*
D03*
X15617D02*
D03*
X16617D02*
D03*
X17617D02*
D03*
X18617D02*
D03*
X19617D02*
D03*
X20617D02*
D03*
X21617D02*
D03*
X22617D02*
D03*
X23617D02*
D03*
X24617D02*
D03*
X26617D02*
D03*
X27617D02*
D03*
X28617D02*
D03*
X29617D02*
D03*
X25400Y19700D02*
D03*
X24000D02*
D03*
X12700Y19200D02*
D03*
X11300D02*
D03*
D36*
X11700Y1900D02*
D03*
Y21191D02*
D03*
X34535D02*
D03*
Y1900D02*
D03*
D37*
X34035Y18329D02*
D03*
X35035D02*
D03*
Y19329D02*
D03*
X34035D02*
D03*
D38*
X3900Y20500D02*
D03*
X1800D02*
D03*
M02*
