G04*
G04 #@! TF.GenerationSoftware,Altium Limited,Altium Designer,23.1.1 (15)*
G04*
G04 Layer_Color=32768*
%FSLAX24Y24*%
%MOIN*%
G70*
G04*
G04 #@! TF.SameCoordinates,385EC99C-E85F-452A-9B23-167F912ADACD*
G04*
G04*
G04 #@! TF.FilePolarity,Positive*
G04*
G01*
G75*
%ADD10C,0.0080*%
%ADD12C,0.0060*%
%ADD53C,0.0020*%
%ADD54C,0.0040*%
D10*
X28850Y17100D02*
G03*
X28850Y17100I-60J0D01*
G01*
X28790Y17060D02*
Y17140D01*
X28750Y17100D02*
X28830D01*
D12*
X14650Y6500D02*
X15450D01*
X14650Y6000D02*
X15450D01*
Y6500D01*
X14650Y6000D02*
Y6500D01*
Y10600D02*
X15450D01*
X14650Y10100D02*
X15450D01*
Y10600D01*
X14650Y10100D02*
Y10600D01*
X12550Y12900D02*
Y13400D01*
X13350Y12900D02*
Y13400D01*
X12550Y12900D02*
X13350D01*
X12550Y13400D02*
X13350D01*
X12550Y15450D02*
Y15950D01*
X13350Y15450D02*
Y15950D01*
X12550Y15450D02*
X13350D01*
X12550Y15950D02*
X13350D01*
X12550Y10600D02*
X13350D01*
X12550Y10100D02*
X13350D01*
Y10600D01*
X12550Y10100D02*
Y10600D01*
X13230Y8000D02*
Y9140D01*
X12730Y8000D02*
Y9140D01*
Y8000D02*
X13230D01*
X12730Y9140D02*
X13230D01*
X12550Y6000D02*
Y6500D01*
X13350Y6000D02*
Y6500D01*
X12550Y6000D02*
X13350D01*
X12550Y6500D02*
X13350D01*
X13230Y3860D02*
Y5000D01*
X12730Y3860D02*
Y5000D01*
Y3860D02*
X13230D01*
X12730Y5000D02*
X13230D01*
X8800Y12500D02*
X9300D01*
X8800Y11700D02*
X9300D01*
X8800D02*
Y12500D01*
X9300Y11700D02*
Y12500D01*
X4100Y11800D02*
X4600D01*
X4100Y11000D02*
X4600D01*
X4100D02*
Y11800D01*
X4600Y11000D02*
Y11800D01*
X6500D02*
X7000D01*
X6500Y11000D02*
X7000D01*
X6500D02*
Y11800D01*
X7000Y11000D02*
Y11800D01*
X7450Y11000D02*
X7950D01*
X7450Y11800D02*
X7950D01*
Y11000D02*
Y11800D01*
X7450Y11000D02*
Y11800D01*
X4950D02*
X5450D01*
X4950Y11000D02*
X5450D01*
X4950D02*
Y11800D01*
X5450Y11000D02*
Y11800D01*
X3250Y11000D02*
X3750D01*
X3250Y11800D02*
X3750D01*
Y11000D02*
Y11800D01*
X3250Y11000D02*
Y11800D01*
X3900Y13700D02*
X4400D01*
X3900Y14500D02*
X4400D01*
Y13700D02*
Y14500D01*
X3900Y13700D02*
Y14500D01*
X8100D02*
X8600D01*
X8100Y13700D02*
X8600D01*
X8100D02*
Y14500D01*
X8600Y13700D02*
Y14500D01*
X32820Y17450D02*
Y18950D01*
X28880D02*
X32820D01*
X28880Y17450D02*
X32820D01*
X28880D02*
Y18950D01*
X3050Y13700D02*
Y14500D01*
X3550Y13700D02*
Y14500D01*
X3050D02*
X3550D01*
X3050Y13700D02*
X3550D01*
X22050Y11000D02*
X22850D01*
X22050Y10500D02*
X22850D01*
Y11000D01*
X22050Y10500D02*
Y11000D01*
X22670Y8680D02*
Y9820D01*
X22170Y8680D02*
Y9820D01*
Y8680D02*
X22670D01*
X22170Y9820D02*
X22670D01*
X24150Y11000D02*
X24950D01*
X24150Y10500D02*
X24950D01*
Y11000D01*
X24150Y10500D02*
Y11000D01*
X3970Y19295D02*
X4470D01*
X3970Y18155D02*
X4470D01*
X3970D02*
Y19295D01*
X4470Y18155D02*
Y19295D01*
X2850Y8150D02*
X3350D01*
X2850Y8950D02*
X3350D01*
Y8150D02*
Y8950D01*
X2850Y8150D02*
Y8950D01*
X27400Y19050D02*
Y19550D01*
X28200Y19050D02*
Y19550D01*
X27400Y19050D02*
X28200D01*
X27400Y19550D02*
X28200D01*
X28200Y16850D02*
Y17350D01*
X27400Y16850D02*
Y17350D01*
X28200D01*
X27400Y16850D02*
X28200D01*
X22050Y19450D02*
Y19950D01*
X22850Y19450D02*
Y19950D01*
X22050Y19450D02*
X22850D01*
X22050Y19950D02*
X22850D01*
D53*
X29490Y17900D02*
G03*
X29490Y17900I-140J0D01*
G01*
X15290Y6000D02*
Y6500D01*
X14810Y6000D02*
Y6500D01*
X15290Y10100D02*
Y10600D01*
X14810Y10100D02*
Y10600D01*
X12710Y12900D02*
Y13400D01*
X13190Y12900D02*
Y13400D01*
X12710Y15450D02*
Y15950D01*
X13190Y15450D02*
Y15950D01*
Y10100D02*
Y10600D01*
X12710Y10100D02*
Y10600D01*
X12510Y8110D02*
Y8290D01*
X12580Y8110D02*
Y8290D01*
X12640Y8160D02*
Y8240D01*
X12510Y8850D02*
Y9030D01*
X12580Y8850D02*
Y9030D01*
X12640Y8900D02*
Y8980D01*
X13320Y8530D02*
Y8610D01*
X13380Y8480D02*
Y8660D01*
X13450Y8480D02*
Y8660D01*
X12510Y8110D02*
X12730D01*
X12510Y8290D02*
X12730D01*
X12510Y8850D02*
X12730D01*
X12510Y9030D02*
X12730D01*
X13230Y8480D02*
X13450D01*
X13230Y8660D02*
X13450D01*
X12710Y6000D02*
Y6500D01*
X13190Y6000D02*
Y6500D01*
X12510Y3970D02*
Y4150D01*
X12580Y3970D02*
Y4150D01*
X12640Y4020D02*
Y4100D01*
X12510Y4710D02*
Y4890D01*
X12580Y4710D02*
Y4890D01*
X12640Y4760D02*
Y4840D01*
X13320Y4390D02*
Y4470D01*
X13380Y4340D02*
Y4520D01*
X13450Y4340D02*
Y4520D01*
X12510Y3970D02*
X12730D01*
X12510Y4150D02*
X12730D01*
X12510Y4710D02*
X12730D01*
X12510Y4890D02*
X12730D01*
X13230Y4340D02*
X13450D01*
X13230Y4520D02*
X13450D01*
X8800Y12340D02*
X9300D01*
X8800Y11860D02*
X9300D01*
X4100Y11640D02*
X4600D01*
X4100Y11160D02*
X4600D01*
X6500Y11640D02*
X7000D01*
X6500Y11160D02*
X7000D01*
X7450D02*
X7950D01*
X7450Y11640D02*
X7950D01*
X4950D02*
X5450D01*
X4950Y11160D02*
X5450D01*
X3250D02*
X3750D01*
X3250Y11640D02*
X3750D01*
X3900Y13860D02*
X4400D01*
X3900Y14340D02*
X4400D01*
X8100D02*
X8600D01*
X8100Y13860D02*
X8600D01*
X28880Y17650D02*
X32820D01*
X32570Y19100D02*
X32630D01*
X32070D02*
X32130D01*
X31570D02*
X31630D01*
X31070D02*
X31130D01*
X30570D02*
X30630D01*
X30070D02*
X30130D01*
X29570D02*
X29630D01*
X29070D02*
X29130D01*
X32570Y17300D02*
X32630D01*
X32070D02*
X32130D01*
X31570D02*
X31630D01*
X31070D02*
X31130D01*
X30570D02*
X30630D01*
X30070D02*
X30130D01*
X29570D02*
X29630D01*
X29070D02*
X29130D01*
X3050Y14340D02*
X3550D01*
X3050Y13860D02*
X3550D01*
X22690Y10500D02*
Y11000D01*
X22210Y10500D02*
Y11000D01*
X21950Y8790D02*
Y8970D01*
X22020Y8790D02*
Y8970D01*
X22080Y8840D02*
Y8920D01*
X21950Y9530D02*
Y9710D01*
X22020Y9530D02*
Y9710D01*
X22080Y9580D02*
Y9660D01*
X22760Y9210D02*
Y9290D01*
X22820Y9160D02*
Y9340D01*
X22890Y9160D02*
Y9340D01*
X21950Y8790D02*
X22170D01*
X21950Y8970D02*
X22170D01*
X21950Y9530D02*
X22170D01*
X21950Y9710D02*
X22170D01*
X22670Y9160D02*
X22890D01*
X22670Y9340D02*
X22890D01*
X24790Y10500D02*
Y11000D01*
X24310Y10500D02*
Y11000D01*
X4470Y18815D02*
X4690D01*
X4470Y18635D02*
X4690D01*
X3750Y19185D02*
X3970D01*
X3750Y19005D02*
X3970D01*
X3750Y18445D02*
X3970D01*
X3750Y18265D02*
X3970D01*
X4690Y18635D02*
Y18815D01*
X4620Y18635D02*
Y18815D01*
X4560Y18685D02*
Y18765D01*
X3880Y19055D02*
Y19135D01*
X3820Y19005D02*
Y19185D01*
X3750Y19005D02*
Y19185D01*
X3880Y18315D02*
Y18395D01*
X3820Y18265D02*
Y18445D01*
X3750Y18265D02*
Y18445D01*
X2850Y8310D02*
X3350D01*
X2850Y8790D02*
X3350D01*
X27560Y19050D02*
Y19550D01*
X28040Y19050D02*
Y19550D01*
X28040Y16850D02*
Y17350D01*
X27560Y16850D02*
Y17350D01*
X22210Y19450D02*
Y19950D01*
X22690Y19450D02*
Y19950D01*
D54*
X32520Y18950D02*
Y19400D01*
X32680Y18950D02*
Y19400D01*
X32520D02*
X32680D01*
X32520Y19200D02*
X32680D01*
X32020D02*
X32180D01*
X32020Y19400D02*
X32180D01*
Y18950D02*
Y19400D01*
X32020Y18950D02*
Y19400D01*
X31520Y19200D02*
X31680D01*
X31520Y19400D02*
X31680D01*
Y18950D02*
Y19400D01*
X31520Y18950D02*
Y19400D01*
X31020Y19200D02*
X31180D01*
X31020Y19400D02*
X31180D01*
Y18950D02*
Y19400D01*
X31020Y18950D02*
Y19400D01*
X30520Y19200D02*
X30680D01*
X30520Y19400D02*
X30680D01*
Y18950D02*
Y19400D01*
X30520Y18950D02*
Y19400D01*
X30020Y19200D02*
X30180D01*
X30020Y19400D02*
X30180D01*
Y18950D02*
Y19400D01*
X30020Y18950D02*
Y19400D01*
X29520Y19200D02*
X29680D01*
X29520Y19400D02*
X29680D01*
Y18950D02*
Y19400D01*
X29520Y18950D02*
Y19400D01*
X29020Y19200D02*
X29180D01*
X29020Y19400D02*
X29180D01*
Y18950D02*
Y19400D01*
X29020Y18950D02*
Y19400D01*
X32680Y17000D02*
Y17450D01*
X32520Y17000D02*
Y17450D01*
Y17000D02*
X32680D01*
X32520Y17200D02*
X32680D01*
X32180Y17000D02*
Y17450D01*
X32020Y17000D02*
Y17450D01*
Y17000D02*
X32180D01*
X32020Y17200D02*
X32180D01*
X31680Y17000D02*
Y17450D01*
X31520Y17000D02*
Y17450D01*
Y17000D02*
X31680D01*
X31520Y17200D02*
X31680D01*
X31180Y17000D02*
Y17450D01*
X31020Y17000D02*
Y17450D01*
Y17000D02*
X31180D01*
X31020Y17200D02*
X31180D01*
X30680Y17000D02*
Y17450D01*
X30520Y17000D02*
Y17450D01*
Y17000D02*
X30680D01*
X30520Y17200D02*
X30680D01*
X30180Y17000D02*
Y17450D01*
X30020Y17000D02*
Y17450D01*
Y17000D02*
X30180D01*
X30020Y17200D02*
X30180D01*
X29680Y17000D02*
Y17450D01*
X29520Y17000D02*
Y17450D01*
Y17000D02*
X29680D01*
X29520Y17200D02*
X29680D01*
X29020D02*
X29180D01*
X29020Y17000D02*
X29180D01*
X29020D02*
Y17450D01*
X29180Y17000D02*
Y17450D01*
M02*
