G04*
G04 #@! TF.GenerationSoftware,Altium Limited,Altium Designer,22.10.1 (41)*
G04*
G04 Layer_Physical_Order=1*
G04 Layer_Color=255*
%FSLAX23Y23*%
%MOIN*%
G70*
G04*
G04 #@! TF.SameCoordinates,9DCC93BE-6794-47A7-A240-529396958765*
G04*
G04*
G04 #@! TF.FilePolarity,Positive*
G04*
G01*
G75*
%ADD13O,0.024X0.080*%
%ADD14R,0.024X0.080*%
%ADD15R,0.050X0.050*%
%ADD16R,0.050X0.050*%
%ADD17R,0.036X0.036*%
%ADD18R,0.010X0.024*%
%ADD19R,0.024X0.010*%
%ADD20R,0.095X0.210*%
%ADD21R,0.167X0.150*%
%ADD38C,0.010*%
%ADD39C,0.010*%
%ADD40R,0.017X0.049*%
%ADD41R,0.017X0.120*%
%ADD42R,0.017X0.063*%
%ADD43C,0.050*%
%ADD44C,0.007*%
%ADD45C,0.005*%
%ADD46C,0.034*%
%ADD47C,0.036*%
%ADD48C,0.110*%
%ADD49C,0.030*%
%ADD50C,0.062*%
%ADD51C,0.060*%
%ADD52C,0.100*%
%ADD53C,0.032*%
%ADD54C,0.050*%
G36*
X3447Y2234D02*
X3465Y2229D01*
X3481Y2220D01*
X3496Y2208D01*
X3508Y2193D01*
X3517Y2177D01*
X3520Y2165D01*
X3516Y2162D01*
X3507Y2173D01*
X3496Y2182D01*
X3482Y2189D01*
X3468Y2194D01*
X3453Y2195D01*
X3439Y2194D01*
X3424Y2189D01*
X3411Y2182D01*
X3400Y2173D01*
X3390Y2161D01*
X3383Y2148D01*
X3379Y2134D01*
X3378Y2119D01*
X3379Y2104D01*
X3383Y2090D01*
X3390Y2077D01*
X3400Y2065D01*
X3411Y2056D01*
X3424Y2049D01*
X3439Y2045D01*
X3453Y2043D01*
X3468Y2045D01*
X3482Y2049D01*
X3496Y2056D01*
X3507Y2065D01*
X3517Y2077D01*
X3519Y2081D01*
X3524Y2080D01*
Y1975D01*
X3519Y1972D01*
X3515Y1974D01*
X3503Y1976D01*
X3492Y1974D01*
X3482Y1970D01*
X3473Y1963D01*
X3466Y1954D01*
X3462Y1944D01*
X3461Y1933D01*
X3462Y1922D01*
X3466Y1911D01*
X3473Y1903D01*
X3482Y1896D01*
X3492Y1892D01*
X3503Y1890D01*
X3515Y1892D01*
X3519Y1894D01*
X3524Y1891D01*
Y1875D01*
X3519Y1872D01*
X3515Y1874D01*
X3503Y1876D01*
X3492Y1874D01*
X3482Y1870D01*
X3473Y1863D01*
X3466Y1854D01*
X3462Y1844D01*
X3461Y1833D01*
X3462Y1822D01*
X3466Y1811D01*
X3473Y1803D01*
X3482Y1796D01*
X3492Y1792D01*
X3503Y1790D01*
X3515Y1792D01*
X3519Y1794D01*
X3524Y1791D01*
Y230D01*
X3519Y228D01*
X3517Y232D01*
X3507Y244D01*
X3496Y253D01*
X3482Y260D01*
X3468Y264D01*
X3453Y266D01*
X3439Y264D01*
X3424Y260D01*
X3411Y253D01*
X3400Y244D01*
X3390Y232D01*
X3383Y219D01*
X3379Y205D01*
X3378Y190D01*
X3379Y175D01*
X3383Y161D01*
X3390Y148D01*
X3400Y136D01*
X3411Y127D01*
X3424Y120D01*
X3439Y116D01*
X3453Y114D01*
X3468Y116D01*
X3482Y120D01*
X3496Y127D01*
X3507Y136D01*
X3517Y148D01*
X3521Y146D01*
X3517Y131D01*
X3508Y115D01*
X3496Y100D01*
X3481Y88D01*
X3465Y79D01*
X3447Y74D01*
X3429Y72D01*
X3428Y72D01*
X164D01*
X163Y72D01*
X145Y74D01*
X127Y79D01*
X111Y88D01*
X96Y100D01*
X84Y115D01*
X75Y131D01*
X70Y149D01*
X68Y167D01*
X68Y168D01*
Y1080D01*
X73Y1082D01*
X86Y1069D01*
X91Y1066D01*
X97Y1065D01*
X172D01*
X172Y1064D01*
X177Y1055D01*
X185Y1047D01*
X194Y1042D01*
X205Y1039D01*
X215D01*
X226Y1042D01*
X235Y1047D01*
X243Y1055D01*
X248Y1064D01*
X251Y1075D01*
Y1085D01*
X248Y1096D01*
X243Y1105D01*
X235Y1113D01*
X226Y1118D01*
X215Y1121D01*
X205D01*
X194Y1118D01*
X185Y1113D01*
X177Y1105D01*
X172Y1096D01*
X172Y1095D01*
X103D01*
X96Y1102D01*
Y1135D01*
X99Y1136D01*
X101Y1136D01*
X104Y1135D01*
X108Y1134D01*
X316D01*
X320Y1135D01*
X323Y1137D01*
X325Y1140D01*
X326Y1144D01*
Y1285D01*
X335Y1294D01*
X387D01*
X389Y1289D01*
X388Y1288D01*
X385Y1284D01*
X384Y1279D01*
Y1207D01*
X381Y1205D01*
X376Y1200D01*
X373Y1194D01*
X371Y1187D01*
Y1181D01*
X373Y1174D01*
X376Y1168D01*
X381Y1163D01*
X387Y1160D01*
X394Y1158D01*
X400D01*
X407Y1160D01*
X411Y1162D01*
X415Y1160D01*
X415Y1155D01*
X351Y1090D01*
X300D01*
Y1042D01*
X233Y974D01*
X226Y978D01*
X215Y981D01*
X205D01*
X194Y978D01*
X185Y973D01*
X177Y965D01*
X172Y956D01*
X169Y945D01*
Y935D01*
X172Y924D01*
X177Y915D01*
X185Y907D01*
X194Y902D01*
X205Y899D01*
X215D01*
X226Y902D01*
X235Y907D01*
X243Y915D01*
X248Y924D01*
X251Y935D01*
Y945D01*
X250Y949D01*
X322Y1020D01*
X370D01*
Y1071D01*
X439Y1140D01*
X439Y1140D01*
X442Y1144D01*
X443Y1150D01*
Y1331D01*
X460D01*
Y1380D01*
X416D01*
X415Y1385D01*
Y1416D01*
X424Y1425D01*
X450D01*
Y1398D01*
X464D01*
X465Y1397D01*
Y1353D01*
X466Y1349D01*
X468Y1346D01*
X471Y1344D01*
Y1305D01*
X495D01*
Y1305D01*
X502D01*
Y1225D01*
X502Y1225D01*
X500Y1221D01*
X499Y1220D01*
X488Y1209D01*
X484Y1210D01*
X478D01*
X471Y1208D01*
X465Y1205D01*
X460Y1200D01*
X457Y1194D01*
X455Y1187D01*
Y1181D01*
X457Y1174D01*
X460Y1168D01*
X465Y1163D01*
X471Y1160D01*
X478Y1158D01*
X484D01*
X491Y1160D01*
X497Y1163D01*
X502Y1168D01*
X505Y1174D01*
X507Y1181D01*
Y1187D01*
X506Y1191D01*
X522Y1207D01*
X777D01*
X781Y1208D01*
X784Y1210D01*
X786Y1213D01*
X787Y1217D01*
Y1368D01*
X786Y1372D01*
X786Y1373D01*
X788Y1378D01*
X796D01*
X800Y1379D01*
X803Y1381D01*
X805Y1384D01*
X806Y1388D01*
Y1597D01*
X805Y1601D01*
X803Y1604D01*
X800Y1606D01*
X796Y1607D01*
X616D01*
X612Y1606D01*
X609Y1604D01*
X607Y1601D01*
X606Y1597D01*
X606Y1596D01*
Y1460D01*
X548D01*
Y1690D01*
X538D01*
X537Y1690D01*
X443D01*
X442Y1690D01*
X433D01*
Y1460D01*
X426D01*
X415Y1471D01*
Y1725D01*
X414Y1729D01*
X412Y1732D01*
X409Y1734D01*
X405Y1735D01*
X239D01*
X230Y1744D01*
Y1808D01*
X233D01*
Y1809D01*
X2720D01*
X2785Y1744D01*
Y1665D01*
X2786Y1661D01*
X2788Y1658D01*
X2791Y1656D01*
X2795Y1655D01*
X2930D01*
X2934Y1656D01*
X2937Y1658D01*
X2939Y1661D01*
X2940Y1663D01*
X2942Y1665D01*
X2944Y1665D01*
X2945Y1665D01*
X2951Y1661D01*
X2960Y1660D01*
X2969Y1661D01*
X2976Y1666D01*
X2981Y1673D01*
X2982Y1682D01*
Y1738D01*
X2981Y1747D01*
X2976Y1754D01*
X2969Y1759D01*
X2960Y1760D01*
X2951Y1759D01*
X2945Y1755D01*
X2944Y1755D01*
X2942Y1755D01*
X2940Y1757D01*
X2939Y1759D01*
X2937Y1762D01*
X2934Y1764D01*
X2930Y1765D01*
X2806D01*
X2748Y1824D01*
X2749Y1829D01*
X2780D01*
X2789Y1830D01*
X2798Y1833D01*
X2805Y1839D01*
X2841Y1875D01*
X2980D01*
X2984Y1876D01*
X2987Y1878D01*
X2989Y1881D01*
X2990Y1885D01*
Y1975D01*
X2989Y1979D01*
X2987Y1982D01*
X2984Y1984D01*
X2980Y1985D01*
X2806D01*
X2804Y1990D01*
X2845Y2031D01*
X2846Y2031D01*
X2856Y2028D01*
X2867D01*
X2878Y2031D01*
X2887Y2036D01*
X2895Y2044D01*
X2900Y2053D01*
X2903Y2064D01*
Y2075D01*
X2900Y2085D01*
X2895Y2094D01*
X2887Y2102D01*
X2878Y2107D01*
X2867Y2110D01*
X2856D01*
X2846Y2107D01*
X2837Y2102D01*
X2829Y2094D01*
X2824Y2085D01*
X2821Y2075D01*
Y2064D01*
X2824Y2053D01*
X2824Y2053D01*
X2781Y2010D01*
X2579D01*
X2573Y2009D01*
X2568Y2006D01*
X2565Y2003D01*
X2565Y2003D01*
X2556Y2008D01*
X2545Y2011D01*
X2535D01*
X2524Y2008D01*
X2515Y2003D01*
X2507Y1995D01*
X2502Y1986D01*
X2499Y1975D01*
Y1965D01*
X2502Y1954D01*
X2507Y1945D01*
X2515Y1937D01*
X2524Y1932D01*
X2535Y1929D01*
X2545D01*
X2556Y1932D01*
X2565Y1937D01*
X2573Y1945D01*
X2578Y1954D01*
X2581Y1965D01*
Y1975D01*
X2585Y1980D01*
X2781D01*
X2785Y1975D01*
Y1919D01*
X2765Y1899D01*
X2676D01*
X2674Y1899D01*
X2671D01*
X2669Y1898D01*
X2667Y1898D01*
X2665Y1897D01*
X2662Y1897D01*
X2660Y1895D01*
X2658Y1895D01*
X2657Y1893D01*
X2655Y1892D01*
X2653Y1890D01*
X2651Y1889D01*
X2650Y1887D01*
X2648Y1885D01*
X2647Y1883D01*
X2645Y1882D01*
X2645Y1880D01*
X2643Y1878D01*
X2643Y1875D01*
X2642Y1873D01*
X2642Y1871D01*
X2641Y1869D01*
Y1866D01*
X2641Y1864D01*
X2641Y1862D01*
Y1859D01*
X2642Y1857D01*
X2642Y1855D01*
X2643Y1853D01*
X2643Y1850D01*
X2645Y1848D01*
X2645Y1846D01*
X2647Y1845D01*
X2647Y1844D01*
X2645Y1840D01*
X2644Y1839D01*
X233D01*
Y1864D01*
X177D01*
Y1808D01*
X178D01*
Y1744D01*
X169Y1735D01*
X110D01*
X106Y1734D01*
X103Y1732D01*
X101Y1729D01*
X100Y1725D01*
Y1388D01*
X73Y1361D01*
X68Y1363D01*
Y2140D01*
X68Y2141D01*
X70Y2159D01*
X75Y2177D01*
X84Y2193D01*
X96Y2208D01*
X111Y2220D01*
X127Y2229D01*
X145Y2234D01*
X163Y2236D01*
X164Y2236D01*
X3154D01*
X3155Y2233D01*
X3153Y2230D01*
X3108D01*
X3102Y2229D01*
X3097Y2226D01*
X3078Y2207D01*
X3078Y2207D01*
X3067Y2210D01*
X3056D01*
X3046Y2207D01*
X3037Y2202D01*
X3029Y2194D01*
X3024Y2185D01*
X3021Y2175D01*
Y2164D01*
X3024Y2153D01*
X3029Y2144D01*
X3037Y2136D01*
X3046Y2131D01*
X3056Y2128D01*
X3067D01*
X3078Y2131D01*
X3087Y2136D01*
X3095Y2144D01*
X3100Y2153D01*
X3103Y2164D01*
Y2175D01*
X3100Y2185D01*
X3100Y2185D01*
X3114Y2200D01*
X3128D01*
X3130Y2195D01*
X3129Y2194D01*
X3124Y2185D01*
X3121Y2175D01*
Y2164D01*
X3124Y2153D01*
X3124Y2153D01*
X3099Y2128D01*
X3096Y2123D01*
X3095Y2117D01*
Y2101D01*
X3090Y2099D01*
X3087Y2102D01*
X3078Y2107D01*
X3067Y2110D01*
X3056D01*
X3046Y2107D01*
X3037Y2102D01*
X3029Y2094D01*
X3024Y2085D01*
X3021Y2075D01*
Y2064D01*
X3024Y2053D01*
X3029Y2044D01*
X3037Y2036D01*
X3046Y2031D01*
X3046Y2031D01*
Y2006D01*
X3048Y2000D01*
X3051Y1995D01*
X3062Y1985D01*
X3059Y1980D01*
X3051Y1979D01*
X3044Y1974D01*
X3039Y1967D01*
X3038Y1958D01*
Y1902D01*
X3039Y1893D01*
X3044Y1886D01*
X3045Y1886D01*
Y1875D01*
X3046Y1869D01*
X3049Y1864D01*
X3079Y1834D01*
X3084Y1831D01*
X3090Y1830D01*
X3260D01*
X3266Y1831D01*
X3271Y1834D01*
X3331Y1894D01*
X3334Y1899D01*
X3335Y1905D01*
Y2111D01*
X3334Y2117D01*
X3331Y2122D01*
X3300Y2153D01*
X3300Y2153D01*
X3303Y2164D01*
Y2175D01*
X3300Y2185D01*
X3295Y2194D01*
X3287Y2202D01*
X3278Y2207D01*
X3267Y2210D01*
X3256D01*
X3246Y2207D01*
X3237Y2202D01*
X3230Y2196D01*
X3225Y2198D01*
Y2200D01*
X3224Y2206D01*
X3221Y2211D01*
X3209Y2223D01*
X3209Y2223D01*
X3206Y2226D01*
X3201Y2229D01*
X3195Y2230D01*
X3171D01*
X3171Y2231D01*
X3173Y2236D01*
X3428D01*
X3429Y2236D01*
X3447Y2234D01*
D02*
G37*
G36*
X2980Y1885D02*
X2795D01*
Y1975D01*
X2980D01*
Y1885D01*
D02*
G37*
G36*
X3237Y2136D02*
X3246Y2131D01*
X3256Y2128D01*
X3267D01*
X3278Y2131D01*
X3278Y2131D01*
X3305Y2105D01*
Y1911D01*
X3254Y1860D01*
X3096D01*
X3076Y1881D01*
X3076Y1886D01*
X3076Y1886D01*
X3081Y1893D01*
X3082Y1902D01*
Y1951D01*
X3087Y1954D01*
X3088Y1954D01*
Y1902D01*
X3089Y1893D01*
X3094Y1886D01*
X3101Y1881D01*
X3110Y1880D01*
X3119Y1881D01*
X3126Y1886D01*
X3131Y1893D01*
X3132Y1902D01*
Y1951D01*
X3137Y1954D01*
X3138Y1954D01*
Y1902D01*
X3139Y1893D01*
X3144Y1886D01*
X3151Y1881D01*
X3160Y1880D01*
X3169Y1881D01*
X3176Y1886D01*
X3181Y1893D01*
X3182Y1902D01*
Y1958D01*
X3181Y1967D01*
X3176Y1974D01*
X3169Y1979D01*
X3160Y1980D01*
X3159Y1980D01*
X3125Y2014D01*
Y2041D01*
X3130Y2043D01*
X3137Y2036D01*
X3146Y2031D01*
X3156Y2028D01*
X3167D01*
X3178Y2031D01*
X3187Y2036D01*
X3190Y2039D01*
X3195Y2037D01*
Y1974D01*
X3194Y1974D01*
X3189Y1967D01*
X3188Y1958D01*
Y1902D01*
X3189Y1893D01*
X3194Y1886D01*
X3201Y1881D01*
X3210Y1880D01*
X3219Y1881D01*
X3226Y1886D01*
X3231Y1893D01*
X3232Y1902D01*
Y1958D01*
X3231Y1967D01*
X3226Y1974D01*
X3225Y1974D01*
Y2141D01*
X3230Y2143D01*
X3237Y2136D01*
D02*
G37*
G36*
X2930Y1665D02*
X2795D01*
Y1755D01*
X2930D01*
Y1665D01*
D02*
G37*
G36*
X537Y1470D02*
X507D01*
X494Y1436D01*
X494Y1422D01*
X485D01*
Y1438D01*
X474Y1470D01*
X443D01*
Y1680D01*
X537D01*
Y1470D01*
D02*
G37*
G36*
X220Y1740D02*
X235Y1725D01*
X405D01*
Y1467D01*
X422Y1450D01*
X469D01*
Y1410D01*
X460D01*
Y1429D01*
X454Y1435D01*
X420D01*
X405Y1420D01*
Y1370D01*
X110D01*
Y1725D01*
X173D01*
X188Y1740D01*
Y1852D01*
X220D01*
Y1740D01*
D02*
G37*
G36*
X796Y1388D02*
X509D01*
Y1446D01*
X509Y1446D01*
X513Y1450D01*
X616D01*
Y1597D01*
X616Y1597D01*
X796D01*
Y1388D01*
D02*
G37*
G36*
X496Y1353D02*
X475D01*
Y1397D01*
X496D01*
Y1353D01*
D02*
G37*
G36*
X777Y1217D02*
X514D01*
X512Y1214D01*
X509D01*
Y1217D01*
X512D01*
Y1368D01*
X777D01*
Y1217D01*
D02*
G37*
G36*
X396Y1304D02*
X331D01*
X316Y1289D01*
Y1144D01*
X108D01*
Y1352D01*
X396D01*
Y1304D01*
D02*
G37*
%LPC*%
G36*
X2867Y2210D02*
X2856D01*
X2846Y2207D01*
X2837Y2202D01*
X2829Y2194D01*
X2824Y2185D01*
X2821Y2175D01*
Y2164D01*
X2824Y2153D01*
X2829Y2144D01*
X2837Y2136D01*
X2846Y2131D01*
X2856Y2128D01*
X2867D01*
X2878Y2131D01*
X2887Y2136D01*
X2895Y2144D01*
X2900Y2153D01*
X2903Y2164D01*
Y2175D01*
X2900Y2185D01*
X2895Y2194D01*
X2887Y2202D01*
X2878Y2207D01*
X2867Y2210D01*
D02*
G37*
G36*
X2667D02*
X2656D01*
X2646Y2207D01*
X2637Y2202D01*
X2629Y2194D01*
X2624Y2185D01*
X2621Y2175D01*
Y2164D01*
X2624Y2153D01*
X2629Y2144D01*
X2637Y2136D01*
X2646Y2131D01*
X2656Y2128D01*
X2667D01*
X2678Y2131D01*
X2687Y2136D01*
X2695Y2144D01*
X2700Y2153D01*
X2703Y2164D01*
Y2175D01*
X2700Y2185D01*
X2695Y2194D01*
X2687Y2202D01*
X2678Y2207D01*
X2667Y2210D01*
D02*
G37*
G36*
X2567D02*
X2556D01*
X2546Y2207D01*
X2537Y2202D01*
X2529Y2194D01*
X2524Y2185D01*
X2521Y2175D01*
Y2164D01*
X2524Y2153D01*
X2529Y2144D01*
X2537Y2136D01*
X2546Y2131D01*
X2556Y2128D01*
X2567D01*
X2578Y2131D01*
X2587Y2136D01*
X2595Y2144D01*
X2600Y2153D01*
X2603Y2164D01*
Y2175D01*
X2600Y2185D01*
X2595Y2194D01*
X2587Y2202D01*
X2578Y2207D01*
X2567Y2210D01*
D02*
G37*
G36*
X2467D02*
X2456D01*
X2446Y2207D01*
X2437Y2202D01*
X2429Y2194D01*
X2424Y2185D01*
X2421Y2175D01*
Y2164D01*
X2424Y2153D01*
X2429Y2144D01*
X2437Y2136D01*
X2446Y2131D01*
X2456Y2128D01*
X2467D01*
X2478Y2131D01*
X2487Y2136D01*
X2495Y2144D01*
X2500Y2153D01*
X2503Y2164D01*
Y2175D01*
X2500Y2185D01*
X2495Y2194D01*
X2487Y2202D01*
X2478Y2207D01*
X2467Y2210D01*
D02*
G37*
G36*
X2367D02*
X2356D01*
X2346Y2207D01*
X2337Y2202D01*
X2329Y2194D01*
X2324Y2185D01*
X2321Y2175D01*
Y2164D01*
X2324Y2153D01*
X2329Y2144D01*
X2337Y2136D01*
X2346Y2131D01*
X2356Y2128D01*
X2367D01*
X2378Y2131D01*
X2387Y2136D01*
X2395Y2144D01*
X2400Y2153D01*
X2403Y2164D01*
Y2175D01*
X2400Y2185D01*
X2395Y2194D01*
X2387Y2202D01*
X2378Y2207D01*
X2367Y2210D01*
D02*
G37*
G36*
X2167D02*
X2156D01*
X2146Y2207D01*
X2137Y2202D01*
X2129Y2194D01*
X2124Y2185D01*
X2121Y2175D01*
Y2164D01*
X2124Y2153D01*
X2129Y2144D01*
X2137Y2136D01*
X2146Y2131D01*
X2156Y2128D01*
X2167D01*
X2178Y2131D01*
X2187Y2136D01*
X2195Y2144D01*
X2200Y2153D01*
X2203Y2164D01*
Y2175D01*
X2200Y2185D01*
X2195Y2194D01*
X2187Y2202D01*
X2178Y2207D01*
X2167Y2210D01*
D02*
G37*
G36*
X2067D02*
X2056D01*
X2046Y2207D01*
X2037Y2202D01*
X2029Y2194D01*
X2024Y2185D01*
X2021Y2175D01*
Y2164D01*
X2024Y2153D01*
X2029Y2144D01*
X2037Y2136D01*
X2046Y2131D01*
X2056Y2128D01*
X2067D01*
X2078Y2131D01*
X2087Y2136D01*
X2095Y2144D01*
X2100Y2153D01*
X2103Y2164D01*
Y2175D01*
X2100Y2185D01*
X2095Y2194D01*
X2087Y2202D01*
X2078Y2207D01*
X2067Y2210D01*
D02*
G37*
G36*
X1867D02*
X1856D01*
X1846Y2207D01*
X1837Y2202D01*
X1829Y2194D01*
X1824Y2185D01*
X1821Y2175D01*
Y2164D01*
X1824Y2153D01*
X1829Y2144D01*
X1837Y2136D01*
X1846Y2131D01*
X1856Y2128D01*
X1867D01*
X1878Y2131D01*
X1887Y2136D01*
X1895Y2144D01*
X1900Y2153D01*
X1903Y2164D01*
Y2175D01*
X1900Y2185D01*
X1895Y2194D01*
X1887Y2202D01*
X1878Y2207D01*
X1867Y2210D01*
D02*
G37*
G36*
X1767D02*
X1756D01*
X1746Y2207D01*
X1737Y2202D01*
X1729Y2194D01*
X1724Y2185D01*
X1721Y2175D01*
Y2164D01*
X1724Y2153D01*
X1729Y2144D01*
X1737Y2136D01*
X1746Y2131D01*
X1756Y2128D01*
X1767D01*
X1778Y2131D01*
X1787Y2136D01*
X1795Y2144D01*
X1800Y2153D01*
X1803Y2164D01*
Y2175D01*
X1800Y2185D01*
X1795Y2194D01*
X1787Y2202D01*
X1778Y2207D01*
X1767Y2210D01*
D02*
G37*
G36*
X1667D02*
X1656D01*
X1646Y2207D01*
X1637Y2202D01*
X1629Y2194D01*
X1624Y2185D01*
X1621Y2175D01*
Y2164D01*
X1624Y2153D01*
X1629Y2144D01*
X1637Y2136D01*
X1646Y2131D01*
X1656Y2128D01*
X1667D01*
X1678Y2131D01*
X1687Y2136D01*
X1695Y2144D01*
X1700Y2153D01*
X1703Y2164D01*
Y2175D01*
X1700Y2185D01*
X1695Y2194D01*
X1687Y2202D01*
X1678Y2207D01*
X1667Y2210D01*
D02*
G37*
G36*
X1467D02*
X1456D01*
X1446Y2207D01*
X1437Y2202D01*
X1429Y2194D01*
X1424Y2185D01*
X1421Y2175D01*
Y2164D01*
X1424Y2153D01*
X1429Y2144D01*
X1437Y2136D01*
X1446Y2131D01*
X1456Y2128D01*
X1467D01*
X1478Y2131D01*
X1487Y2136D01*
X1495Y2144D01*
X1500Y2153D01*
X1503Y2164D01*
Y2175D01*
X1500Y2185D01*
X1495Y2194D01*
X1487Y2202D01*
X1478Y2207D01*
X1467Y2210D01*
D02*
G37*
G36*
X1367D02*
X1356D01*
X1346Y2207D01*
X1337Y2202D01*
X1329Y2194D01*
X1324Y2185D01*
X1321Y2175D01*
Y2164D01*
X1324Y2153D01*
X1329Y2144D01*
X1337Y2136D01*
X1346Y2131D01*
X1356Y2128D01*
X1367D01*
X1378Y2131D01*
X1387Y2136D01*
X1395Y2144D01*
X1400Y2153D01*
X1403Y2164D01*
Y2175D01*
X1400Y2185D01*
X1395Y2194D01*
X1387Y2202D01*
X1378Y2207D01*
X1367Y2210D01*
D02*
G37*
G36*
X1170Y2195D02*
X1155Y2194D01*
X1141Y2189D01*
X1128Y2182D01*
X1116Y2173D01*
X1107Y2161D01*
X1100Y2148D01*
X1096Y2134D01*
X1094Y2119D01*
X1096Y2104D01*
X1100Y2090D01*
X1107Y2077D01*
X1116Y2065D01*
X1128Y2056D01*
X1141Y2049D01*
X1155Y2045D01*
X1170Y2043D01*
X1185Y2045D01*
X1199Y2049D01*
X1212Y2056D01*
X1224Y2065D01*
X1233Y2077D01*
X1240Y2090D01*
X1244Y2104D01*
X1246Y2119D01*
X1244Y2134D01*
X1240Y2148D01*
X1233Y2161D01*
X1224Y2173D01*
X1212Y2182D01*
X1199Y2189D01*
X1185Y2194D01*
X1170Y2195D01*
D02*
G37*
G36*
X2967Y2110D02*
X2956D01*
X2946Y2107D01*
X2937Y2102D01*
X2929Y2094D01*
X2924Y2085D01*
X2921Y2075D01*
Y2064D01*
X2924Y2053D01*
X2929Y2044D01*
X2937Y2036D01*
X2946Y2031D01*
X2956Y2028D01*
X2967D01*
X2978Y2031D01*
X2987Y2036D01*
X2995Y2044D01*
X3000Y2053D01*
X3003Y2064D01*
Y2075D01*
X3000Y2085D01*
X2995Y2094D01*
X2987Y2102D01*
X2978Y2107D01*
X2967Y2110D01*
D02*
G37*
G36*
X2767D02*
X2756D01*
X2746Y2107D01*
X2737Y2102D01*
X2729Y2094D01*
X2724Y2085D01*
X2721Y2075D01*
Y2064D01*
X2724Y2053D01*
X2729Y2044D01*
X2737Y2036D01*
X2746Y2031D01*
X2756Y2028D01*
X2767D01*
X2778Y2031D01*
X2787Y2036D01*
X2795Y2044D01*
X2800Y2053D01*
X2803Y2064D01*
Y2075D01*
X2800Y2085D01*
X2795Y2094D01*
X2787Y2102D01*
X2778Y2107D01*
X2767Y2110D01*
D02*
G37*
G36*
X2667D02*
X2656D01*
X2646Y2107D01*
X2637Y2102D01*
X2629Y2094D01*
X2624Y2085D01*
X2621Y2075D01*
Y2064D01*
X2624Y2053D01*
X2629Y2044D01*
X2637Y2036D01*
X2646Y2031D01*
X2656Y2028D01*
X2667D01*
X2678Y2031D01*
X2687Y2036D01*
X2695Y2044D01*
X2700Y2053D01*
X2703Y2064D01*
Y2075D01*
X2700Y2085D01*
X2695Y2094D01*
X2687Y2102D01*
X2678Y2107D01*
X2667Y2110D01*
D02*
G37*
G36*
X2467D02*
X2456D01*
X2446Y2107D01*
X2437Y2102D01*
X2429Y2094D01*
X2424Y2085D01*
X2421Y2075D01*
Y2064D01*
X2424Y2053D01*
X2429Y2044D01*
X2437Y2036D01*
X2446Y2031D01*
X2456Y2028D01*
X2467D01*
X2478Y2031D01*
X2487Y2036D01*
X2495Y2044D01*
X2500Y2053D01*
X2503Y2064D01*
Y2075D01*
X2500Y2085D01*
X2495Y2094D01*
X2487Y2102D01*
X2478Y2107D01*
X2467Y2110D01*
D02*
G37*
G36*
X2367D02*
X2356D01*
X2346Y2107D01*
X2337Y2102D01*
X2329Y2094D01*
X2324Y2085D01*
X2321Y2075D01*
Y2064D01*
X2324Y2053D01*
X2329Y2044D01*
X2337Y2036D01*
X2346Y2031D01*
X2356Y2028D01*
X2367D01*
X2378Y2031D01*
X2387Y2036D01*
X2395Y2044D01*
X2400Y2053D01*
X2403Y2064D01*
Y2075D01*
X2400Y2085D01*
X2395Y2094D01*
X2387Y2102D01*
X2378Y2107D01*
X2367Y2110D01*
D02*
G37*
G36*
X2267D02*
X2256D01*
X2246Y2107D01*
X2237Y2102D01*
X2229Y2094D01*
X2224Y2085D01*
X2221Y2075D01*
Y2064D01*
X2224Y2053D01*
X2229Y2044D01*
X2237Y2036D01*
X2246Y2031D01*
X2256Y2028D01*
X2267D01*
X2278Y2031D01*
X2287Y2036D01*
X2295Y2044D01*
X2300Y2053D01*
X2303Y2064D01*
Y2075D01*
X2300Y2085D01*
X2295Y2094D01*
X2287Y2102D01*
X2278Y2107D01*
X2267Y2110D01*
D02*
G37*
G36*
X2167D02*
X2156D01*
X2146Y2107D01*
X2137Y2102D01*
X2129Y2094D01*
X2124Y2085D01*
X2121Y2075D01*
Y2064D01*
X2124Y2053D01*
X2129Y2044D01*
X2137Y2036D01*
X2146Y2031D01*
X2156Y2028D01*
X2167D01*
X2178Y2031D01*
X2187Y2036D01*
X2195Y2044D01*
X2200Y2053D01*
X2203Y2064D01*
Y2075D01*
X2200Y2085D01*
X2195Y2094D01*
X2187Y2102D01*
X2178Y2107D01*
X2167Y2110D01*
D02*
G37*
G36*
X2067D02*
X2056D01*
X2046Y2107D01*
X2037Y2102D01*
X2029Y2094D01*
X2024Y2085D01*
X2021Y2075D01*
Y2064D01*
X2024Y2053D01*
X2029Y2044D01*
X2037Y2036D01*
X2046Y2031D01*
X2056Y2028D01*
X2067D01*
X2078Y2031D01*
X2087Y2036D01*
X2095Y2044D01*
X2100Y2053D01*
X2103Y2064D01*
Y2075D01*
X2100Y2085D01*
X2095Y2094D01*
X2087Y2102D01*
X2078Y2107D01*
X2067Y2110D01*
D02*
G37*
G36*
X1967D02*
X1956D01*
X1946Y2107D01*
X1937Y2102D01*
X1929Y2094D01*
X1924Y2085D01*
X1921Y2075D01*
Y2064D01*
X1924Y2053D01*
X1929Y2044D01*
X1937Y2036D01*
X1946Y2031D01*
X1956Y2028D01*
X1967D01*
X1978Y2031D01*
X1987Y2036D01*
X1995Y2044D01*
X2000Y2053D01*
X2003Y2064D01*
Y2075D01*
X2000Y2085D01*
X1995Y2094D01*
X1987Y2102D01*
X1978Y2107D01*
X1967Y2110D01*
D02*
G37*
G36*
X1867D02*
X1856D01*
X1846Y2107D01*
X1837Y2102D01*
X1829Y2094D01*
X1824Y2085D01*
X1821Y2075D01*
Y2064D01*
X1824Y2053D01*
X1829Y2044D01*
X1837Y2036D01*
X1846Y2031D01*
X1856Y2028D01*
X1867D01*
X1878Y2031D01*
X1887Y2036D01*
X1895Y2044D01*
X1900Y2053D01*
X1903Y2064D01*
Y2075D01*
X1900Y2085D01*
X1895Y2094D01*
X1887Y2102D01*
X1878Y2107D01*
X1867Y2110D01*
D02*
G37*
G36*
X1667D02*
X1656D01*
X1646Y2107D01*
X1637Y2102D01*
X1629Y2094D01*
X1624Y2085D01*
X1621Y2075D01*
Y2064D01*
X1624Y2053D01*
X1629Y2044D01*
X1637Y2036D01*
X1646Y2031D01*
X1656Y2028D01*
X1667D01*
X1678Y2031D01*
X1687Y2036D01*
X1695Y2044D01*
X1700Y2053D01*
X1703Y2064D01*
Y2075D01*
X1700Y2085D01*
X1695Y2094D01*
X1687Y2102D01*
X1678Y2107D01*
X1667Y2110D01*
D02*
G37*
G36*
X1567D02*
X1556D01*
X1546Y2107D01*
X1537Y2102D01*
X1529Y2094D01*
X1524Y2085D01*
X1521Y2075D01*
Y2064D01*
X1524Y2053D01*
X1524Y2053D01*
X1406Y1935D01*
X1308D01*
X1308Y1936D01*
X1303Y1945D01*
X1295Y1953D01*
X1286Y1958D01*
X1275Y1961D01*
X1265D01*
X1254Y1958D01*
X1245Y1953D01*
X1237Y1945D01*
X1232Y1936D01*
X1229Y1925D01*
Y1915D01*
X1232Y1904D01*
X1237Y1895D01*
X1245Y1887D01*
X1254Y1882D01*
X1265Y1879D01*
X1275D01*
X1286Y1882D01*
X1295Y1887D01*
X1303Y1895D01*
X1308Y1904D01*
X1308Y1905D01*
X1413D01*
X1418Y1906D01*
X1423Y1909D01*
X1545Y2031D01*
X1546Y2031D01*
X1556Y2028D01*
X1567D01*
X1578Y2031D01*
X1587Y2036D01*
X1595Y2044D01*
X1600Y2053D01*
X1603Y2064D01*
Y2075D01*
X1600Y2085D01*
X1595Y2094D01*
X1587Y2102D01*
X1578Y2107D01*
X1567Y2110D01*
D02*
G37*
G36*
X1467D02*
X1456D01*
X1446Y2107D01*
X1437Y2102D01*
X1429Y2094D01*
X1424Y2085D01*
X1421Y2075D01*
Y2064D01*
X1424Y2053D01*
X1429Y2044D01*
X1437Y2036D01*
X1446Y2031D01*
X1456Y2028D01*
X1467D01*
X1478Y2031D01*
X1487Y2036D01*
X1495Y2044D01*
X1500Y2053D01*
X1503Y2064D01*
Y2075D01*
X1500Y2085D01*
X1495Y2094D01*
X1487Y2102D01*
X1478Y2107D01*
X1467Y2110D01*
D02*
G37*
G36*
X1367D02*
X1356D01*
X1346Y2107D01*
X1337Y2102D01*
X1329Y2094D01*
X1324Y2085D01*
X1321Y2075D01*
Y2064D01*
X1324Y2053D01*
X1329Y2044D01*
X1337Y2036D01*
X1346Y2031D01*
X1356Y2028D01*
X1367D01*
X1378Y2031D01*
X1387Y2036D01*
X1395Y2044D01*
X1400Y2053D01*
X1403Y2064D01*
Y2075D01*
X1400Y2085D01*
X1395Y2094D01*
X1387Y2102D01*
X1378Y2107D01*
X1367Y2110D01*
D02*
G37*
G36*
X2405Y2011D02*
X2395D01*
X2384Y2008D01*
X2375Y2003D01*
X2367Y1995D01*
X2362Y1986D01*
X2362Y1985D01*
X2325D01*
Y2005D01*
X2255D01*
Y1935D01*
X2325D01*
Y1955D01*
X2362D01*
X2362Y1954D01*
X2367Y1945D01*
X2375Y1937D01*
X2384Y1932D01*
X2395Y1929D01*
X2405D01*
X2416Y1932D01*
X2425Y1937D01*
X2433Y1945D01*
X2438Y1954D01*
X2441Y1965D01*
Y1975D01*
X2438Y1986D01*
X2433Y1995D01*
X2425Y2003D01*
X2416Y2008D01*
X2405Y2011D01*
D02*
G37*
G36*
X678Y2135D02*
X491D01*
Y2115D01*
X390D01*
X377Y2114D01*
X365Y2110D01*
X354Y2104D01*
X344Y2096D01*
X336Y2086D01*
X330Y2075D01*
X326Y2063D01*
X325Y2050D01*
X326Y2037D01*
X330Y2025D01*
X336Y2014D01*
X344Y2004D01*
X354Y1996D01*
X365Y1990D01*
X377Y1986D01*
X390Y1985D01*
X491D01*
Y1965D01*
X678D01*
Y2135D01*
D02*
G37*
G36*
X929D02*
X742D01*
Y1965D01*
X745D01*
Y1924D01*
X721Y1900D01*
X319D01*
Y1901D01*
X263D01*
Y1845D01*
X274D01*
X275Y1845D01*
X755Y1845D01*
X915Y1845D01*
X919Y1846D01*
X922Y1848D01*
X924Y1851D01*
X925Y1855D01*
Y1965D01*
X929D01*
Y2135D01*
D02*
G37*
G36*
X3403Y1976D02*
X3392Y1974D01*
X3382Y1970D01*
X3373Y1963D01*
X3366Y1954D01*
X3362Y1944D01*
X3361Y1933D01*
X3362Y1922D01*
X3366Y1911D01*
X3373Y1903D01*
X3382Y1896D01*
X3392Y1892D01*
X3403Y1890D01*
X3415Y1892D01*
X3425Y1896D01*
X3434Y1903D01*
X3441Y1911D01*
X3445Y1922D01*
X3446Y1933D01*
X3445Y1944D01*
X3441Y1954D01*
X3434Y1963D01*
X3425Y1970D01*
X3415Y1974D01*
X3403Y1976D01*
D02*
G37*
G36*
Y1876D02*
X3392Y1874D01*
X3382Y1870D01*
X3373Y1863D01*
X3366Y1854D01*
X3362Y1844D01*
X3361Y1833D01*
X3362Y1822D01*
X3366Y1811D01*
X3373Y1803D01*
X3382Y1796D01*
X3392Y1792D01*
X3403Y1790D01*
X3415Y1792D01*
X3425Y1796D01*
X3434Y1803D01*
X3441Y1811D01*
X3445Y1822D01*
X3446Y1833D01*
X3445Y1844D01*
X3441Y1854D01*
X3434Y1863D01*
X3425Y1870D01*
X3415Y1874D01*
X3403Y1876D01*
D02*
G37*
G36*
X3260Y1760D02*
X3251Y1759D01*
X3244Y1754D01*
X3239Y1747D01*
X3238Y1738D01*
Y1682D01*
X3239Y1673D01*
X3244Y1666D01*
X3251Y1661D01*
X3260Y1660D01*
X3269Y1661D01*
X3276Y1666D01*
X3281Y1673D01*
X3282Y1682D01*
Y1738D01*
X3281Y1747D01*
X3276Y1754D01*
X3269Y1759D01*
X3260Y1760D01*
D02*
G37*
G36*
X3210D02*
X3201Y1759D01*
X3194Y1754D01*
X3189Y1747D01*
X3188Y1738D01*
Y1682D01*
X3189Y1673D01*
X3194Y1666D01*
X3201Y1661D01*
X3210Y1660D01*
X3219Y1661D01*
X3226Y1666D01*
X3231Y1673D01*
X3232Y1682D01*
Y1738D01*
X3231Y1747D01*
X3226Y1754D01*
X3219Y1759D01*
X3210Y1760D01*
D02*
G37*
G36*
X3160D02*
X3151Y1759D01*
X3144Y1754D01*
X3139Y1747D01*
X3138Y1738D01*
Y1682D01*
X3139Y1673D01*
X3144Y1666D01*
X3151Y1661D01*
X3160Y1660D01*
X3169Y1661D01*
X3176Y1666D01*
X3181Y1673D01*
X3182Y1682D01*
Y1738D01*
X3181Y1747D01*
X3176Y1754D01*
X3169Y1759D01*
X3160Y1760D01*
D02*
G37*
G36*
X3110D02*
X3101Y1759D01*
X3094Y1754D01*
X3089Y1747D01*
X3088Y1738D01*
Y1682D01*
X3089Y1673D01*
X3094Y1666D01*
X3101Y1661D01*
X3110Y1660D01*
X3119Y1661D01*
X3126Y1666D01*
X3131Y1673D01*
X3132Y1682D01*
Y1738D01*
X3131Y1747D01*
X3126Y1754D01*
X3119Y1759D01*
X3110Y1760D01*
D02*
G37*
G36*
X3060D02*
X3051Y1759D01*
X3044Y1754D01*
X3039Y1747D01*
X3038Y1738D01*
Y1682D01*
X3039Y1673D01*
X3044Y1666D01*
X3051Y1661D01*
X3060Y1660D01*
X3069Y1661D01*
X3076Y1666D01*
X3081Y1673D01*
X3082Y1682D01*
Y1738D01*
X3081Y1747D01*
X3076Y1754D01*
X3069Y1759D01*
X3060Y1760D01*
D02*
G37*
G36*
X3010D02*
X3001Y1759D01*
X2994Y1754D01*
X2989Y1747D01*
X2988Y1738D01*
Y1682D01*
X2989Y1673D01*
X2994Y1666D01*
X3001Y1661D01*
X3010Y1660D01*
X3019Y1661D01*
X3026Y1666D01*
X3031Y1673D01*
X3032Y1682D01*
Y1738D01*
X3031Y1747D01*
X3026Y1754D01*
X3019Y1759D01*
X3010Y1760D01*
D02*
G37*
G36*
X1315Y1611D02*
X1305D01*
X1294Y1608D01*
X1285Y1603D01*
X1277Y1595D01*
X1272Y1586D01*
X1272Y1585D01*
X1255D01*
Y1605D01*
X1185D01*
Y1535D01*
X1255D01*
Y1555D01*
X1272D01*
X1272Y1554D01*
X1277Y1545D01*
X1285Y1537D01*
X1294Y1532D01*
X1305Y1529D01*
X1315D01*
X1326Y1532D01*
X1335Y1537D01*
X1343Y1545D01*
X1348Y1554D01*
X1351Y1565D01*
Y1575D01*
X1348Y1586D01*
X1343Y1595D01*
X1335Y1603D01*
X1326Y1608D01*
X1315Y1611D01*
D02*
G37*
G36*
X1455D02*
X1445D01*
X1434Y1608D01*
X1425Y1603D01*
X1417Y1595D01*
X1412Y1586D01*
X1409Y1575D01*
Y1565D01*
X1412Y1554D01*
X1417Y1545D01*
X1425Y1537D01*
X1434Y1532D01*
X1445Y1529D01*
X1455D01*
X1466Y1532D01*
X1475Y1537D01*
X1483Y1545D01*
X1488Y1554D01*
X1491Y1565D01*
Y1575D01*
X1488Y1586D01*
X1483Y1595D01*
X1475Y1603D01*
X1466Y1608D01*
X1455Y1611D01*
D02*
G37*
G36*
X1315Y1356D02*
X1305D01*
X1294Y1353D01*
X1285Y1348D01*
X1277Y1340D01*
X1272Y1331D01*
X1272Y1330D01*
X1255D01*
Y1350D01*
X1185D01*
Y1280D01*
X1255D01*
Y1300D01*
X1272D01*
X1272Y1299D01*
X1277Y1290D01*
X1285Y1282D01*
X1294Y1277D01*
X1305Y1274D01*
X1315D01*
X1326Y1277D01*
X1335Y1282D01*
X1343Y1290D01*
X1348Y1299D01*
X1351Y1310D01*
Y1320D01*
X1348Y1331D01*
X1343Y1340D01*
X1335Y1348D01*
X1326Y1353D01*
X1315Y1356D01*
D02*
G37*
G36*
X1455D02*
X1445D01*
X1434Y1353D01*
X1425Y1348D01*
X1417Y1340D01*
X1412Y1331D01*
X1409Y1320D01*
Y1310D01*
X1412Y1299D01*
X1417Y1290D01*
X1425Y1282D01*
X1434Y1277D01*
X1445Y1274D01*
X1455D01*
X1466Y1277D01*
X1475Y1282D01*
X1483Y1290D01*
X1488Y1299D01*
X1491Y1310D01*
Y1320D01*
X1488Y1331D01*
X1483Y1340D01*
X1475Y1348D01*
X1466Y1353D01*
X1455Y1356D01*
D02*
G37*
G36*
X2404Y1211D02*
X2402Y1211D01*
X2399D01*
X2397Y1210D01*
X2395Y1210D01*
X2393Y1209D01*
X2390Y1209D01*
X2388Y1207D01*
X2386Y1207D01*
X2385Y1205D01*
X2383Y1204D01*
X2381Y1202D01*
X2379Y1201D01*
X2378Y1199D01*
X2376Y1197D01*
X2375Y1195D01*
X2373Y1194D01*
X2373Y1192D01*
X2371Y1190D01*
X2371Y1187D01*
X2370Y1185D01*
X2370Y1183D01*
X2369Y1181D01*
Y1178D01*
X2369Y1176D01*
X2369Y1174D01*
Y1171D01*
X2370Y1169D01*
X2370Y1167D01*
X2371Y1165D01*
X2371Y1162D01*
X2373Y1160D01*
X2373Y1158D01*
X2375Y1157D01*
Y1075D01*
X2375Y1073D01*
Y1040D01*
X2408D01*
X2410Y1040D01*
X2412Y1040D01*
X2445D01*
Y1073D01*
X2445Y1075D01*
Y1170D01*
X2444Y1179D01*
X2441Y1188D01*
X2435Y1195D01*
X2429Y1201D01*
X2427Y1202D01*
X2425Y1204D01*
X2423Y1205D01*
X2422Y1207D01*
X2420Y1207D01*
X2418Y1209D01*
X2415Y1209D01*
X2413Y1210D01*
X2411Y1210D01*
X2409Y1211D01*
X2406D01*
X2404Y1211D01*
D02*
G37*
G36*
X1352Y1207D02*
X1350Y1207D01*
X1347D01*
X1345Y1206D01*
X1343Y1206D01*
X1341Y1205D01*
X1338Y1205D01*
X1336Y1203D01*
X1334Y1203D01*
X1333Y1201D01*
X1331Y1200D01*
X1329Y1198D01*
X1327Y1197D01*
X1315Y1185D01*
X1309Y1178D01*
X1306Y1169D01*
X1305Y1160D01*
Y1035D01*
X1305Y1033D01*
Y1000D01*
X1338D01*
X1340Y1000D01*
X1342Y1000D01*
X1375D01*
Y1033D01*
X1375Y1035D01*
Y1145D01*
X1377Y1147D01*
X1378Y1149D01*
X1380Y1151D01*
X1381Y1153D01*
X1383Y1154D01*
X1383Y1156D01*
X1385Y1158D01*
X1385Y1161D01*
X1386Y1163D01*
X1386Y1165D01*
X1387Y1167D01*
Y1170D01*
X1387Y1172D01*
X1387Y1174D01*
Y1177D01*
X1386Y1179D01*
X1386Y1181D01*
X1385Y1183D01*
X1385Y1186D01*
X1383Y1188D01*
X1383Y1190D01*
X1381Y1191D01*
X1380Y1193D01*
X1378Y1195D01*
X1377Y1197D01*
X1375Y1198D01*
X1373Y1200D01*
X1371Y1201D01*
X1370Y1203D01*
X1368Y1203D01*
X1366Y1205D01*
X1363Y1205D01*
X1361Y1206D01*
X1359Y1206D01*
X1357Y1207D01*
X1354D01*
X1352Y1207D01*
D02*
G37*
G36*
X2065Y1790D02*
X2055D01*
X2046Y1788D01*
X2039Y1783D01*
X2032Y1776D01*
X2027Y1769D01*
X2025Y1760D01*
Y1750D01*
X2027Y1741D01*
X2032Y1734D01*
X2039Y1727D01*
X2045Y1723D01*
Y1215D01*
X2046Y1209D01*
X2049Y1204D01*
X2165Y1088D01*
Y1040D01*
X2185D01*
Y990D01*
X2171D01*
Y934D01*
X2227D01*
Y990D01*
X2215D01*
Y1040D01*
X2235D01*
Y1110D01*
X2187D01*
X2075Y1221D01*
Y1723D01*
X2081Y1727D01*
X2088Y1734D01*
X2093Y1741D01*
X2095Y1750D01*
Y1760D01*
X2093Y1769D01*
X2088Y1776D01*
X2081Y1783D01*
X2074Y1788D01*
X2065Y1790D01*
D02*
G37*
G36*
X2500Y1110D02*
X2498Y1110D01*
X2465D01*
Y1077D01*
X2465Y1075D01*
Y1048D01*
X2465Y1046D01*
Y1040D01*
X2466D01*
X2466Y1039D01*
X2469Y1031D01*
X2475Y1023D01*
X2482Y1016D01*
Y942D01*
X2482Y941D01*
X2479Y930D01*
Y920D01*
X2482Y909D01*
X2487Y900D01*
X2495Y892D01*
X2504Y887D01*
X2515Y884D01*
X2525D01*
X2536Y887D01*
X2545Y892D01*
X2553Y900D01*
X2558Y909D01*
X2561Y920D01*
Y930D01*
X2558Y941D01*
X2553Y950D01*
Y1031D01*
X2552Y1040D01*
X2548Y1048D01*
X2543Y1056D01*
X2535Y1063D01*
Y1075D01*
X2535Y1077D01*
Y1110D01*
X2502D01*
X2500Y1110D01*
D02*
G37*
G36*
X2385Y966D02*
X2375D01*
X2364Y963D01*
X2355Y958D01*
X2350Y953D01*
X2285D01*
X2283Y953D01*
X2257D01*
Y927D01*
X2257Y925D01*
X2257Y923D01*
Y897D01*
X2283D01*
X2285Y897D01*
X2350D01*
X2355Y892D01*
X2364Y887D01*
X2375Y884D01*
X2385D01*
X2396Y887D01*
X2405Y892D01*
X2413Y900D01*
X2418Y909D01*
X2421Y920D01*
Y930D01*
X2418Y941D01*
X2413Y950D01*
X2405Y958D01*
X2396Y963D01*
X2385Y966D01*
D02*
G37*
G36*
X1320Y901D02*
X1310D01*
X1299Y898D01*
X1290Y893D01*
X1282Y885D01*
X1277Y876D01*
X1277Y875D01*
X1249D01*
Y885D01*
X1193D01*
Y829D01*
X1249D01*
Y845D01*
X1277D01*
X1277Y844D01*
X1282Y835D01*
X1290Y827D01*
X1299Y822D01*
X1310Y819D01*
X1320D01*
X1331Y822D01*
X1340Y827D01*
X1348Y835D01*
X1353Y844D01*
X1356Y855D01*
Y865D01*
X1353Y876D01*
X1348Y885D01*
X1340Y893D01*
X1331Y898D01*
X1320Y901D01*
D02*
G37*
G36*
X1389Y1775D02*
X1379D01*
X1370Y1773D01*
X1363Y1768D01*
X1356Y1761D01*
X1351Y1754D01*
X1349Y1745D01*
Y1735D01*
X1351Y1726D01*
X1356Y1719D01*
X1363Y1712D01*
X1369Y1708D01*
Y1295D01*
X1143Y1070D01*
X1095D01*
Y1000D01*
X1115D01*
Y922D01*
X1107D01*
Y866D01*
X1163D01*
Y922D01*
X1145D01*
Y1000D01*
X1165D01*
Y1048D01*
X1395Y1278D01*
X1398Y1283D01*
X1399Y1289D01*
Y1708D01*
X1405Y1712D01*
X1412Y1719D01*
X1417Y1726D01*
X1419Y1735D01*
Y1745D01*
X1417Y1754D01*
X1412Y1761D01*
X1405Y1768D01*
X1398Y1773D01*
X1389Y1775D01*
D02*
G37*
G36*
X1465Y1070D02*
X1395D01*
Y1000D01*
X1415D01*
Y899D01*
X1416Y893D01*
X1419Y888D01*
X1422Y885D01*
X1422Y885D01*
X1417Y876D01*
X1414Y865D01*
Y855D01*
X1417Y844D01*
X1422Y835D01*
X1430Y827D01*
X1439Y822D01*
X1450Y819D01*
X1460D01*
X1471Y822D01*
X1480Y827D01*
X1488Y835D01*
X1493Y844D01*
X1496Y855D01*
Y865D01*
X1493Y876D01*
X1488Y885D01*
X1480Y893D01*
X1471Y898D01*
X1460Y901D01*
X1450D01*
X1445Y905D01*
Y1000D01*
X1465D01*
Y1070D01*
D02*
G37*
G36*
X1348Y751D02*
X1346Y751D01*
X1343D01*
X1341Y750D01*
X1339Y750D01*
X1337Y749D01*
X1334Y749D01*
X1332Y747D01*
X1330Y747D01*
X1329Y745D01*
X1327Y744D01*
X1325Y742D01*
X1323Y741D01*
X1315Y733D01*
X1309Y726D01*
X1306Y717D01*
X1305Y708D01*
Y625D01*
X1305Y623D01*
Y590D01*
X1338D01*
X1340Y590D01*
X1342Y590D01*
X1375D01*
Y623D01*
X1375Y625D01*
Y694D01*
X1376Y695D01*
X1377Y697D01*
X1379Y698D01*
X1379Y700D01*
X1381Y702D01*
X1381Y705D01*
X1382Y707D01*
X1382Y709D01*
X1383Y711D01*
Y714D01*
X1383Y716D01*
X1383Y718D01*
Y721D01*
X1382Y723D01*
X1382Y725D01*
X1381Y727D01*
X1381Y730D01*
X1379Y732D01*
X1379Y734D01*
X1377Y735D01*
X1376Y737D01*
X1374Y739D01*
X1373Y741D01*
X1371Y742D01*
X1369Y744D01*
X1367Y745D01*
X1366Y747D01*
X1364Y747D01*
X1362Y749D01*
X1359Y749D01*
X1357Y750D01*
X1355Y750D01*
X1353Y751D01*
X1350D01*
X1348Y751D01*
D02*
G37*
G36*
X1320Y486D02*
X1310D01*
X1299Y483D01*
X1290Y478D01*
X1282Y470D01*
X1277Y461D01*
X1277Y460D01*
X1249D01*
Y471D01*
X1193D01*
Y415D01*
X1249D01*
Y430D01*
X1277D01*
X1277Y429D01*
X1282Y420D01*
X1290Y412D01*
X1299Y407D01*
X1310Y404D01*
X1320D01*
X1331Y407D01*
X1340Y412D01*
X1348Y420D01*
X1353Y429D01*
X1356Y440D01*
Y450D01*
X1353Y461D01*
X1348Y470D01*
X1340Y478D01*
X1331Y483D01*
X1320Y486D01*
D02*
G37*
G36*
X1545Y1803D02*
X1535D01*
X1526Y1801D01*
X1519Y1796D01*
X1512Y1789D01*
X1507Y1782D01*
X1505Y1773D01*
Y1763D01*
X1507Y1754D01*
X1512Y1747D01*
X1519Y1740D01*
X1526Y1735D01*
X1535Y1733D01*
X1545D01*
X1552Y1735D01*
X1601Y1686D01*
Y910D01*
X1480Y790D01*
X1280D01*
X1274Y789D01*
X1269Y785D01*
X1143Y660D01*
X1095D01*
Y590D01*
X1115D01*
Y508D01*
X1107D01*
Y452D01*
X1163D01*
Y508D01*
X1145D01*
Y590D01*
X1165D01*
Y638D01*
X1286Y759D01*
X1487D01*
X1492Y760D01*
X1497Y764D01*
X1627Y893D01*
X1630Y898D01*
X1631Y904D01*
Y1692D01*
X1630Y1698D01*
X1627Y1703D01*
X1573Y1756D01*
X1575Y1763D01*
Y1773D01*
X1573Y1782D01*
X1568Y1789D01*
X1561Y1796D01*
X1554Y1801D01*
X1545Y1803D01*
D02*
G37*
G36*
X1465Y660D02*
X1395D01*
Y590D01*
X1415D01*
Y484D01*
X1416Y478D01*
X1419Y473D01*
X1422Y470D01*
X1422Y470D01*
X1417Y461D01*
X1414Y450D01*
Y440D01*
X1417Y429D01*
X1422Y420D01*
X1430Y412D01*
X1439Y407D01*
X1450Y404D01*
X1460D01*
X1471Y407D01*
X1480Y412D01*
X1488Y420D01*
X1493Y429D01*
X1496Y440D01*
Y450D01*
X1493Y461D01*
X1488Y470D01*
X1480Y478D01*
X1471Y483D01*
X1460Y486D01*
X1450D01*
X1445Y490D01*
Y590D01*
X1465D01*
Y660D01*
D02*
G37*
G36*
X1170Y266D02*
X1155Y264D01*
X1141Y260D01*
X1128Y253D01*
X1116Y244D01*
X1107Y232D01*
X1100Y219D01*
X1096Y205D01*
X1094Y190D01*
X1096Y175D01*
X1100Y161D01*
X1107Y148D01*
X1116Y136D01*
X1128Y127D01*
X1141Y120D01*
X1155Y116D01*
X1170Y114D01*
X1185Y116D01*
X1199Y120D01*
X1212Y127D01*
X1224Y136D01*
X1233Y148D01*
X1240Y161D01*
X1244Y175D01*
X1246Y190D01*
X1244Y205D01*
X1240Y219D01*
X1233Y232D01*
X1224Y244D01*
X1212Y253D01*
X1199Y260D01*
X1185Y264D01*
X1170Y266D01*
D02*
G37*
%LPD*%
G36*
X915Y1855D02*
X755Y1855D01*
X275Y1855D01*
Y1890D01*
X725D01*
X755Y1920D01*
Y2120D01*
X915D01*
Y1855D01*
D02*
G37*
D13*
X3260Y1710D02*
D03*
X3210D02*
D03*
X3160D02*
D03*
X3110D02*
D03*
X3060D02*
D03*
X3010D02*
D03*
X2960D02*
D03*
X3110Y1930D02*
D03*
X3160D02*
D03*
X3210D02*
D03*
X3260D02*
D03*
X2910D02*
D03*
X2960D02*
D03*
X3010D02*
D03*
X3060D02*
D03*
D14*
X2910Y1710D02*
D03*
D15*
X375Y1415D02*
D03*
Y1325D02*
D03*
X735Y1415D02*
D03*
Y1325D02*
D03*
X660Y1415D02*
D03*
Y1325D02*
D03*
X585Y1415D02*
D03*
Y1325D02*
D03*
X275Y1325D02*
D03*
Y1415D02*
D03*
X335Y965D02*
D03*
Y1055D02*
D03*
D16*
X1130Y1570D02*
D03*
X1220D02*
D03*
X1130Y1315D02*
D03*
X1220D02*
D03*
X1130Y625D02*
D03*
X1220D02*
D03*
X2200Y1075D02*
D03*
X2290D02*
D03*
X2410Y1075D02*
D03*
X2500D02*
D03*
X1430Y625D02*
D03*
X1340D02*
D03*
X1430Y1035D02*
D03*
X1340D02*
D03*
X1220Y1035D02*
D03*
X1130D02*
D03*
X2825Y1930D02*
D03*
X2735D02*
D03*
X2735Y1710D02*
D03*
X2825D02*
D03*
X2290Y1970D02*
D03*
X2200D02*
D03*
D17*
X2285Y925D02*
D03*
X2199Y888D02*
D03*
Y962D02*
D03*
X205Y1910D02*
D03*
Y1836D02*
D03*
X291Y1873D02*
D03*
X1135Y480D02*
D03*
Y406D02*
D03*
X1221Y443D02*
D03*
X1135Y894D02*
D03*
Y820D02*
D03*
X1221Y857D02*
D03*
D18*
X465Y1420D02*
D03*
Y1330D02*
D03*
D19*
X438Y1405D02*
D03*
Y1385D02*
D03*
Y1365D02*
D03*
Y1345D02*
D03*
D20*
X490Y1575D02*
D03*
X205D02*
D03*
D21*
X584Y2050D02*
D03*
X835D02*
D03*
D38*
X3160Y2215D02*
G03*
X3155Y2215I-1J-46D01*
G01*
X3165Y2215D02*
G03*
X3166Y2215I1J10D01*
G01*
X3165Y2215D02*
G03*
X3160Y2215I-3J-46D01*
G01*
X1413Y1920D02*
X1562Y2069D01*
X1270Y1920D02*
X1413D01*
X2726Y1824D02*
X2810Y1740D01*
X217Y1824D02*
X2726D01*
X205Y1836D02*
X217Y1824D01*
X2199Y962D02*
X2200Y963D01*
Y1075D01*
X1616Y904D02*
Y1692D01*
X1540Y1768D02*
X1616Y1692D01*
X1487Y775D02*
X1616Y904D01*
X1280Y775D02*
X1487D01*
X1130Y625D02*
X1280Y775D01*
X1130Y485D02*
X1135Y480D01*
X1130Y485D02*
Y625D01*
X1223Y445D02*
X1315D01*
X1221Y443D02*
X1223Y445D01*
X1430Y484D02*
X1455Y459D01*
Y445D02*
Y459D01*
X1430Y484D02*
Y625D01*
X1130Y899D02*
Y1035D01*
Y899D02*
X1135Y894D01*
X1221Y857D02*
X1224Y860D01*
X1315D01*
X1430Y899D02*
X1455Y874D01*
X1430Y899D02*
Y1035D01*
X1455Y860D02*
Y874D01*
X1384Y1289D02*
Y1740D01*
X1130Y1035D02*
X1384Y1289D01*
X1220Y1315D02*
X1310D01*
X1220Y1570D02*
X1310D01*
X1220Y1570D02*
X1220Y1570D01*
X210Y940D02*
X220D01*
X335Y1055D01*
X81Y1347D02*
X149Y1415D01*
X81Y1096D02*
X97Y1080D01*
X81Y1096D02*
Y1347D01*
X97Y1080D02*
X210D01*
X149Y1415D02*
X275D01*
X2060Y1215D02*
Y1755D01*
Y1215D02*
X2200Y1075D01*
X3090Y1845D02*
X3260D01*
X3060Y1875D02*
X3090Y1845D01*
X3260D02*
X3320Y1905D01*
X3262Y2169D02*
X3320Y2111D01*
Y1905D02*
Y2111D01*
X3060Y1875D02*
Y1930D01*
X3210D02*
Y2200D01*
X3198Y2212D02*
X3210Y2200D01*
X3166Y2215D02*
X3195D01*
X3198Y2212D01*
X3062Y2169D02*
X3108Y2215D01*
X3155D01*
X3062Y2006D02*
X3110Y1958D01*
X3062Y2006D02*
Y2069D01*
X3110Y2008D02*
X3160Y1958D01*
Y1930D02*
Y1958D01*
X3110Y2008D02*
Y2117D01*
X3162Y2169D01*
X3110Y1930D02*
Y1958D01*
X2290Y1970D02*
X2400D01*
X2290Y1970D02*
X2290Y1970D01*
X2540D02*
X2554D01*
X2579Y1995D01*
X2788D01*
X2862Y2069D01*
D39*
X3160Y2215D02*
D03*
D40*
X514Y1410D02*
D03*
D41*
X490Y1375D02*
D03*
D42*
X514Y1346D02*
D03*
D43*
X1340Y1035D02*
Y1160D01*
X1352Y1172D01*
X2780Y1864D02*
X2820Y1904D01*
X2676Y1864D02*
X2780D01*
X2500Y1048D02*
X2518Y1031D01*
Y927D02*
Y1031D01*
Y927D02*
X2520Y925D01*
X2500Y1048D02*
Y1075D01*
X2410D02*
Y1170D01*
X2404Y1176D02*
X2410Y1170D01*
X1340Y625D02*
Y708D01*
X1348Y716D01*
D44*
X430Y1150D02*
Y1344D01*
X335Y1055D02*
X430Y1150D01*
Y1344D02*
X431Y1345D01*
X438D01*
D45*
X413Y1354D02*
X421Y1363D01*
X413Y1295D02*
Y1354D01*
X397Y1279D02*
X413Y1295D01*
X397Y1184D02*
Y1279D01*
X481Y1184D02*
X521Y1224D01*
Y1272D01*
X520Y1274D02*
X521Y1272D01*
X520Y1274D02*
Y1340D01*
X514Y1346D02*
X520Y1340D01*
X421Y1363D02*
X436D01*
X438Y1365D01*
D46*
X2285Y925D02*
X2285Y925D01*
X2380D02*
X2380Y925D01*
D47*
X2285Y925D02*
X2380D01*
D48*
X390Y2050D02*
X584D01*
X584Y2050D01*
D49*
X3403Y1833D02*
D03*
X3503D02*
D03*
Y1933D02*
D03*
X3403D02*
D03*
D50*
X1310Y1315D02*
D03*
X1450D02*
D03*
X1310Y1570D02*
D03*
X1450D02*
D03*
X1315Y860D02*
D03*
X1455D02*
D03*
X1315Y445D02*
D03*
X1455D02*
D03*
X2380Y925D02*
D03*
X2520D02*
D03*
X2262Y2069D02*
D03*
X2362D02*
D03*
X2462D02*
D03*
X2562Y2169D02*
D03*
X3062Y2069D02*
D03*
Y2169D02*
D03*
X3162D02*
D03*
X3262D02*
D03*
X210Y940D02*
D03*
Y1080D02*
D03*
X1362Y2069D02*
D03*
X1462D02*
D03*
X1562D02*
D03*
X1662D02*
D03*
X1762D02*
D03*
X1862D02*
D03*
X1962D02*
D03*
X2062D02*
D03*
X2162D02*
D03*
X2562D02*
D03*
X2662D02*
D03*
X2762D02*
D03*
X2862D02*
D03*
X2962D02*
D03*
X3162D02*
D03*
X3262D02*
D03*
X1362Y2169D02*
D03*
X1462D02*
D03*
X1562D02*
D03*
X1662D02*
D03*
X1762D02*
D03*
X1862D02*
D03*
X1962D02*
D03*
X2062D02*
D03*
X2162D02*
D03*
X2262D02*
D03*
X2362D02*
D03*
X2462D02*
D03*
X2662D02*
D03*
X2762D02*
D03*
X2862D02*
D03*
X2962D02*
D03*
X2540Y1970D02*
D03*
X2400D02*
D03*
X1270Y1920D02*
D03*
X1130D02*
D03*
D51*
X1170Y190D02*
D03*
Y2119D02*
D03*
X3453D02*
D03*
Y190D02*
D03*
D52*
X390Y2050D02*
D03*
X180D02*
D03*
D53*
X3345Y1650D02*
D03*
X3195Y1350D02*
D03*
X3345Y1050D02*
D03*
X3195Y750D02*
D03*
X3345Y450D02*
D03*
X3195Y150D02*
D03*
X2895Y1350D02*
D03*
X3045Y1050D02*
D03*
X2895Y750D02*
D03*
X3045Y450D02*
D03*
X2895Y150D02*
D03*
X2595Y1950D02*
D03*
X2745Y1650D02*
D03*
X2595Y1350D02*
D03*
X2745Y1050D02*
D03*
X2595Y750D02*
D03*
X2745Y450D02*
D03*
X2595Y150D02*
D03*
X2295Y1350D02*
D03*
Y750D02*
D03*
X2445Y450D02*
D03*
X2295Y150D02*
D03*
X1995Y1950D02*
D03*
X2145Y1650D02*
D03*
X1995Y1350D02*
D03*
X2145Y1050D02*
D03*
X1995Y750D02*
D03*
X2145Y450D02*
D03*
X1995Y150D02*
D03*
X1845Y1650D02*
D03*
X1695Y1350D02*
D03*
X1845Y1050D02*
D03*
X1695Y750D02*
D03*
X1845Y450D02*
D03*
X1695Y150D02*
D03*
X1545Y1050D02*
D03*
Y450D02*
D03*
X1395Y150D02*
D03*
X1245Y1650D02*
D03*
X945D02*
D03*
Y1050D02*
D03*
X795Y750D02*
D03*
X945Y450D02*
D03*
X795Y150D02*
D03*
X645Y1650D02*
D03*
Y1050D02*
D03*
X495Y750D02*
D03*
X645Y450D02*
D03*
X495Y150D02*
D03*
X195Y1950D02*
D03*
Y750D02*
D03*
X345Y450D02*
D03*
X195Y150D02*
D03*
X481Y1184D02*
D03*
X397D02*
D03*
D54*
X1352Y1172D02*
D03*
X756Y1565D02*
D03*
Y1508D02*
D03*
X476Y1244D02*
D03*
X2676Y1864D02*
D03*
X2404Y1176D02*
D03*
X1540Y1768D02*
D03*
X1348Y716D02*
D03*
X644Y1248D02*
D03*
X1384Y1740D02*
D03*
X143Y1250D02*
D03*
Y1192D02*
D03*
Y1308D02*
D03*
X200D02*
D03*
Y1192D02*
D03*
Y1250D02*
D03*
X706Y1508D02*
D03*
X648D02*
D03*
Y1565D02*
D03*
X706D02*
D03*
X2060Y1755D02*
D03*
M02*
