G04*
G04 #@! TF.GenerationSoftware,Altium Limited,Altium Designer,22.10.1 (41)*
G04*
G04 Layer_Color=65535*
%FSLAX23Y23*%
%MOIN*%
G70*
G04*
G04 #@! TF.SameCoordinates,9DCC93BE-6794-47A7-A240-529396958765*
G04*
G04*
G04 #@! TF.FilePolarity,Positive*
G04*
G01*
G75*
%ADD10C,0.008*%
%ADD11C,0.006*%
%ADD12C,0.007*%
D10*
X2885Y1710D02*
G03*
X2885Y1710I-6J0D01*
G01*
X2879Y1706D02*
Y1714D01*
X2875Y1710D02*
X2883D01*
X3282Y1745D02*
Y1895D01*
X2888Y1745D02*
Y1895D01*
X2075Y949D02*
Y909D01*
X2083Y901D01*
X2099D01*
X2107Y909D01*
Y949D01*
X2123D02*
X2155D01*
Y941D01*
X2123Y909D01*
Y901D01*
X2785Y1849D02*
Y1809D01*
X2793Y1801D01*
X2809D01*
X2817Y1809D01*
Y1849D01*
X2865D02*
X2849Y1841D01*
X2833Y1825D01*
Y1809D01*
X2841Y1801D01*
X2857D01*
X2865Y1809D01*
Y1817D01*
X2857Y1825D01*
X2833D01*
X1136Y567D02*
Y527D01*
X1144Y519D01*
X1160D01*
X1168Y527D01*
Y567D01*
X1216D02*
X1184D01*
Y543D01*
X1200Y551D01*
X1208D01*
X1216Y543D01*
Y527D01*
X1208Y519D01*
X1192D01*
X1184Y527D01*
X1141Y981D02*
Y941D01*
X1149Y933D01*
X1165D01*
X1173Y941D01*
Y981D01*
X1213Y933D02*
Y981D01*
X1189Y957D01*
X1221D01*
X85Y1899D02*
Y1859D01*
X93Y1851D01*
X109D01*
X117Y1859D01*
Y1899D01*
X165Y1851D02*
X133D01*
X165Y1883D01*
Y1891D01*
X157Y1899D01*
X141D01*
X133Y1891D01*
X448Y1304D02*
Y1264D01*
X456Y1256D01*
X472D01*
X480Y1264D01*
Y1304D01*
X496Y1256D02*
X512D01*
X504D01*
Y1304D01*
X496Y1296D01*
X140Y2174D02*
Y2126D01*
X164D01*
X172Y2134D01*
Y2142D01*
X164Y2150D01*
X140D01*
X164D01*
X172Y2158D01*
Y2166D01*
X164Y2174D01*
X140D01*
X188Y2150D02*
X220D01*
X350Y2174D02*
Y2126D01*
X374D01*
X382Y2134D01*
Y2142D01*
X374Y2150D01*
X350D01*
X374D01*
X382Y2158D01*
Y2166D01*
X374Y2174D01*
X350D01*
X398Y2150D02*
X430D01*
X414Y2166D02*
Y2134D01*
X1163Y1866D02*
X1155Y1874D01*
X1139D01*
X1131Y1866D01*
Y1858D01*
X1139Y1850D01*
X1155D01*
X1163Y1842D01*
Y1834D01*
X1155Y1826D01*
X1139D01*
X1131Y1834D01*
X1179Y1874D02*
Y1826D01*
X1195Y1842D01*
X1211Y1826D01*
Y1874D01*
X1259D02*
X1227D01*
Y1850D01*
X1243Y1858D01*
X1251D01*
X1259Y1850D01*
Y1834D01*
X1251Y1826D01*
X1235D01*
X1227Y1834D01*
X2438Y1916D02*
X2430Y1924D01*
X2414D01*
X2406Y1916D01*
Y1908D01*
X2414Y1900D01*
X2430D01*
X2438Y1892D01*
Y1884D01*
X2430Y1876D01*
X2414D01*
X2406Y1884D01*
X2454Y1924D02*
Y1876D01*
X2470Y1892D01*
X2486Y1876D01*
Y1924D01*
X2526Y1876D02*
Y1924D01*
X2502Y1900D01*
X2534D01*
X1348Y1401D02*
X1340Y1409D01*
X1324D01*
X1316Y1401D01*
Y1393D01*
X1324Y1385D01*
X1340D01*
X1348Y1377D01*
Y1369D01*
X1340Y1361D01*
X1324D01*
X1316Y1369D01*
X1364Y1409D02*
Y1361D01*
X1380Y1377D01*
X1396Y1361D01*
Y1409D01*
X1412Y1401D02*
X1420Y1409D01*
X1436D01*
X1444Y1401D01*
Y1393D01*
X1436Y1385D01*
X1428D01*
X1436D01*
X1444Y1377D01*
Y1369D01*
X1436Y1361D01*
X1420D01*
X1412Y1369D01*
X1348Y1656D02*
X1340Y1664D01*
X1324D01*
X1316Y1656D01*
Y1648D01*
X1324Y1640D01*
X1340D01*
X1348Y1632D01*
Y1624D01*
X1340Y1616D01*
X1324D01*
X1316Y1624D01*
X1364Y1664D02*
Y1616D01*
X1380Y1632D01*
X1396Y1616D01*
Y1664D01*
X1444Y1616D02*
X1412D01*
X1444Y1648D01*
Y1656D01*
X1436Y1664D01*
X1420D01*
X1412Y1656D01*
X186Y881D02*
X178Y889D01*
X162D01*
X154Y881D01*
Y873D01*
X162Y865D01*
X178D01*
X186Y857D01*
Y849D01*
X178Y841D01*
X162D01*
X154Y849D01*
X202Y889D02*
Y841D01*
X218Y857D01*
X234Y841D01*
Y889D01*
X250Y841D02*
X266D01*
X258D01*
Y889D01*
X250Y881D01*
X2185Y1876D02*
Y1924D01*
X2209D01*
X2217Y1916D01*
Y1900D01*
X2209Y1892D01*
X2185D01*
X2201D02*
X2217Y1876D01*
X2233D02*
X2249D01*
X2241D01*
Y1924D01*
X2233Y1916D01*
X2273D02*
X2281Y1924D01*
X2297D01*
X2305Y1916D01*
Y1884D01*
X2297Y1876D01*
X2281D01*
X2273Y1884D01*
Y1916D01*
X2205Y1116D02*
Y1164D01*
X2229D01*
X2237Y1156D01*
Y1140D01*
X2229Y1132D01*
X2205D01*
X2221D02*
X2237Y1116D01*
X2253Y1124D02*
X2261Y1116D01*
X2277D01*
X2285Y1124D01*
Y1156D01*
X2277Y1164D01*
X2261D01*
X2253Y1156D01*
Y1148D01*
X2261Y1140D01*
X2285D01*
X1135Y1361D02*
Y1409D01*
X1159D01*
X1167Y1401D01*
Y1385D01*
X1159Y1377D01*
X1135D01*
X1151D02*
X1167Y1361D01*
X1183Y1401D02*
X1191Y1409D01*
X1207D01*
X1215Y1401D01*
Y1393D01*
X1207Y1385D01*
X1215Y1377D01*
Y1369D01*
X1207Y1361D01*
X1191D01*
X1183Y1369D01*
Y1377D01*
X1191Y1385D01*
X1183Y1393D01*
Y1401D01*
X1191Y1385D02*
X1207D01*
X2415Y1116D02*
Y1164D01*
X2439D01*
X2447Y1156D01*
Y1140D01*
X2439Y1132D01*
X2415D01*
X2431D02*
X2447Y1116D01*
X2463Y1164D02*
X2495D01*
Y1156D01*
X2463Y1124D01*
Y1116D01*
X1135Y1616D02*
Y1664D01*
X1159D01*
X1167Y1656D01*
Y1640D01*
X1159Y1632D01*
X1135D01*
X1151D02*
X1167Y1616D01*
X1215Y1664D02*
X1199Y1656D01*
X1183Y1640D01*
Y1624D01*
X1191Y1616D01*
X1207D01*
X1215Y1624D01*
Y1632D01*
X1207Y1640D01*
X1183D01*
X1135Y666D02*
Y714D01*
X1159D01*
X1167Y706D01*
Y690D01*
X1159Y682D01*
X1135D01*
X1151D02*
X1167Y666D01*
X1215Y714D02*
X1183D01*
Y690D01*
X1199Y698D01*
X1207D01*
X1215Y690D01*
Y674D01*
X1207Y666D01*
X1191D01*
X1183Y674D01*
X1135Y1076D02*
Y1124D01*
X1159D01*
X1167Y1116D01*
Y1100D01*
X1159Y1092D01*
X1135D01*
X1151D02*
X1167Y1076D01*
X1207D02*
Y1124D01*
X1183Y1100D01*
X1215D01*
X1345Y666D02*
Y714D01*
X1369D01*
X1377Y706D01*
Y690D01*
X1369Y682D01*
X1345D01*
X1361D02*
X1377Y666D01*
X1393Y706D02*
X1401Y714D01*
X1417D01*
X1425Y706D01*
Y698D01*
X1417Y690D01*
X1409D01*
X1417D01*
X1425Y682D01*
Y674D01*
X1417Y666D01*
X1401D01*
X1393Y674D01*
X1345Y1076D02*
Y1124D01*
X1369D01*
X1377Y1116D01*
Y1100D01*
X1369Y1092D01*
X1345D01*
X1361D02*
X1377Y1076D01*
X1425D02*
X1393D01*
X1425Y1108D01*
Y1116D01*
X1417Y1124D01*
X1401D01*
X1393Y1116D01*
X303Y871D02*
Y919D01*
X327D01*
X335Y911D01*
Y895D01*
X327Y887D01*
X303D01*
X319D02*
X335Y871D01*
X351D02*
X367D01*
X359D01*
Y919D01*
X351Y911D01*
X318Y1759D02*
Y1711D01*
X350D01*
X366D02*
X382D01*
X374D01*
Y1759D01*
X366Y1751D01*
X710Y2204D02*
X678D01*
Y2180D01*
X694D01*
X678D01*
Y2156D01*
X726D02*
X742D01*
X734D01*
Y2204D01*
X726Y2196D01*
X2410Y1014D02*
Y966D01*
X2434D01*
X2442Y974D01*
Y1006D01*
X2434Y1014D01*
X2410D01*
X2458Y1006D02*
X2466Y1014D01*
X2482D01*
X2490Y1006D01*
Y998D01*
X2482Y990D01*
X2474D01*
X2482D01*
X2490Y982D01*
Y974D01*
X2482Y966D01*
X2466D01*
X2458Y974D01*
X1345Y534D02*
Y486D01*
X1369D01*
X1377Y494D01*
Y526D01*
X1369Y534D01*
X1345D01*
X1425Y486D02*
X1393D01*
X1425Y518D01*
Y526D01*
X1417Y534D01*
X1401D01*
X1393Y526D01*
X1353Y944D02*
Y896D01*
X1377D01*
X1385Y904D01*
Y936D01*
X1377Y944D01*
X1353D01*
X1401Y896D02*
X1417D01*
X1409D01*
Y944D01*
X1401Y936D01*
X2642Y1726D02*
X2634Y1734D01*
X2618D01*
X2610Y1726D01*
Y1694D01*
X2618Y1686D01*
X2634D01*
X2642Y1694D01*
X2658Y1734D02*
X2690D01*
Y1726D01*
X2658Y1694D01*
Y1686D01*
X2642Y1946D02*
X2634Y1954D01*
X2618D01*
X2610Y1946D01*
Y1914D01*
X2618Y1906D01*
X2634D01*
X2642Y1914D01*
X2690Y1954D02*
X2674Y1946D01*
X2658Y1930D01*
Y1914D01*
X2666Y1906D01*
X2682D01*
X2690Y1914D01*
Y1922D01*
X2682Y1930D01*
X2658D01*
X367Y1276D02*
X359Y1284D01*
X343D01*
X335Y1276D01*
Y1244D01*
X343Y1236D01*
X359D01*
X367Y1244D01*
X415Y1284D02*
X383D01*
Y1260D01*
X399Y1268D01*
X407D01*
X415Y1260D01*
Y1244D01*
X407Y1236D01*
X391D01*
X383Y1244D01*
X267Y1276D02*
X259Y1284D01*
X243D01*
X235Y1276D01*
Y1244D01*
X243Y1236D01*
X259D01*
X267Y1244D01*
X307Y1236D02*
Y1284D01*
X283Y1260D01*
X315D01*
X727Y1276D02*
X719Y1284D01*
X703D01*
X695Y1276D01*
Y1244D01*
X703Y1236D01*
X719D01*
X727Y1244D01*
X743Y1276D02*
X751Y1284D01*
X767D01*
X775Y1276D01*
Y1268D01*
X767Y1260D01*
X759D01*
X767D01*
X775Y1252D01*
Y1244D01*
X767Y1236D01*
X751D01*
X743Y1244D01*
X644Y1488D02*
X636Y1496D01*
X620D01*
X612Y1488D01*
Y1456D01*
X620Y1448D01*
X636D01*
X644Y1456D01*
X692Y1448D02*
X660D01*
X692Y1480D01*
Y1488D01*
X684Y1496D01*
X668D01*
X660Y1488D01*
X585Y1276D02*
X577Y1284D01*
X561D01*
X553Y1276D01*
Y1244D01*
X561Y1236D01*
X577D01*
X585Y1244D01*
X601Y1236D02*
X617D01*
X609D01*
Y1284D01*
X601Y1276D01*
D11*
X2217Y914D02*
Y936D01*
X2267Y951D02*
Y982D01*
Y868D02*
Y899D01*
X2224Y982D02*
X2267D01*
X2224Y868D02*
X2267D01*
X230Y1816D02*
X273D01*
X230Y1930D02*
X273D01*
Y1816D02*
Y1847D01*
Y1899D02*
Y1930D01*
X223Y1862D02*
Y1884D01*
X1160Y386D02*
X1203D01*
X1160Y500D02*
X1203D01*
Y386D02*
Y417D01*
Y469D02*
Y500D01*
X1153Y432D02*
Y454D01*
X1160Y800D02*
X1203D01*
X1160Y914D02*
X1203D01*
Y800D02*
Y831D01*
Y883D02*
Y914D01*
X1153Y846D02*
Y868D01*
D12*
X531Y1430D02*
X538D01*
Y1402D02*
Y1430D01*
X533Y1320D02*
X538D01*
Y1327D01*
X428Y1320D02*
X435D01*
X428D02*
Y1326D01*
Y1423D02*
Y1430D01*
X434D01*
M02*
